<?xml version="1.0" standalone="no"?>
<!DOCTYPE svg PUBLIC "-//W3C//DTD SVG 1.1//EN" "http://www.w3.org/Graphics/SVG/1.1/DTD/svg11.dtd" >
<svg xmlns="http://www.w3.org/2000/svg" xmlns:xlink="http://www.w3.org/1999/xlink" version="1.1">
<metadata>
Created by FontForge 20170731 at Tue Feb 25 17:01:30 2014
 By Aleksey,,,
Copyright (c) The digitally encoded machine readable outline data for producing the typefaces licensed to you is copyrighted (c), 2010 by The Foundry, London. All rights reserved.
</metadata>
<defs>
<font id="FoundryMonolineOT3W08-Md" horiz-adv-x="410" >
  <font-face 
    font-family="FoundryMonolineOT3W08-Md"
    font-weight="500"
    font-stretch="normal"
    units-per-em="1000"
    panose-1="2 0 0 0 0 0 0 0 0 0"
    ascent="800"
    descent="-200"
    x-height="484"
    cap-height="667"
    bbox="-194 -232 1539 1026"
    underline-thickness="50"
    underline-position="-200"
    unicode-range="U+0020-FFF3"
  />
<missing-glyph horiz-adv-x="500" 
d="M500 700v-700h-500v700h500zM109 75h282l-141 213zM250 414l140 211h-280zM80 545v-388l129 194zM420 158v386l-128 -193z" />
    <glyph glyph-name="IJ" unicode="IJ" horiz-adv-x="794" 
d="M84 0v667h89v-667h-89zM716 213q0 -25 -0.5 -46t-3.5 -39q-7 -41 -26.5 -67.5t-47.5 -41.5t-62.5 -21t-71.5 -6q-50 0 -89 9t-67 30.5t-42.5 57.5t-14.5 90h85q0 -33 8 -54t23.5 -32.5t39.5 -15.5t57 -4q45 0 69.5 8t36.5 25t14.5 43t2.5 62v456h89v-454z" />
    <glyph glyph-name="ij" unicode="ij" horiz-adv-x="442" 
d="M154 624q0 -15 -5.5 -25t-13 -15.5t-16 -7.5t-15.5 -2t-15.5 2t-16 7.5t-13 15.5t-5.5 25t5.5 25t13 15.5t16 7.5t15.5 2t16 -2t16.5 -7.5t12.5 -15.5t5 -25zM62 0v484h85v-484h-85zM380 624q0 -15 -5.5 -25t-13 -15.5t-16 -7.5t-15.5 -2t-15.5 2t-16 7.5t-13 15.5
t-5.5 25t5.5 25t13 15.5t16 7.5t15.5 2t15.5 -2t16 -7.5t13 -15.5t5.5 -25zM372 -37q0 -42 -13 -72t-36.5 -49t-56.5 -27.5t-73 -8.5q-37 0 -68 7t-53 23t-35 41.5t-14 62.5h83q0 -28 21 -45t66 -17q34 0 53 8t28 21.5t11 31t2 35.5v510h85v-521z" />
    <glyph glyph-name="uniE033" unicode="fj" horiz-adv-x="563" 
d="M359 590q0 12 -7 20.5t-18.5 13.5t-25.5 7.5t-29 2.5q-29 0 -47.5 -5.5t-29 -17.5t-14.5 -29.5t-4 -41.5v-56h183v-73h-182v-411h-85v411h-78v73h78v66q0 83 48.5 118.5t129.5 35.5q34 0 64 -6t52.5 -19.5t35 -35.5t12.5 -53h-83zM493 -37q0 -42 -13 -72t-36.5 -49
t-56.5 -27.5t-73 -8.5q-37 0 -68 7t-53 23t-35 41.5t-14 62.5h83q0 -28 21 -45t66 -17q34 0 53 8t28 21.5t11 31t2 35.5v510h85v-521z" />
    <glyph glyph-name="uniFB00" unicode="ff" horiz-adv-x="845" 
d="M761 590q0 12 -7 20.5t-18.5 13.5t-25.5 7.5t-29 2.5q-29 0 -47.5 -5.5t-29 -17.5t-14.5 -29.5t-4 -41.5v-56h183v-73h-182v-411h-85v411h-317v-411h-85v411h-78v73h78v66q0 83 48.5 118.5t129.5 35.5q34 0 64 -6t52.5 -19.5t35 -35.5t12.5 -53h-83q0 12 -7 20.5
t-18.5 13.5t-25.5 7.5t-29 2.5q-29 0 -47.5 -5.5t-29 -17.5t-14.5 -29.5t-4 -41.5v-56h318v66q0 83 48.5 118.5t129.5 35.5q34 0 64 -6t52.5 -19.5t35 -35.5t12.5 -53h-83z" />
    <glyph glyph-name="uniFB01" unicode="fi" horiz-adv-x="563" 
d="M408 0v484h85v-484h-85zM359 590q0 12 -7 20.5t-18.5 13.5t-25.5 7.5t-29 2.5q-29 0 -47.5 -5.5t-29 -17.5t-14.5 -29.5t-4 -41.5v-56h183v-73h-182v-411h-85v411h-78v73h78v66q0 83 48.5 118.5t129.5 35.5q34 0 64 -6t52.5 -19.5t35 -35.5t12.5 -53h-83z" />
    <glyph glyph-name="uniFB02" unicode="fl" horiz-adv-x="657" 
d="M502 0v697h85v-697h-85zM359 590q0 12 -7 20.5t-18.5 13.5t-25.5 7.5t-29 2.5q-29 0 -47.5 -5.5t-29 -17.5t-14.5 -29.5t-4 -41.5v-56h183v-73h-182v-411h-85v411h-78v73h78v66q0 83 48.5 118.5t129.5 35.5q34 0 64 -6t52.5 -19.5t35 -35.5t12.5 -53h-83z" />
    <glyph glyph-name="uniFB03" unicode="ffi" horiz-adv-x="965" 
d="M761 590q0 12 -7 20.5t-18.5 13.5t-25.5 7.5t-29 2.5q-29 0 -47.5 -5.5t-29 -17.5t-14.5 -29.5t-4 -41.5v-56h183v-73h-182v-411h-85v411h-317v-411h-85v411h-78v73h78v66q0 83 48.5 118.5t129.5 35.5q34 0 64 -6t52.5 -19.5t35 -35.5t12.5 -53h-83q0 12 -7 20.5
t-18.5 13.5t-25.5 7.5t-29 2.5q-29 0 -47.5 -5.5t-29 -17.5t-14.5 -29.5t-4 -41.5v-56h318v66q0 83 48.5 118.5t129.5 35.5q34 0 64 -6t52.5 -19.5t35 -35.5t12.5 -53h-83zM810 0v484h85v-484h-85z" />
    <glyph glyph-name="uniFB04" unicode="ffl" horiz-adv-x="1059" 
d="M761 590q0 12 -7 20.5t-18.5 13.5t-25.5 7.5t-29 2.5q-29 0 -47.5 -5.5t-29 -17.5t-14.5 -29.5t-4 -41.5v-56h183v-73h-182v-411h-85v411h-317v-411h-85v411h-78v73h78v66q0 83 48.5 118.5t129.5 35.5q34 0 64 -6t52.5 -19.5t35 -35.5t12.5 -53h-83q0 12 -7 20.5
t-18.5 13.5t-25.5 7.5t-29 2.5q-29 0 -47.5 -5.5t-29 -17.5t-14.5 -29.5t-4 -41.5v-56h318v66q0 83 48.5 118.5t129.5 35.5q34 0 64 -6t52.5 -19.5t35 -35.5t12.5 -53h-83zM904 0v697h85v-697h-85z" />
    <glyph glyph-name="f_t.liga" unicode="ft" horiz-adv-x="860" 
d="M840 141q0 -42 -13 -70.5t-36 -46t-54 -25t-68 -7.5q-82 0 -124.5 36t-42.5 115v268h-317v-411h-85v411h-78v73h78v66q0 83 48.5 118.5t129.5 35.5q34 0 64 -6t52.5 -19.5t35 -35.5t12.5 -53h-83q0 12 -7 20.5t-18.5 13.5t-25.5 7.5t-29 2.5q-29 0 -47.5 -5.5t-29 -17.5
t-14.5 -29.5t-4 -41.5v-56h318v183h85v-183h214v-73h-214v-268q0 -43 19.5 -60.5t66.5 -17.5t67.5 18t20.5 58h79v0z" />
    <glyph glyph-name=".notdef" horiz-adv-x="500" 
d="M500 700v-700h-500v700h500zM109 75h282l-141 213zM250 414l140 211h-280zM80 545v-388l129 194zM420 158v386l-128 -193z" />
    <glyph glyph-name="glyph1" horiz-adv-x="0" 
 />
    <glyph glyph-name="glyph2" horiz-adv-x="500" 
 />
    <glyph glyph-name="space" unicode=" " horiz-adv-x="237" 
 />
    <glyph glyph-name="exclam" unicode="!" horiz-adv-x="289" 
d="M103 190v477h83v-477h-83zM199 46q0 -54 -55 -54q-54 0 -54 54q0 26 13.5 41t40.5 15t41 -15t14 -41z" />
    <glyph glyph-name="quotedbl" unicode="&#x22;" horiz-adv-x="455" 
d="M271 450v217h79v-217h-79zM106 450v217h79v-217h-79z" />
    <glyph glyph-name="numbersign" unicode="#" horiz-adv-x="582" 
d="M442 402l-29 -110h102v-73h-122l-59 -219h-79l59 219h-114l-59 -219h-79l59 219h-103v73h122l29 110h-101v73h122l59 219h80l-60 -219h114l59 219h75l-55 -219h103v-73h-123zM249 402l-28 -110h112l29 110h-113z" />
    <glyph glyph-name="dollar" unicode="$" horiz-adv-x="566" 
d="M501 195q0 -99 -44.5 -144t-137.5 -51v-99h-77v99q-41 2 -74 10.5t-56 26t-35.5 45.5t-12.5 70h85q0 -38 20 -55.5t73 -18.5v231q-41 4 -73.5 14t-54.5 30t-33.5 52t-11.5 82q0 94 45.5 134.5t127.5 45.5v95h77v-95q41 -2 73.5 -10t55 -25.5t34.5 -46t12 -70.5h-85
q0 40 -18.5 57.5t-71.5 18.5v-207q49 -5 84 -14.5t56.5 -30t31.5 -55t10 -89.5zM242 591q-50 -1 -70 -25t-20 -84q0 -28 5 -45t15.5 -27t28 -14.5t41.5 -6.5v202zM418 199q0 33 -4.5 52.5t-15.5 30t-30 15t-49 7.5v-226q54 2 76.5 29t22.5 92z" />
    <glyph glyph-name="percent" unicode="%" horiz-adv-x="878" 
d="M66 500q0 34 3.5 65t17 55t41 38.5t76.5 14.5t77 -14.5t42 -39t17 -55.5t3 -64v-33q0 -39 -1 -76t-13.5 -66t-41 -46.5t-83.5 -17.5q-49 0 -77 14.5t-41.5 38.5t-16.5 55.5t-3 64.5v33v33zM279 467q0 56 -2 81.5t-6 36.5q-6 14 -20 22.5t-47 8.5q-34 0 -48 -9.5
t-19 -25.5q-4 -11 -5.5 -36t-1.5 -78q0 -57 2 -82.5t6 -35.5q6 -15 20 -23.5t46 -8.5q35 0 49 9.5t19 26.5q4 11 5.5 36t1.5 78zM534 233q0 34 3.5 65t17 55t41 38.5t76.5 14.5t77 -14.5t42 -39t17 -55.5t3 -64v-33q0 -39 -1 -76t-13.5 -66t-41 -46.5t-83.5 -17.5
q-49 0 -77 14.5t-41.5 38.5t-16.5 55.5t-3 64.5v33v33zM747 200q0 56 -2 81.5t-6 36.5q-6 14 -20 22.5t-47 8.5q-34 0 -48 -9.5t-19 -25.5q-4 -11 -5.5 -36t-1.5 -78q0 -57 2 -82.5t6 -35.5q6 -15 20 -23.5t46 -8.5q35 0 49 9.5t19 26.5q4 11 5.5 36t1.5 78zM304 0h-68
l336 667h70z" />
    <glyph glyph-name="ampersand" unicode="&#x26;" horiz-adv-x="610" 
d="M522 311v-85q0 -64 -11.5 -108.5t-38.5 -72.5t-71.5 -40.5t-109.5 -12.5q-56 0 -99 8.5t-72 30.5t-44 60t-15 98t15.5 101.5t61.5 59.5q-45 19 -58 57t-13 91q0 50 12.5 83.5t38 54t65 29.5t93.5 9q46 0 85 -7.5t66.5 -25.5t43 -49t15.5 -78h-85q0 47 -28.5 64.5
t-95.5 17.5q-39 0 -63.5 -5t-38 -17.5t-18.5 -32.5t-5 -50q0 -32 7.5 -51.5t22.5 -30.5t38.5 -14.5t56.5 -3.5h161v52h84v-52h59v-80h-59zM438 311h-161q-39 0 -64 -5t-40 -18.5t-21 -37.5t-6 -62t9 -61t27 -35.5t45.5 -17t63.5 -4.5q46 0 75 7.5t45 25.5t21.5 48t5.5 75v85
z" />
    <glyph glyph-name="quotesingle" unicode="'" horiz-adv-x="291" 
d="M106 450v217h79v-217h-79z" />
    <glyph glyph-name="parenleft" unicode="(" horiz-adv-x="311" 
d="M282 -191q-97 0 -149.5 26t-72.5 94q-15 49 -23 147t-8 230t8 232t23 149q10 34 28 56.5t45 36.5t64 20t85 6v-75q-57 0 -90.5 -13.5t-48.5 -51.5q-8 -21 -14 -63t-10 -93t-5.5 -104.5t-1.5 -98.5t1.5 -98.5t5.5 -104t10 -92.5t14 -63q15 -38 48.5 -51t90.5 -13v-76v0z
" />
    <glyph glyph-name="parenright" unicode=")" horiz-adv-x="311" 
d="M282 306q0 -132 -8 -230t-23 -147q-20 -68 -72.5 -94t-149.5 -26v76q57 0 90.5 13t48.5 51q8 21 14 63t9.5 92.5t5.5 104t2 98.5t-2 98.5t-5.5 104.5t-9.5 93t-14 63q-15 38 -48.5 51.5t-90.5 13.5v75q48 0 85 -6t64 -20t45 -36.5t28 -56.5q15 -49 23 -149t8 -232z" />
    <glyph glyph-name="asterisk" unicode="*" horiz-adv-x="527" 
d="M323 416l113 -147l-59 -41l-114 147l-113 -147l-60 41l114 147l-186 57l24 67l184 -56v183h74v-183l185 56l24 -67z" />
    <glyph glyph-name="plus" unicode="+" horiz-adv-x="582" 
d="M329 204v-204h-77v204h-214v77h214v203h77v-203h215v-77h-215z" />
    <glyph glyph-name="comma" unicode="," horiz-adv-x="222" 
d="M155 9q0 -42 -8.5 -70t-37.5 -55l-37 -35l-53 51q18 16 29 27t17 22t8.5 24.5t2.5 35.5v93h79v-93v0z" />
    <glyph glyph-name="hyphen" unicode="-" horiz-adv-x="505" 
d="M74 204v77h357v-77h-357z" />
    <glyph glyph-name="period" unicode="." horiz-adv-x="222" 
d="M165 48q0 -26 -13.5 -41t-40.5 -15t-41 15t-14 41q0 54 55 54q54 0 54 -54z" />
    <glyph glyph-name="slash" unicode="/" horiz-adv-x="492" 
d="M71 -98h-83l433 868h83z" />
    <glyph glyph-name="zero" unicode="0" horiz-adv-x="566" 
d="M506 333v-86.5t-5 -80.5t-18 -69.5t-37.5 -55t-64 -36.5t-98.5 -13t-98.5 13t-64 36.5t-37.5 55t-18 69.5t-5 80.5v86.5v86.5t5 80.5t18 69.5t37.5 55t64 36.5t98.5 13t98.5 -13t64 -36.5t37.5 -55t18 -69.5t5 -80.5v-86.5zM420 333q0 73 -2 123.5t-15 81.5t-41 44.5
t-79 13.5t-79 -13.5t-41 -44.5t-15 -81.5t-2 -123.5t2 -123.5t15 -81.5t41 -44.5t79 -13.5t79 13.5t41 44.5t15 81.5t2 123.5z" />
    <glyph glyph-name="one" unicode="1" horiz-adv-x="471" 
d="M54 0v77h158v482l-117 -109l-55 58l179 159h78v-590h159v-77h-402z" />
    <glyph glyph-name="two" unicode="2" horiz-adv-x="553" 
d="M494 479q0 -53 -15 -87t-41.5 -55.5t-62.5 -35.5t-77 -28t-69.5 -23t-45.5 -21t-24.5 -32.5t-7.5 -57.5v-62h342v-77h-428v158q0 56 18.5 88.5t49.5 51.5t70.5 30t81.5 25q28 9 51 17.5t39 21.5t24.5 33.5t8.5 53.5t-5.5 55t-20 36t-39.5 20t-64 6q-69 0 -98 -17t-29 -64
h-85q0 47 15.5 78t43 49t66 25t85.5 7q52 0 93 -10t68 -31q29 -23 42.5 -60t13.5 -94z" />
    <glyph glyph-name="three" unicode="3" horiz-adv-x="554" 
d="M494 196q0 -59 -14.5 -98t-42.5 -62.5t-69.5 -33.5t-94.5 -10q-44 0 -83 6.5t-68.5 24t-46.5 48.5t-17 81h86q0 -45 29.5 -63.5t100.5 -18.5q34 0 59.5 5t42.5 18.5t25 36.5t8 59q0 39 -5 62t-20 35.5t-41.5 16.5t-69.5 4h-97v78h97q34 0 58.5 3.5t40.5 14.5t23.5 32
t7.5 56q0 31 -5.5 51t-20 32t-39.5 17t-65 5q-71 0 -101.5 -18t-30.5 -63h-86q0 47 16 78t45 49t69 25t88 7q55 0 96 -9t67 -30t39 -55.5t13 -86.5q0 -23 -2 -44.5t-9 -40t-20.5 -34t-35.5 -25.5q25 -10 39.5 -25.5t22 -35t9.5 -43t2 -49.5z" />
    <glyph glyph-name="four" unicode="4" horiz-adv-x="560" 
d="M418 180v-180h-84v180h-290v73l293 414h81v-410h97v-77h-97zM334 538l-194 -281h194v281z" />
    <glyph glyph-name="five" unicode="5" horiz-adv-x="568" 
d="M501 210q0 -60 -13 -101.5t-40 -67.5t-69 -37.5t-101 -11.5q-45 0 -83 7.5t-65 25.5t-42.5 49t-15.5 78h83q0 -47 27.5 -64.5t95.5 -17.5q40 0 66.5 6t42.5 21.5t22.5 42t6.5 66.5q0 38 -3.5 66.5t-16.5 47t-38 27.5t-67 9q-70 0 -99 -20.5t-29 -57.5h-82v389h399v-78
h-317v-195q17 19 52.5 29.5t77.5 10.5q61 0 101 -13t64 -40.5t33.5 -70t9.5 -100.5z" />
    <glyph glyph-name="six" unicode="6" horiz-adv-x="565" 
d="M499 211q0 -112 -51.5 -165.5t-163.5 -53.5q-73 0 -126.5 28.5t-75.5 87.5q-11 30 -16.5 80t-5.5 117q0 76 3 134t10 93q14 76 68.5 109t145.5 33q42 0 78.5 -8t63.5 -26.5t42.5 -49t15.5 -75.5h-84q0 44 -27.5 62.5t-87.5 18.5q-37 0 -63.5 -6.5t-43 -29t-25 -65.5
t-9.5 -115q23 23 57.5 38.5t83.5 15.5q56 0 96 -12t65.5 -38.5t37.5 -69t12 -103.5zM414 210q0 43 -6 71.5t-20.5 45t-37.5 23t-57 6.5q-74 0 -108.5 -34.5t-34.5 -106.5q0 -80 31.5 -112.5t101.5 -32.5q36 0 61 7t40.5 23.5t22.5 43t7 66.5z" />
    <glyph glyph-name="seven" unicode="7" horiz-adv-x="470" 
d="M159 0h-94l293 589h-339v78h432v-74z" />
    <glyph glyph-name="eight" unicode="8" horiz-adv-x="563" 
d="M503 185q0 -57 -14.5 -94.5t-43 -59t-69.5 -30.5t-94 -9t-94 9t-69.5 30.5t-43.5 59t-15 94.5q0 60 15.5 101.5t61.5 59.5q-45 19 -58 58.5t-13 93.5q0 50 13 83.5t39.5 54t67 29.5t96.5 9t96.5 -9t67 -29.5t39 -54t12.5 -83.5q0 -54 -13 -93t-58 -59q46 -18 61.5 -59.5
t15.5 -101.5zM411 489q0 34 -7.5 55.5t-23.5 32.5t-40.5 15t-58.5 4t-58.5 -4t-40.5 -15t-23.5 -32.5t-7.5 -55.5t7.5 -54.5t23 -32t40 -15t59.5 -3.5q34 0 59 3.5t40.5 15t23 32t7.5 54.5zM417 188q0 38 -8 61.5t-24.5 36t-42 16.5t-60.5 4q-37 0 -63 -4t-42 -17t-23.5 -36
t-7.5 -61q0 -37 7.5 -60t24 -36t42.5 -17.5t62 -4.5t61.5 4.5t42 17.5t24 36t7.5 60z" />
    <glyph glyph-name="nine" unicode="9" horiz-adv-x="564" 
d="M504 361q0 -76 -3 -134t-10 -93q-14 -76 -68.5 -109t-145.5 -33q-42 0 -78.5 8t-63.5 26.5t-42.5 49t-15.5 75.5h84q0 -44 27.5 -62.5t87.5 -18.5q37 0 63.5 6.5t43 29t25 65.5t9.5 115q-23 -23 -57.5 -38.5t-83.5 -15.5q-56 0 -96 12t-65.5 38.5t-37.5 69t-12 103.5
q0 112 51.5 165.5t163.5 53.5q73 0 126.5 -28.5t75.5 -87.5q11 -30 16.5 -80t5.5 -117zM414 451q0 80 -31.5 112.5t-101.5 32.5q-36 0 -61 -7t-40.5 -23.5t-22.5 -43t-7 -66.5q0 -44 6 -72t20.5 -44.5t37.5 -23t57 -6.5q74 0 108.5 34.5t34.5 106.5z" />
    <glyph glyph-name="colon" unicode=":" horiz-adv-x="223" 
d="M166 438q0 -26 -13.5 -41t-40.5 -15t-41 15t-14 41q0 54 55 54q54 0 54 -54zM166 48q0 -26 -13.5 -41t-40.5 -15t-41 15t-14 41q0 54 55 54q54 0 54 -54z" />
    <glyph glyph-name="semicolon" unicode=";" horiz-adv-x="222" 
d="M165 438q0 -26 -13.5 -41t-40.5 -15t-41 15t-14 41q0 54 55 54q54 0 54 -54zM148 9q0 -42 -8.5 -70t-37.5 -55l-37 -35l-53 51q18 16 29 27t17 22t8.5 24.5t2.5 35.5v93h79v-93z" />
    <glyph glyph-name="less" unicode="&#x3c;" horiz-adv-x="583" 
d="M521 0l-488 205v75l487 204l30 -75l-407 -166l407 -168z" />
    <glyph glyph-name="equal" unicode="=" horiz-adv-x="582" 
d="M38 298v77h506v-77h-506zM38 113v77h506v-77h-506z" />
    <glyph glyph-name="greater" unicode="&#x3e;" horiz-adv-x="583" 
d="M62 0l-29 75l407 168l-407 166l30 75l487 -204v-75z" />
    <glyph glyph-name="question" unicode="?" horiz-adv-x="442" 
d="M420 505q0 -63 -24 -101t-73 -63q-25 -13 -40 -21t-23 -18.5t-10.5 -26t-2.5 -43.5v-42h-86v58q0 51 13 79.5t32.5 44.5t42 25.5t42 21t32.5 30.5t13 56q0 28 -5 48.5t-18 33.5t-35 19t-56 6q-67 0 -91.5 -22.5t-24.5 -74.5h-83q0 50 13.5 83.5t39 53.5t62 28.5t82.5 8.5
q49 0 86 -9.5t62.5 -31t38.5 -56.5t13 -87zM259 46q0 -54 -55 -54q-54 0 -54 54q0 26 13.5 41t40.5 15t41 -15t14 -41z" />
    <glyph glyph-name="at" unicode="@" horiz-adv-x="768" 
d="M696 379q0 -24 -1 -55t-6 -63t-15.5 -60.5t-29.5 -46.5q-30 -29 -66 -36t-85 -6v36q-21 -20 -50 -31t-71 -11q-57 0 -90 16t-50 43.5t-21.5 64.5t-4.5 80t4.5 80.5t21 65.5t49.5 44t90 16q41 0 71 -11.5t50 -31.5v36h59v-338q28 0 46 21q12 14 19.5 36t11 48.5t5 55
t1.5 55.5q0 73 -12 117.5t-40.5 68.5t-76 32t-118.5 8q-87 0 -137 -16.5t-75 -53t-31.5 -94t-6.5 -139.5q0 -86 5 -146t29.5 -98t76 -55t143.5 -17q35 0 68.5 2.5t63 11t53.5 25t40 45.5l53 -30q-21 -40 -54 -63t-71.5 -34.5t-79.5 -14.5t-78 -3q-109 0 -171.5 22.5t-94 69
t-40 118.5t-8.5 172q0 97 11 165.5t44 111.5t94.5 62.5t163.5 19.5q90 0 150 -11.5t96 -44t50.5 -90t14.5 -149.5zM492 310q0 43 -6.5 71t-21.5 44.5t-38.5 23t-57.5 6.5t-53.5 -9.5t-29 -28t-12 -45.5t-2.5 -62t2 -62t12 -45t29.5 -27.5t54.5 -9.5q34 0 57.5 6.5t38 23
t21 44.5t6.5 70z" />
    <glyph glyph-name="A" unicode="A" horiz-adv-x="628" 
d="M519 0l-68 184h-279l-67 -184h-93l258 667h89l257 -667h-97zM312 560l-111 -299h222z" />
    <glyph glyph-name="B" unicode="B" horiz-adv-x="651" 
d="M579 192q0 -74 -22.5 -113.5t-59 -57t-83 -19.5t-93.5 -2h-237v667h231q50 0 96.5 -1t82.5 -16t58 -49.5t22 -101.5q0 -57 -15 -98t-52 -57q45 -20 58.5 -60.5t13.5 -91.5zM486 485q0 41 -11 62t-33.5 30t-56 9.5t-77.5 0.5h-136v-205h143h70.5t54 8.5t34.5 30t12 64.5z
M491 190q0 45 -11 68t-33 32.5t-55.5 10.5t-78.5 1h-141v-222h141h74t56 9.5t35.5 32.5t12.5 68z" />
    <glyph glyph-name="C" unicode="C" horiz-adv-x="647" 
d="M584 179q0 -54 -16 -89.5t-46.5 -57.5t-75.5 -31t-103 -9q-67 0 -113.5 11.5t-76.5 33t-46.5 51.5t-24 68t-9 83t-1.5 95q0 75 4.5 137.5t30 107.5t81 70t156.5 25q58 0 103 -9t75.5 -31t46 -57.5t15.5 -89.5h-86q0 30 -7 50.5t-25.5 32.5t-50 17.5t-80.5 5.5
q-63 0 -98 -14t-52 -44.5t-20.5 -80t-3.5 -121.5t3.5 -121t20.5 -80t52 -44.5t98 -13.5q49 0 80.5 5t50 17t25.5 32.5t7 50.5h86v0z" />
    <glyph glyph-name="D" unicode="D" horiz-adv-x="671" 
d="M599 333q0 -52 -2 -90t-6.5 -66.5t-12.5 -49.5t-20 -40q-17 -25 -38 -42t-49 -27t-64.5 -14t-82.5 -4h-240v667h240q92 0 146 -18.5t87 -68.5q12 -19 20.5 -40.5t13 -50t6.5 -66.5t2 -90zM510 333q0 45 -2 78.5t-6 57.5t-10 41t-15 29q-10 14 -23 23t-32 14.5t-44.5 7.5
t-59.5 2h-146v-505h146q34 0 59.5 2t44.5 7t32 14t23 23q9 12 15 29t10 41t6 57.5t2 78.5z" />
    <glyph glyph-name="E" unicode="E" horiz-adv-x="593" 
d="M84 0v667h438v-80h-349v-205h339v-80h-339v-222h349v-80h-438z" />
    <glyph glyph-name="F" unicode="F" horiz-adv-x="570" 
d="M172 587v-205h331v-80h-331v-302h-88v667h428v-80h-340z" />
    <glyph glyph-name="G" unicode="G" horiz-adv-x="670" 
d="M521 0v60q-38 -42 -90.5 -55t-109.5 -13q-93 0 -143.5 26t-74 72t-27.5 108.5t-4 134.5q0 76 4.5 139t30 108t81 69.5t157.5 24.5q57 0 103 -9t78.5 -30.5t50 -57.5t17.5 -90h-88q0 30 -8.5 50t-28.5 32.5t-52.5 17.5t-80.5 5q-66 0 -102 -15t-52 -47t-18.5 -81
t-2.5 -116q0 -68 3 -117t19 -80.5t51 -46.5t98 -15q66 0 101.5 16t52.5 45.5t20.5 72t3.5 96.5h-186v78h270v-382h-73z" />
    <glyph glyph-name="H" unicode="H" horiz-adv-x="657" 
d="M485 0v302h-312v-302h-89v667h89v-285h312v285h88v-667h-88z" />
    <glyph glyph-name="I" unicode="I" horiz-adv-x="257" 
d="M84 0v667h89v-667h-89z" />
    <glyph glyph-name="J" unicode="J" horiz-adv-x="537" 
d="M459 213q0 -25 -0.5 -46t-3.5 -39q-7 -41 -26.5 -67.5t-47.5 -41.5t-62.5 -21t-71.5 -6q-50 0 -89 9t-67 30.5t-42.5 57.5t-14.5 90h85q0 -33 8 -54t23.5 -32.5t39.5 -15.5t57 -4q45 0 69.5 8t36.5 25t14.5 43t2.5 62v456h89v-454v0z" />
    <glyph glyph-name="K" unicode="K" horiz-adv-x="607" 
d="M470 0l-297 285v-285h-89v667h88v-288l307 288h121l-361 -332l363 -335h-132z" />
    <glyph glyph-name="L" unicode="L" horiz-adv-x="520" 
d="M84 0v667h89v-587h339v-80h-428z" />
    <glyph glyph-name="M" unicode="M" horiz-adv-x="824" 
d="M655 0v533l-201 -533h-85l-201 533v-533h-84v667h115l214 -556l212 556h115v-667h-85z" />
    <glyph glyph-name="N" unicode="N" horiz-adv-x="655" 
d="M477 0l-307 520v-520h-86v667h93l308 -517v517h86v-667h-94z" />
    <glyph glyph-name="O" unicode="O" horiz-adv-x="674" 
d="M602 335q0 -78 -5 -141.5t-30.5 -108t-79 -69t-150.5 -24.5q-99 0 -153 25.5t-79 70.5t-29 108t-4 138t4 137.5t28.5 107.5t78.5 70t153 25t153 -24.5t79 -69.5t29.5 -107.5t4.5 -137.5zM513 334q0 48 -1.5 81.5t-5 57t-9 39.5t-13.5 29q-18 28 -51.5 40t-96.5 12
t-97 -12.5t-51 -40.5q-8 -13 -13.5 -29t-8.5 -39.5t-4.5 -57t-1.5 -81.5t1.5 -81.5t5 -57t9 -39.5t13.5 -29q17 -28 51 -40t97 -12q62 0 95.5 12t51.5 40q8 13 13.5 29t9 40t5 57.5t1.5 81.5z" />
    <glyph glyph-name="P" unicode="P" horiz-adv-x="615" 
d="M573 477q0 -71 -19.5 -110t-54 -57.5t-83 -22.5t-105.5 -4h-138v-283h-89v667h227q57 0 105 -3.5t83 -21.5t54.5 -56.5t19.5 -108.5zM485 475q0 46 -13.5 68t-31.5 31q-24 12 -60 12.5t-71 0.5h-136v-224h136q35 0 71 0.5t60 12.5q18 9 31.5 31t13.5 68z" />
    <glyph glyph-name="Q" unicode="Q" horiz-adv-x="674" 
d="M602 335q0 -62 -2.5 -118t-18.5 -101t-52.5 -76t-103.5 -41l48 -107l-71 -33l-61 133q-98 0 -152.5 23t-80.5 67t-31 107.5t-5 144.5q0 75 4 137.5t28.5 107.5t78.5 70t153 25t153 -24.5t79 -69.5t29.5 -107.5t4.5 -137.5zM513 334q0 48 -1.5 81.5t-5 57t-9 39.5
t-13.5 29q-18 28 -51.5 40t-96.5 12t-97 -12.5t-51 -40.5q-8 -13 -13.5 -29t-8.5 -39.5t-4.5 -57t-1.5 -81.5q0 -45 1 -76.5t4 -54t7.5 -38.5t11.5 -29q15 -30 43 -44.5t80 -16.5l-37 88l71 31l50 -117q38 5 60.5 18.5t35.5 37.5q7 13 12 29t8 39t4.5 55.5t1.5 78.5z" />
    <glyph glyph-name="R" unicode="R" horiz-adv-x="653" 
d="M487 0v168q0 42 -3 65.5t-22 37.5t-55 15.5t-99 1.5h-135v-288h-89v667h227q58 0 106.5 -3.5t83 -21.5t53.5 -56.5t19 -108.5q0 -59 -16.5 -95t-53.5 -51q30 -9 44.5 -28.5t20 -43t5.5 -48.5v-46v-165h-86zM486 476q0 31 -6 50.5t-15 30.5t-20.5 17t-29.5 9t-43.5 3.5
t-62.5 0.5h-136v-218h142h73.5t59.5 11q16 8 27 29.5t11 66.5z" />
    <glyph glyph-name="S" unicode="S" horiz-adv-x="647" 
d="M583 203q0 -110 -62.5 -160.5t-197.5 -50.5q-62 0 -110.5 9t-81.5 30.5t-50 57.5t-17 90h88q0 -30 8 -50.5t28 -33t53.5 -17.5t83.5 -5q52 0 84.5 7t51 22.5t25.5 39t7 56.5q0 36 -9 55.5t-26 28.5t-41.5 11t-55.5 4q-35 1 -70.5 1.5t-68.5 4t-61.5 12.5t-50 29t-34 52
t-12.5 82q0 56 15.5 93.5t47 60.5t80 32.5t114.5 9.5q62 0 109.5 -9t80 -30.5t49 -57.5t16.5 -90h-86q0 37 -11.5 58t-33.5 31.5t-54 13.5t-72 3q-53 0 -85.5 -5.5t-50.5 -19t-24 -35.5t-6 -54q0 -35 10 -53.5t27.5 -27.5t42 -11t53.5 -3q34 -2 69.5 -2t68.5 -3.5t62 -12.5
t50.5 -28.5t34 -52t12.5 -82.5z" />
    <glyph glyph-name="T" unicode="T" horiz-adv-x="541" 
d="M315 588v-588h-89v588h-208v79h505v-79h-208z" />
    <glyph glyph-name="U" unicode="U" horiz-adv-x="652" 
d="M574 335v-87.5t-2 -58.5q-3 -47 -16 -81q-24 -61 -83 -88.5t-147 -27.5t-147 27.5t-83 88.5q-13 34 -16 81q-2 24 -2 58.5v87.5v332h89v-332q0 -73 1 -122.5t15 -79.5q14 -29 47.5 -44.5t95.5 -15.5q63 0 96.5 15t47.5 44t15 79t1 124v332h88v-332v0z" />
    <glyph glyph-name="V" unicode="V" horiz-adv-x="593" 
d="M338 0h-86l-248 667h94l199 -548l199 548h93z" />
    <glyph glyph-name="W" unicode="W" horiz-adv-x="884" 
d="M685 0h-94l-149 545l-148 -545h-98l-160 667h90l125 -534l145 534h94l144 -534l127 534h87z" />
    <glyph glyph-name="X" unicode="X" horiz-adv-x="590" 
d="M465 0l-171 273l-170 -273h-100l219 340l-213 327h101l165 -262l164 262h101l-214 -327l219 -340h-101z" />
    <glyph glyph-name="Y" unicode="Y" horiz-adv-x="568" 
d="M329 291v-291h-89v291l-238 376h102l182 -295l180 295h100z" />
    <glyph glyph-name="Z" unicode="Z" horiz-adv-x="610" 
d="M61 0v78l382 510h-382v79h488v-78l-383 -509h383v-80h-488z" />
    <glyph glyph-name="bracketleft" unicode="[" horiz-adv-x="311" 
d="M51 -191v997h231v-75h-148v-846h148v-76h-231z" />
    <glyph glyph-name="backslash" unicode="\" horiz-adv-x="492" 
d="M421 -98l-433 868h83l433 -868h-83z" />
    <glyph glyph-name="bracketright" unicode="]" horiz-adv-x="311" 
d="M29 -191v76h148v846h-148v75h231v-997h-231z" />
    <glyph glyph-name="asciicircum" unicode="^" horiz-adv-x="583" 
d="M470 185l-181 388l-177 -388l-76 31l219 460h71l221 -461z" />
    <glyph glyph-name="underscore" unicode="_" horiz-adv-x="523" 
d="M0 -194v79h523v-79h-523z" />
    <glyph glyph-name="grave" unicode="`" horiz-adv-x="427" 
d="M232 541l-133 126h96l133 -126h-96z" />
    <glyph glyph-name="a" unicode="a" horiz-adv-x="539" 
d="M396 0v47q-22 -26 -63 -40.5t-98 -14.5q-90 0 -139 34t-49 117q0 51 16.5 81.5t44 46.5t64 21t75.5 5h143q0 31 -1.5 53.5t-13 37.5t-36.5 22t-71 7q-21 0 -43 -1.5t-40.5 -8.5t-30 -21.5t-11.5 -40.5h-82q0 45 16.5 73.5t45.5 45t68 22.5t84 6q76 0 117 -19t59 -48.5
t20.5 -63.5t2.5 -64v-297h-78zM243 225q-28 0 -49 -3t-34.5 -11.5t-20 -24.5t-6.5 -42q0 -41 23 -60t87 -19q51 0 80.5 10t44.5 30t19 50t4 70h-148z" />
    <glyph glyph-name="b" unicode="b" horiz-adv-x="557" 
d="M502 241q0 -47 -5 -92t-25 -80t-60.5 -56t-112.5 -21q-53 0 -90.5 14.5t-60.5 40.5v-47h-78v697h85v-258q26 30 65.5 41.5t87.5 11.5q65 0 103.5 -18.5t58.5 -52t26 -79.5t6 -101zM416 242q0 45 -4 77t-17 52.5t-36 30.5t-61 10q-41 0 -69 -7.5t-44.5 -26.5t-23.5 -52
t-7 -84t7 -84.5t23.5 -53t44.5 -27t69 -7.5q38 0 61 10t36 31t17 53.5t4 77.5z" />
    <glyph glyph-name="c" unicode="c" horiz-adv-x="523" 
d="M473 141q0 -47 -18 -76t-46.5 -45.5t-64.5 -22t-72 -5.5q-74 0 -117 19t-65 52.5t-28.5 79.5t-6.5 100t6.5 99.5t28.5 79t65 52t117 18.5q36 0 72 -5.5t64.5 -22t46.5 -45.5t18 -76h-81q0 25 -11 39.5t-28 21.5t-38 9t-41 2q-46 0 -72.5 -10t-40 -31t-17 -53.5
t-3.5 -77.5t3.5 -77.5t17 -54t40 -32t72.5 -10.5q20 0 41 2t38 9t28 21.5t11 39.5h81v0z" />
    <glyph glyph-name="d" unicode="d" horiz-adv-x="557" 
d="M408 0v49q-23 -26 -62 -41.5t-92 -15.5q-71 0 -110.5 20.5t-59.5 55t-24.5 79.5t-4.5 95q0 52 6 98t26 79.5t58.5 53t103.5 19.5q48 0 87.5 -11.5t65.5 -41.5v258h85v-697h-79zM403 241q0 51 -7 84.5t-23.5 52.5t-44.5 26.5t-69 7.5q-38 0 -61 -10t-36 -31t-17 -53
t-4 -77t4 -77t17 -53t36 -31t61 -10q41 0 69 7.5t44.5 26.5t23.5 52.5t7 84.5z" />
    <glyph glyph-name="e" unicode="e" horiz-adv-x="538" 
d="M141 213q0 -38 4.5 -66t19 -46t40.5 -26.5t70 -8.5q20 0 41.5 2t39.5 10t29.5 22.5t11.5 40.5h80q0 -46 -18.5 -75t-47.5 -45.5t-65.5 -22.5t-72.5 -6q-71 0 -114 17.5t-66 49.5t-30.5 77.5t-7.5 101.5q0 57 7.5 104t30 80t65 51.5t112.5 18.5q76 0 119 -20.5t64 -57
t25.5 -88t4.5 -113.5h-342zM399 286q0 35 -4.5 60t-18.5 41.5t-39.5 24t-66.5 7.5q-39 0 -64 -8.5t-39.5 -25.5t-19.5 -42t-5 -57h257z" />
    <glyph glyph-name="f" unicode="f" horiz-adv-x="443" 
d="M359 590q0 12 -7 20.5t-18.5 13.5t-25.5 7.5t-29 2.5q-29 0 -47.5 -5.5t-29 -17.5t-14.5 -29.5t-4 -41.5v-56h183v-73h-182v-411h-85v411h-78v73h78v66q0 83 48.5 118.5t129.5 35.5q34 0 64 -6t52.5 -19.5t35 -35.5t12.5 -53h-83z" />
    <glyph glyph-name="g" unicode="g" horiz-adv-x="556" 
d="M486 49q0 -35 -0.5 -62t-3.5 -47q-6 -41 -28 -67t-52 -41t-66 -20.5t-70 -5.5q-38 0 -74 6.5t-64 23t-45 44.5t-17 70h84q0 -34 29.5 -51.5t83.5 -17.5q25 0 48 3.5t41.5 12.5t30.5 24t15 38t2.5 47t0.5 47q-25 -28 -64 -40.5t-85 -12.5q-69 0 -108 20t-59 54t-25 78.5
t-5 93.5q0 54 6.5 99t27 77.5t59 51t103.5 18.5q48 0 89 -12.5t67 -41.5v46h79v-435zM402 245q0 50 -7 83t-23.5 52t-44.5 26.5t-69 7.5q-38 0 -61 -9.5t-35.5 -30t-16.5 -52.5t-4 -77t4 -76.5t17 -51.5t35.5 -29t60.5 -9q41 0 68.5 7t44.5 25.5t24 50.5t7 83z" />
    <glyph glyph-name="h" unicode="h" horiz-adv-x="543" 
d="M393 0v255q0 39 -0.5 68.5t-9.5 49.5t-31 30t-65 10q-51 0 -78 -16t-39 -42t-13.5 -60.5t-1.5 -71.5v-223h-85v697h85v-256q23 23 56 37t84 14q74 0 112 -20.5t53.5 -53.5t16.5 -73.5t1 -79.5v-265h-85z" />
    <glyph glyph-name="i" unicode="i" horiz-adv-x="225" 
d="M162 624q0 -15 -5.5 -25t-13 -15.5t-16 -7.5t-15.5 -2t-15.5 2t-16 7.5t-13 15.5t-5.5 25t5.5 25t13 15.5t16 7.5t15.5 2t16 -2t16.5 -7.5t12.5 -15.5t5 -25zM70 0v484h85v-484h-85z" />
    <glyph glyph-name="j" unicode="j" horiz-adv-x="225" 
d="M163 624q0 -15 -5.5 -25t-13 -15.5t-16 -7.5t-15.5 -2t-15.5 2t-16 7.5t-13 15.5t-5.5 25t5.5 25t13 15.5t16 7.5t15.5 2t15.5 -2t16 -7.5t13 -15.5t5.5 -25zM155 -37q0 -42 -13 -72t-36.5 -49t-56.5 -27.5t-73 -8.5q-37 0 -68 7t-53 23t-35 41.5t-14 62.5h83
q0 -28 21 -45t66 -17q34 0 53 8t28 21.5t11 31t2 35.5v510h85v-521z" />
    <glyph glyph-name="k" unicode="k" horiz-adv-x="497" 
d="M380 0l-225 230v-230h-85v697h85v-404l224 191h117l-262 -222l262 -262h-116z" />
    <glyph glyph-name="l" unicode="l" horiz-adv-x="225" 
d="M70 0v697h85v-697h-85z" />
    <glyph glyph-name="m" unicode="m" horiz-adv-x="805" 
d="M655 0v293q0 28 -1.5 50.5t-10 38t-27 24t-53.5 8.5q-46 0 -70 -18t-34 -46.5t-10.5 -62.5t-0.5 -67v-220h-85v293q0 28 -1.5 50.5t-10 38t-27 24t-53.5 8.5q-46 0 -70 -18.5t-34 -47t-11 -63t-1 -67.5v-218h-85v484h79v-46q20 22 53 38t84 16q48 0 82 -16t53 -48
q27 32 62.5 48t88.5 16q56 0 96.5 -19t58.5 -61q12 -28 12.5 -58t0.5 -63v-291h-85z" />
    <glyph glyph-name="n" unicode="n" horiz-adv-x="543" 
d="M393 0v255q0 39 -0.5 68.5t-9.5 49.5t-31 30t-65 10q-51 0 -78 -16t-39 -42t-13.5 -60.5t-1.5 -71.5v-223h-85v484h77v-47q23 25 58.5 40t89.5 15q74 0 112 -20.5t53.5 -53.5t16.5 -73.5t1 -79.5v-265h-85z" />
    <glyph glyph-name="o" unicode="o" horiz-adv-x="555" 
d="M500 242q0 -74 -10 -120.5t-39 -75.5t-71.5 -41.5t-101.5 -12.5q-60 0 -102.5 12.5t-71.5 41.5t-39 75.5t-10 120.5t10 120.5t39 75.5t71.5 41.5t102.5 12.5q59 0 101.5 -12.5t71.5 -41.5t39 -75.5t10 -120.5zM414 242q0 45 -3.5 77.5t-17 54t-40.5 31.5t-75 10
t-75.5 -10.5t-41 -32t-17 -54t-3.5 -76.5t3.5 -76.5t17 -54t41 -32t75.5 -10.5t75.5 10.5t41 32t16.5 54t3 76.5z" />
    <glyph glyph-name="p" unicode="p" horiz-adv-x="557" 
d="M502 241q0 -47 -5.5 -91.5t-25.5 -79.5t-61 -56.5t-111 -21.5q-48 0 -83 12.5t-61 41.5v-237h-85v675h79v-48q27 29 67.5 42.5t88.5 13.5q67 0 106 -18.5t59 -51.5t26 -79t6 -102zM417 242q0 45 -4 77t-17 52.5t-36 30.5t-61 10q-41 0 -69 -7.5t-44.5 -26.5t-23.5 -52
t-7 -84t7 -84.5t23.5 -53t44.5 -27t69 -7.5q38 0 61 10t36 31t17 53.5t4 77.5z" />
    <glyph glyph-name="q" unicode="q" horiz-adv-x="556" 
d="M401 -191v237q-26 -29 -64.5 -41.5t-86.5 -12.5q-69 0 -108 20.5t-58.5 55t-24 80t-4.5 94.5q0 52 5.5 98t25.5 79.5t59 53t105 19.5q48 0 88 -12.5t69 -43.5v48h79v-675h-85zM401 241q0 51 -7 84.5t-23.5 52.5t-44 26.5t-68.5 7.5q-38 0 -60.5 -10t-35.5 -31t-17 -53
t-4 -77t4 -77t17 -53t35.5 -31t60.5 -10q41 0 68.5 7.5t44 26.5t23.5 52.5t7 84.5z" />
    <glyph glyph-name="r" unicode="r" horiz-adv-x="450" 
d="M358 345q0 41 -19 55.5t-68 14.5q-47 0 -70.5 -20t-34 -50.5t-11 -66.5t-0.5 -68v-210h-85v484h80v-47q46 55 137 55q75 0 114 -35.5t39 -111.5h-82z" />
    <glyph glyph-name="s" unicode="s" horiz-adv-x="513" 
d="M384 343q0 42 -24 58.5t-86 17.5q-39 1 -64 -3t-39.5 -12.5t-20.5 -21t-6 -28.5q0 -28 7.5 -42t21 -20t32.5 -6.5t42 -1.5q41 -2 79.5 -3.5t68.5 -14t48 -41.5t18 -86q0 -43 -15 -71.5t-42.5 -45.5t-67.5 -23.5t-89 -6.5q-48 0 -84.5 7.5t-61.5 24.5t-38 45.5t-13 71.5
h79q0 -20 5.5 -34.5t18.5 -23.5t35.5 -13.5t57.5 -4.5q34 0 58.5 2.5t40.5 11t23.5 24t7.5 42.5q0 22 -6.5 34t-20.5 17.5t-35 7t-49 2.5q-40 1 -77 3.5t-66 15.5t-46 41t-17 82q0 43 15 71t43 44.5t67.5 22.5t88.5 6q44 0 79.5 -7.5t60 -24.5t37.5 -45.5t13 -71.5h-79z" />
    <glyph glyph-name="t" unicode="t" horiz-adv-x="467" 
d="M447 141q0 -42 -13 -70.5t-36 -46t-54 -25t-68 -7.5q-82 0 -124.5 36t-42.5 115v268h-80v73h80v183h85v-183h214v-73h-214v-268q0 -43 19.5 -60.5t66.5 -17.5t67.5 18t20.5 58h79v0z" />
    <glyph glyph-name="u" unicode="u" horiz-adv-x="543" 
d="M394 0v48q-23 -25 -58.5 -40.5t-89.5 -15.5q-71 0 -108 20.5t-53.5 53t-18 73t-1.5 81.5v264h86v-255v-68.5t9 -49.5t31 -30t66 -10q51 0 78 16t38.5 42t13 60.5t1.5 71.5v223h85v-484h-79z" />
    <glyph glyph-name="v" unicode="v" horiz-adv-x="490" 
d="M288 0h-85l-190 484h91l143 -380l141 380h89z" />
    <glyph glyph-name="w" unicode="w" horiz-adv-x="713" 
d="M555 0h-89l-108 378l-108 -378h-91l-139 484h89l100 -377l105 377h87l106 -377l100 377h86z" />
    <glyph glyph-name="x" unicode="x" horiz-adv-x="495" 
d="M378 0l-131 188l-134 -188h-98l182 247l-175 237h102l124 -178l128 178h99l-177 -236l182 -248h-102z" />
    <glyph glyph-name="y" unicode="y" horiz-adv-x="472" 
d="M205 -191h-87l76 197l-180 478h89l135 -379l133 379h89z" />
    <glyph glyph-name="z" unicode="z" horiz-adv-x="487" 
d="M46 0v72l286 339h-286v73h394v-72l-285 -336h285v-76h-394z" />
    <glyph glyph-name="braceleft" unicode="{" horiz-adv-x="381" 
d="M349 -191q-55 0 -92.5 11.5t-60.5 36t-33 63.5t-10 94v162q0 22 -13 38t-29 31t-29 32t-13 41t13 40.5t29 31.5t29 30.5t13 37.5v164q0 55 10 94t33 63.5t60.5 35.5t92.5 11v-75q-37 0 -59 -6.5t-34 -21t-16 -39t-4 -60.5v-178q0 -22 -6.5 -38.5t-16.5 -29t-22.5 -23.5
t-23.5 -22q-16 -16 -1 -31q14 -14 27 -25.5t22.5 -23.5t15 -27t5.5 -37v-177q0 -36 4 -60t16 -39t34.5 -21.5t58.5 -6.5v-76v0z" />
    <glyph glyph-name="bar" unicode="|" horiz-adv-x="285" 
d="M101 -191v858h83v-858h-83z" />
    <glyph glyph-name="braceright" unicode="}" horiz-adv-x="381" 
d="M312 318q0 -24 -13 -41t-29 -32t-29 -31t-13 -38v-162q0 -55 -10 -94t-33 -63.5t-60.5 -36t-92.5 -11.5v76q36 0 58.5 6.5t34.5 21.5t16 39t4 60v177q0 22 5.5 37t15 27t22.5 23.5t27 25.5q15 15 -1 31q-11 11 -23.5 22t-22.5 23.5t-16.5 29t-6.5 38.5v178q0 36 -4 60.5
t-16 39t-34 21t-59 6.5v75q55 0 92.5 -11t60.5 -35.5t33 -63.5t10 -94v-164q0 -22 13 -37.5t29 -30.5t29 -31.5t13 -40.5z" />
    <glyph glyph-name="asciitilde" unicode="~" horiz-adv-x="582" 
d="M549 256q-5 -5 -17 -13.5t-24.5 -18.5t-24.5 -18.5t-17 -11.5q-37 -24 -79.5 -27.5t-84.5 22.5q-22 14 -40.5 25t-36 16.5t-34.5 4t-36 -13.5q-3 -2 -13 -9t-21.5 -15.5t-22.5 -16.5t-17 -12l-48 58q5 5 16.5 14t24.5 18.5t24.5 18t17.5 11.5q37 23 79.5 27t84.5 -22
q22 -14 40.5 -25t35.5 -16.5t34 -4t36 13.5q3 2 13 9t21.5 15t22.5 16t17 13l49 -58v0z" />
    <glyph glyph-name="uni00A0" unicode="&#xa0;" horiz-adv-x="237" 
 />
    <glyph glyph-name="exclamdown" unicode="&#xa1;" horiz-adv-x="289" 
d="M199 438q0 -26 -13.5 -41t-40.5 -15t-41 15t-14 41q0 54 55 54q54 0 54 -54zM103 -183v477h83v-477h-83z" />
    <glyph glyph-name="cent" unicode="&#xa2;" horiz-adv-x="537" 
d="M487 141q0 -41 -14.5 -68.5t-38.5 -44t-54.5 -24.5t-63.5 -10v-89h-76v89q-60 4 -96.5 23.5t-56 51.5t-26 76.5t-6.5 98.5t6.5 97.5t26.5 75.5t56 50.5t96 23.5v84h76v-84q33 -2 63.5 -10t54.5 -25t38.5 -44.5t14.5 -68.5h-81q0 20 -7.5 33.5t-20 21.5t-29 11.5
t-33.5 4.5v-344q17 1 33.5 4.5t29 11.5t20 21.5t7.5 33.5h81zM240 414q-34 -3 -53.5 -15.5t-30 -34t-13.5 -52t-3 -69.5t3 -69.5t13 -52.5t30 -34.5t54 -16.5v344z" />
    <glyph glyph-name="sterling" unicode="&#xa3;" horiz-adv-x="578" 
d="M53 0v78h61v221h-61v77h61v82v44t3.5 43.5t12 41.5t26.5 37q27 26 70 38t97 12q32 0 68 -3.5t67 -19t51 -47.5t20 -89h-82q0 27 -8 43t-23 24.5t-36 11t-47 2.5q-47 0 -73.5 -7.5t-39.5 -23.5t-16.5 -42t-3.5 -63v-84h285v-77h-285v-221h338v-78h-485z" />
    <glyph glyph-name="currency" unicode="&#xa4;" horiz-adv-x="574" 
d="M287 572q36 0 67.5 -10.5t65.5 -34.5l88 91l54 -54l-89 -90q22 -31 33 -63t11 -69q0 -36 -10 -68t-33 -66l89 -86l-56 -54l-87 87q-59 -43 -131 -43q-37 0 -69 10t-66 33l-87 -87l-54 54l87 86q-21 30 -32.5 64t-11.5 71t10.5 68t33.5 64l-91 89l57 54l89 -88
q35 24 67 33t65 9zM288 495q-32 0 -60 -11.5t-48.5 -32t-32.5 -48t-12 -59.5t12 -60t32.5 -48.5t48 -32.5t59.5 -12q31 0 58.5 12t48 32.5t32.5 48t12 59.5q0 31 -12 59t-32.5 48.5t-47.5 32.5t-58 12z" />
    <glyph glyph-name="yen" unicode="&#xa5;" horiz-adv-x="581" 
d="M417 425h76v-72h-120l-35 -56h155v-72h-159v-225h-87v225h-159v72h155l-35 56h-121v72h77l-148 242h99l176 -294l175 294h99z" />
    <glyph glyph-name="brokenbar" unicode="&#xa6;" horiz-adv-x="285" 
d="M101 344v323h83v-323h-83zM101 -191v323h83v-323h-83z" />
    <glyph glyph-name="section" unicode="&#xa7;" horiz-adv-x="575" 
d="M495 49q0 -50 -16.5 -80.5t-44 -47.5t-64 -23t-76.5 -6q-51 0 -90.5 7t-67 25t-41.5 49t-14 78h85q0 -23 5.5 -38.5t20 -25t39.5 -13.5t63 -4q27 0 48 3t35.5 12t22.5 25.5t8 43.5q0 30 -9.5 45.5t-26 22.5t-39 7.5t-49.5 0.5q-48 0 -87 5t-71 31q-22 18 -33.5 46
t-11.5 70q0 45 16 73.5t44 40.5q-29 14 -45 43.5t-16 77.5q0 49 16.5 80t44 48t64 23t76.5 6q51 0 90.5 -7t66.5 -25t41.5 -49t14.5 -78h-85q0 22 -5.5 38t-20 25.5t-39.5 13.5t-63 4q-27 0 -48 -3t-35.5 -12t-22.5 -25.5t-8 -43.5q0 -30 9 -45.5t25.5 -22.5t39.5 -7.5
t50 -0.5q48 0 87 -5t71 -31q22 -18 33.5 -46t11.5 -70q0 -45 -16 -73.5t-44 -40.5q29 -14 45 -43.5t16 -77.5zM407 285q0 27 -9 42.5t-25 22.5t-38 8.5t-49 1.5q-25 0 -46.5 -1.5t-37.5 -9.5t-25.5 -24t-9.5 -45q0 -27 9 -42.5t25.5 -22.5t38.5 -8.5t49 -1.5q25 0 46.5 1.5
t37.5 9.5t25 24t9 45z" />
    <glyph glyph-name="dieresis" unicode="&#xa8;" horiz-adv-x="427" 
d="M370 619q0 -49 -50 -49q-48 0 -48 49q0 26 11.5 37t36.5 11t37.5 -11t12.5 -37zM155 619q0 -49 -50 -49q-48 0 -48 49q0 26 11.5 37t36.5 11t37.5 -11t12.5 -37z" />
    <glyph glyph-name="copyright" unicode="&#xa9;" horiz-adv-x="815" 
d="M743 334q0 -98 -15.5 -163.5t-54 -105.5t-103 -56.5t-163.5 -16.5q-100 0 -164.5 17t-102.5 56.5t-53 105.5t-15 165q0 100 15 165t53 103.5t102.5 54t164.5 15.5q99 0 164 -15.5t103.5 -54.5t53.5 -104.5t15 -165.5zM679 337q0 84 -11 137.5t-41 84.5t-83 43t-137 12
q-86 0 -139.5 -12.5t-82.5 -44t-39 -86t-10 -138.5q0 -82 10.5 -136t40.5 -86t83 -45t137 -13q85 0 138 13.5t83 46t40.5 87t10.5 137.5zM601 254q0 -46 -14.5 -75.5t-40 -46t-60.5 -22.5t-77 -6q-64 0 -104.5 13.5t-63 41.5t-30.5 71.5t-8 103.5q0 59 8.5 102.5t31 72
t63 42t103.5 13.5q42 0 77 -6t60.5 -22.5t40 -46t14.5 -75.5h-64q0 31 -10 49t-27 27t-40.5 11.5t-50.5 2.5q-49 0 -77 -10.5t-42 -31.5t-17.5 -53t-3.5 -75q0 -44 3.5 -76t17.5 -53t42 -31t77 -10q27 0 50.5 2.5t41 11.5t27 27t9.5 49h64z" />
    <glyph glyph-name="ordfeminine" unicode="&#xaa;" horiz-adv-x="382" 
d="M291 336v37q-19 -17 -44 -29.5t-72 -12.5q-68 0 -104 23t-36 80q0 36 12 57.5t32.5 33t46.5 15t54 3.5h103v1q0 22 -3.5 37t-13.5 23t-27.5 11.5t-44.5 3.5q-17 0 -32.5 -1.5t-28 -6.5t-20 -13.5t-7.5 -23.5h-61q0 32 15 52t38 30.5t50.5 14t51.5 3.5q55 0 85 -13.5
t43 -35t15 -47.5t2 -51v-191h-54zM177 488q-38 0 -59.5 -9t-21.5 -44q0 -26 15 -38t62 -12q39 0 62.5 10t34.5 30q6 11 9 23t3 40h-105z" />
    <glyph glyph-name="guillemotleft" unicode="&#xab;" horiz-adv-x="478" 
d="M398 355q-26 -26 -48.5 -54.5t-22.5 -60.5q0 -17 7 -33t18.5 -31t26 -29.5l28.5 -28.5l31 -31l-55 -52q-21 20 -45.5 43t-44.5 48.5t-33.5 53.5t-13.5 59q0 30 13.5 59.5t34.5 56.5t45 51t45 44l55 -53zM195 355q-26 -26 -48.5 -54.5t-22.5 -60.5q0 -17 7 -33t18.5 -31
t26 -29.5l28.5 -28.5l31 -31l-55 -52q-21 20 -45.5 43t-44.5 48.5t-33.5 53.5t-13.5 59q0 30 13.5 59.5t34.5 56.5t45 51t45 44l55 -53z" />
    <glyph glyph-name="logicalnot" unicode="&#xac;" horiz-adv-x="582" 
d="M463 0v297h-425v78h506v-375h-81z" />
    <glyph glyph-name="registered" unicode="&#xae;" horiz-adv-x="525" 
d="M489 448q0 -65 -10.5 -109t-36 -70t-69.5 -37t-110 -11q-68 0 -111.5 11t-69.5 37t-36 70t-10 110q0 68 10 111.5t35.5 69t69.5 35t112 9.5q67 0 111 -10t69.5 -35.5t35.5 -69.5t10 -111zM441 450q0 55 -7 89.5t-26.5 54t-54.5 27t-90 7.5q-57 0 -92 -7.5t-54.5 -27.5
t-26 -55t-6.5 -91q0 -54 7 -89t26.5 -55.5t54.5 -28t91 -7.5t90.5 8t54 29t26.5 56.5t7 89.5zM320 314v80q0 28 -11 33t-35 5h-59v-118h-48v274h96q21 0 39.5 -1.5t32.5 -8.5t22.5 -22t8.5 -42q0 -24 -7 -37t-21 -22q14 -8 21 -21t7 -43v-77h-46zM319 510q0 15 -3 23t-10 11
t-18.5 3h-28.5h-45v-73h48h24t18 3t11 10.5t4 22.5z" />
    <glyph glyph-name="macron" unicode="&#xaf;" horiz-adv-x="428" 
d="M42 587v65h344v-65h-344z" />
    <glyph glyph-name="degree" unicode="&#xb0;" horiz-adv-x="537" 
d="M418 517q0 -81 -35.5 -117.5t-113.5 -36.5t-114 36.5t-36 117.5t35.5 115.5t113.5 34.5t114 -34.5t36 -115.5zM354 515q0 50 -17.5 70t-68.5 20t-67.5 -20.5t-16.5 -69.5q0 -25 3.5 -42t13 -27.5t25.5 -15.5t42 -5q51 0 68.5 20t17.5 70z" />
    <glyph glyph-name="plusminus" unicode="&#xb1;" horiz-adv-x="582" 
d="M329 307v-178h-77v178h-215v77h215v177h77v-177h216v-77h-216zM32 0v77h518v-77h-518z" />
    <glyph glyph-name="uni00B2" unicode="&#xb2;" 
d="M346 554q0 -31 -6.5 -49.5t-18.5 -30t-28.5 -18.5t-36.5 -14q-17 -6 -34.5 -12t-33 -12t-27.5 -13.5t-18 -17.5q-3 -5 -5 -12t-2 -21v-31h209v-56h-272v97q0 36 14 57t35.5 34t49 20t54.5 15q32 10 44.5 22t12.5 42q0 37 -15.5 50t-58.5 13q-38 0 -56.5 -8.5t-18.5 -39.5
h-62q0 31 10.5 51t28.5 32t43 16.5t54 4.5q65 0 101.5 -26t36.5 -93z" />
    <glyph glyph-name="uni00B3" unicode="&#xb3;" 
d="M349 381q0 -35 -10 -58.5t-28.5 -37t-45 -19t-58.5 -5.5q-30 0 -55.5 5t-43.5 17t-28.5 32.5t-10.5 52.5h62q1 -29 17.5 -40t58.5 -11q23 0 38.5 2t24.5 8.5t13 19t4 33.5q0 23 -3.5 36.5t-12.5 21t-24 9.5t-38 2h-59v55h59q19 0 33 1.5t23 7t13.5 16.5t4.5 29
q0 15 -2.5 26.5t-10 18.5t-22.5 10.5t-39 3.5q-43 0 -59.5 -11t-16.5 -40h-61q0 31 10 52t28.5 33t43.5 17t55 5q69 0 102.5 -25.5t33.5 -87.5q0 -30 -6 -50t-27 -34q20 -12 28.5 -33.5t8.5 -61.5z" />
    <glyph glyph-name="acute" unicode="&#xb4;" horiz-adv-x="427" 
d="M195 541h-96l133 126h96z" />
    <glyph glyph-name="mu" unicode="&#xb5;" horiz-adv-x="548" 
d="M399 0v47q-23 -25 -57.5 -40t-85.5 -15q-29 0 -57 7t-45 21v-211h-84v675h85v-255q0 -41 1 -71t10.5 -49.5t31.5 -28.5t64 -9q51 0 78 16t38.5 42t13 60.5t1.5 71.5v223h85v-484h-79z" />
    <glyph glyph-name="paragraph" unicode="&#xb6;" horiz-adv-x="590" 
d="M414 0v590h-58v-590h-78v291h-45q-42 0 -78 7.5t-62 28t-41 57t-15 94.5q0 73 22.5 111.5t61 55.5t88.5 19.5t105 2.5h178v-667h-78zM278 590q-35 0 -63.5 -0.5t-49 -10t-32 -32t-11.5 -66.5q0 -46 10 -69.5t29.5 -33t49 -9.5h67.5v221z" />
    <glyph glyph-name="periodcentered" unicode="&#xb7;" horiz-adv-x="221" 
d="M165 337q0 -26 -13.5 -41t-40.5 -15t-41 15t-14 41q0 54 55 54q54 0 54 -54z" />
    <glyph glyph-name="cedilla" unicode="&#xb8;" horiz-adv-x="428" 
d="M292 -110q0 -38 -19 -58.5t-65 -20.5q-43 0 -63.5 16t-20.5 54h47q0 -17 8.5 -22.5t28.5 -5.5q23 0 28.5 9t5.5 26q0 18 -10 25t-25 8q-6 1 -13.5 1h-16.5v78h50v-41q33 -1 49 -19.5t16 -49.5z" />
    <glyph glyph-name="uni00B9" unicode="&#xb9;" 
d="M89 267v55h89v258l-63 -55l-38 42l113 100h51v-345h91v-55h-243z" />
    <glyph glyph-name="ordmasculine" unicode="&#xba;" horiz-adv-x="384" 
d="M351 503q0 -52 -7.5 -82.5t-28.5 -50.5t-51 -29t-72 -9t-72.5 9t-51.5 29q-21 21 -28 51.5t-7 81.5t7 82t28 52q21 20 51.5 28.5t72.5 8.5t72 -8.5t51 -28.5t28.5 -51t7.5 -83zM289 503q0 31 -2.5 53t-12.5 35.5t-29.5 20t-52.5 6.5q-35 0 -54.5 -6.5t-29 -20.5
t-11.5 -36t-2 -52t2 -52t11.5 -35.5t29 -20t54.5 -6.5q34 0 53.5 6.5t29.5 20.5t12 35.5t2 51.5z" />
    <glyph glyph-name="guillemotright" unicode="&#xbb;" horiz-adv-x="478" 
d="M435 239q0 -31 -13.5 -59t-33.5 -53.5t-44.5 -48.5t-45.5 -43l-55 52l31 31l28.5 28.5t26 29.5t18.5 31t7 33q0 32 -22.5 60.5t-48.5 54.5l-41 42l55 53q21 -20 45 -44t45 -51t34.5 -56.5t13.5 -59.5zM232 239q0 -31 -13.5 -59t-33.5 -53.5t-44.5 -48.5t-45.5 -43l-55 52
l31 31l28.5 28.5t26 29.5t18.5 31t7 33q0 32 -22.5 60.5t-48.5 54.5l-41 42l55 53q21 -20 45 -44t45 -51t34.5 -56.5t13.5 -59.5z" />
    <glyph glyph-name="onequarter" unicode="&#xbc;" horiz-adv-x="878" 
d="M759 98v-98h-61v98h-181v47l184 255h58v-249h58v-53h-58zM698 306l-110 -155h110v155zM89 267v55h89v258l-63 -55l-38 42l113 100h51v-345h91v-55h-243zM304 0h-68l336 667h70z" />
    <glyph glyph-name="onehalf" unicode="&#xbd;" horiz-adv-x="878" 
d="M814 287q0 -31 -6.5 -49.5t-18.5 -30t-28.5 -18.5t-36.5 -14q-17 -6 -34.5 -12t-33 -12t-27.5 -13.5t-18 -17.5q-3 -5 -5 -12t-2 -21v-31h209v-56h-272v97q0 36 14 57t35.5 34t49 20t54.5 15q32 10 44.5 22t12.5 42q0 37 -15.5 50t-58.5 13q-38 0 -56.5 -8.5t-18.5 -39.5
h-62q0 31 10.5 51t28.5 32t43 16.5t54 4.5q65 0 101.5 -26t36.5 -93zM89 267v55h89v258l-63 -55l-38 42l113 100h51v-345h91v-55h-243zM304 0h-68l336 667h70z" />
    <glyph glyph-name="threequarters" unicode="&#xbe;" horiz-adv-x="878" 
d="M349 381q0 -35 -10 -58.5t-28.5 -37t-45 -19t-58.5 -5.5q-30 0 -55.5 5t-43.5 17t-28.5 32.5t-10.5 52.5h62q1 -29 17.5 -40t58.5 -11q23 0 38.5 2t24.5 8.5t13 19t4 33.5q0 23 -3.5 36.5t-12.5 21t-24 9.5t-38 2h-59v55h59q19 0 33 1.5t23 7t13.5 16.5t4.5 29
q0 15 -2.5 26.5t-10 18.5t-22.5 10.5t-39 3.5q-43 0 -59.5 -11t-16.5 -40h-61q0 31 10 52t28.5 33t43.5 17t55 5q69 0 102.5 -25.5t33.5 -87.5q0 -30 -6 -50t-27 -34q20 -12 28.5 -33.5t8.5 -61.5zM759 98v-98h-61v98h-181v47l184 255h58v-249h58v-53h-58zM698 306
l-110 -155h110v155zM304 0h-68l336 667h70z" />
    <glyph glyph-name="questiondown" unicode="&#xbf;" horiz-adv-x="442" 
d="M295 438q0 -26 -13.5 -41t-40.5 -15t-41 15t-14 41q0 54 55 54q54 0 54 -54zM422 -31q0 -50 -13.5 -83.5t-39 -53.5t-62 -28.5t-82.5 -8.5q-49 0 -86 9.5t-62.5 31t-38.5 56.5t-13 87q0 63 24 101t73 63q25 13 40 21t23 18.5t10.5 26t2.5 43.5v42h86v-58q0 -51 -13 -79.5
t-32.5 -44.5t-42 -25.5t-42 -21t-32.5 -30.5t-13 -56q0 -28 5 -48.5t18 -33.5t35 -19t56 -6q67 0 91.5 22.5t24.5 74.5h83z" />
    <glyph glyph-name="Agrave" unicode="&#xc0;" horiz-adv-x="628" 
d="M519 0l-68 184h-279l-67 -184h-93l258 667h89l257 -667h-97zM312 560l-111 -299h222zM322 736l-133 126h96l133 -126h-96z" />
    <glyph glyph-name="Aacute" unicode="&#xc1;" horiz-adv-x="628" 
d="M519 0l-68 184h-279l-67 -184h-93l258 667h89l257 -667h-97zM312 560l-111 -299h222zM317 736h-96l133 126h96z" />
    <glyph glyph-name="Acircumflex" unicode="&#xc2;" horiz-adv-x="628" 
d="M519 0l-68 184h-279l-67 -184h-93l258 667h89l257 -667h-97zM312 560l-111 -299h222zM399 735l-79 76l-78 -76h-91l131 127h76l131 -127h-90z" />
    <glyph glyph-name="Atilde" unicode="&#xc3;" horiz-adv-x="628" 
d="M519 0l-68 184h-279l-67 -184h-93l258 667h89l257 -667h-97zM312 560l-111 -299h222zM508 802q-23 -12 -46 -25t-47 -20.5t-49 -6.5t-52 17q-13 8 -23.5 15t-22.5 10t-26 1.5t-33 -11.5l-59 -30l-31 58q22 12 45.5 24.5t48 20t49.5 6.5t52 -17q13 -8 23.5 -15t22.5 -10
t25.5 -1.5t32.5 11.5l59 31z" />
    <glyph glyph-name="Adieresis" unicode="&#xc4;" horiz-adv-x="628" 
d="M519 0l-68 184h-279l-67 -184h-93l258 667h89l257 -667h-97zM312 560l-111 -299h222zM475 815q0 -49 -50 -49q-48 0 -48 49q0 26 11.5 37t36.5 11t37.5 -11t12.5 -37zM260 815q0 -49 -50 -49q-48 0 -48 49q0 26 11.5 37t36.5 11t37.5 -11t12.5 -37z" />
    <glyph glyph-name="Aring" unicode="&#xc5;" horiz-adv-x="628" 
d="M519 0l-69 184h-278l-68 -184h-92l242 629q-60 18 -60 110q0 62 28 85t91 23q64 0 92 -24.5t28 -86.5q0 -92 -61 -107l243 -629h-96zM375 732q0 37 -12 50t-50 13t-49 -13t-11 -50q0 -18 2.5 -29.5t9 -18t18.5 -9t31 -2.5q37 0 49 11.5t12 47.5zM311 560l-111 -300h222z
" />
    <glyph glyph-name="AE" unicode="&#xc6;" horiz-adv-x="931" 
d="M463 0v184h-238l-121 -184h-102l446 667h412v-80h-310v-205h300v-80h-300v-222h310v-80h-397zM463 546l-187 -284h187v284z" />
    <glyph glyph-name="Ccedilla" unicode="&#xc7;" horiz-adv-x="647" 
d="M584 179q0 -51 -14 -86t-42 -56.5t-68.5 -32t-94.5 -11.5v-34q33 -1 49 -19.5t16 -49.5q0 -38 -19 -58.5t-65 -20.5q-43 0 -63.5 16t-20.5 54h47q0 -17 8.5 -22.5t28.5 -5.5q23 0 28.5 9t5.5 26q0 18 -10 25t-25 8q-6 1 -13.5 1h-16.5v71q-91 3 -140 29.5t-72 71.5
t-27 106t-4 134q0 75 4.5 137.5t30 107.5t81 70t156.5 25q58 0 103 -9t75.5 -31t46 -57.5t15.5 -89.5h-86q0 30 -7 50.5t-25.5 32.5t-50 17.5t-80.5 5.5q-63 0 -98 -14t-52 -44.5t-20.5 -80t-3.5 -121.5t3.5 -121t20.5 -80t52 -44.5t98 -13.5q49 0 80.5 5t50 17.5t25.5 32.5
t7 50h86v0z" />
    <glyph glyph-name="Egrave" unicode="&#xc8;" horiz-adv-x="593" 
d="M84 0v667h438v-80h-349v-205h339v-80h-339v-222h349v-80h-438zM305 736l-133 126h96l133 -126h-96z" />
    <glyph glyph-name="Eacute" unicode="&#xc9;" horiz-adv-x="593" 
d="M84 0v667h438v-80h-349v-205h339v-80h-339v-222h349v-80h-438zM299 736h-96l133 126h96z" />
    <glyph glyph-name="Ecircumflex" unicode="&#xca;" horiz-adv-x="593" 
d="M84 0v667h438v-80h-349v-205h339v-80h-339v-222h349v-80h-438zM384 735l-79 76l-78 -76h-91l131 127h76l131 -127h-90z" />
    <glyph glyph-name="Edieresis" unicode="&#xcb;" horiz-adv-x="593" 
d="M84 0v667h438v-80h-349v-205h339v-80h-339v-222h349v-80h-438zM469 814q0 -49 -50 -49q-48 0 -48 49q0 26 11.5 37t36.5 11t37.5 -11t12.5 -37zM254 814q0 -49 -50 -49q-48 0 -48 49q0 26 11.5 37t36.5 11t37.5 -11t12.5 -37z" />
    <glyph glyph-name="Igrave" unicode="&#xcc;" horiz-adv-x="257" 
d="M84 0v667h89v-667h-89zM162 736l-133 126h96l133 -126h-96z" />
    <glyph glyph-name="Iacute" unicode="&#xcd;" horiz-adv-x="257" 
d="M84 0v667h89v-667h-89zM130 736h-96l133 126h96z" />
    <glyph glyph-name="Icircumflex" unicode="&#xce;" horiz-adv-x="257" 
d="M84 0v667h89v-667h-89zM207 735l-79 76l-78 -76h-91l131 127h76l131 -127h-90z" />
    <glyph glyph-name="Idieresis" unicode="&#xcf;" horiz-adv-x="257" 
d="M84 0v667h89v-667h-89zM285 814q0 -49 -50 -49q-48 0 -48 49q0 26 11.5 37t36.5 11t37.5 -11t12.5 -37zM70 814q0 -49 -50 -49q-48 0 -48 49q0 26 11.5 37t36.5 11t37.5 -11t12.5 -37z" />
    <glyph glyph-name="Eth" unicode="&#xd0;" horiz-adv-x="688" 
d="M616 333q0 -52 -2 -90t-6.5 -66.5t-12.5 -49.5t-20 -40q-17 -25 -38 -42t-49 -27t-64.5 -14t-82.5 -4h-240v296h-76v80h76v291h240q92 0 146 -18.5t87 -68.5q12 -19 20.5 -40.5t13 -50t6.5 -66.5t2 -90zM527 333q0 45 -2 78.5t-6 57.5t-10 41t-15 29q-10 14 -23 23
t-32 14.5t-44.5 7.5t-59.5 2h-146v-210h179v-80h-179v-215h146q34 0 59.5 2t44.5 7t32 14t23 23q9 12 15 29t10 41t6 57.5t2 78.5z" />
    <glyph glyph-name="Ntilde" unicode="&#xd1;" horiz-adv-x="655" 
d="M477 0l-307 520v-520h-86v667h93l308 -517v517h86v-667h-94zM525 804q-23 -12 -46 -25t-47 -20.5t-49 -6.5t-52 17q-13 8 -23.5 15t-22.5 10t-26 1.5t-33 -11.5l-59 -30l-31 58q22 12 45.5 24.5t48 20t49.5 6.5t52 -17q13 -8 23.5 -15t22.5 -10t25.5 -1.5t32.5 11.5
l59 31z" />
    <glyph glyph-name="Ograve" unicode="&#xd2;" horiz-adv-x="674" 
d="M602 335q0 -78 -5 -141.5t-30.5 -108t-79 -69t-150.5 -24.5q-99 0 -153 25.5t-79 70.5t-29 108t-4 138t4 137.5t28.5 107.5t78.5 70t153 25t153 -24.5t79 -69.5t29.5 -107.5t4.5 -137.5zM513 334q0 48 -1.5 81.5t-5 57t-9 39.5t-13.5 29q-18 28 -51.5 40t-96.5 12
t-97 -12.5t-51 -40.5q-8 -13 -13.5 -29t-8.5 -39.5t-4.5 -57t-1.5 -81.5t1.5 -81.5t5 -57t9 -39.5t13.5 -29q17 -28 51 -40t97 -12q62 0 95.5 12t51.5 40q8 13 13.5 29t9 40t5 57.5t1.5 81.5zM360 736l-133 126h96l133 -126h-96z" />
    <glyph glyph-name="Oacute" unicode="&#xd3;" horiz-adv-x="674" 
d="M602 335q0 -78 -5 -141.5t-30.5 -108t-79 -69t-150.5 -24.5q-99 0 -153 25.5t-79 70.5t-29 108t-4 138t4 137.5t28.5 107.5t78.5 70t153 25t153 -24.5t79 -69.5t29.5 -107.5t4.5 -137.5zM513 334q0 48 -1.5 81.5t-5 57t-9 39.5t-13.5 29q-18 28 -51.5 40t-96.5 12
t-97 -12.5t-51 -40.5q-8 -13 -13.5 -29t-8.5 -39.5t-4.5 -57t-1.5 -81.5t1.5 -81.5t5 -57t9 -39.5t13.5 -29q17 -28 51 -40t97 -12q62 0 95.5 12t51.5 40q8 13 13.5 29t9 40t5 57.5t1.5 81.5zM312 736h-96l133 126h96z" />
    <glyph glyph-name="Ocircumflex" unicode="&#xd4;" horiz-adv-x="674" 
d="M602 335q0 -78 -5 -141.5t-30.5 -108t-79 -69t-150.5 -24.5q-99 0 -153 25.5t-79 70.5t-29 108t-4 138t4 137.5t28.5 107.5t78.5 70t153 25t153 -24.5t79 -69.5t29.5 -107.5t4.5 -137.5zM513 334q0 48 -1.5 81.5t-5 57t-9 39.5t-13.5 29q-18 28 -51.5 40t-96.5 12
t-97 -12.5t-51 -40.5q-8 -13 -13.5 -29t-8.5 -39.5t-4.5 -57t-1.5 -81.5t1.5 -81.5t5 -57t9 -39.5t13.5 -29q17 -28 51 -40t97 -12q62 0 95.5 12t51.5 40q8 13 13.5 29t9 40t5 57.5t1.5 81.5zM415 735l-79 76l-78 -76h-91l131 127h76l131 -127h-90z" />
    <glyph glyph-name="Otilde" unicode="&#xd5;" horiz-adv-x="674" 
d="M602 335q0 -78 -5 -141.5t-30.5 -108t-79 -69t-150.5 -24.5q-99 0 -153 25.5t-79 70.5t-29 108t-4 138t4 137.5t28.5 107.5t78.5 70t153 25t153 -24.5t79 -69.5t29.5 -107.5t4.5 -137.5zM513 334q0 48 -1.5 81.5t-5 57t-9 39.5t-13.5 29q-18 28 -51.5 40t-96.5 12
t-97 -12.5t-51 -40.5q-8 -13 -13.5 -29t-8.5 -39.5t-4.5 -57t-1.5 -81.5t1.5 -81.5t5 -57t9 -39.5t13.5 -29q17 -28 51 -40t97 -12q62 0 95.5 12t51.5 40q8 13 13.5 29t9 40t5 57.5t1.5 81.5zM531 804q-23 -12 -46 -25t-47 -20.5t-49 -6.5t-52 17q-13 8 -23.5 15t-22.5 10
t-26 1.5t-33 -11.5l-59 -30l-31 58q22 12 45.5 24.5t48 20t49.5 6.5t52 -17q13 -8 23.5 -15t22.5 -10t25.5 -1.5t32.5 11.5l59 31z" />
    <glyph glyph-name="Odieresis" unicode="&#xd6;" horiz-adv-x="674" 
d="M602 335q0 -78 -5 -141.5t-30.5 -108t-79 -69t-150.5 -24.5q-99 0 -153 25.5t-79 70.5t-29 108t-4 138t4 137.5t28.5 107.5t78.5 70t153 25t153 -24.5t79 -69.5t29.5 -107.5t4.5 -137.5zM513 334q0 48 -1.5 81.5t-5 57t-9 39.5t-13.5 29q-18 28 -51.5 40t-96.5 12
t-97 -12.5t-51 -40.5q-8 -13 -13.5 -29t-8.5 -39.5t-4.5 -57t-1.5 -81.5t1.5 -81.5t5 -57t9 -39.5t13.5 -29q17 -28 51 -40t97 -12q62 0 95.5 12t51.5 40q8 13 13.5 29t9 40t5 57.5t1.5 81.5zM497 815q0 -49 -50 -49q-48 0 -48 49q0 26 11.5 37t36.5 11t37.5 -11t12.5 -37z
M282 815q0 -49 -50 -49q-48 0 -48 49q0 26 11.5 37t36.5 11t37.5 -11t12.5 -37z" />
    <glyph glyph-name="multiply" unicode="&#xd7;" horiz-adv-x="582" 
d="M470 20l-180 179l-178 -179l-54 54l179 178l-179 180l54 54l178 -180l180 180l54 -54l-180 -180l180 -178z" />
    <glyph glyph-name="Oslash" unicode="&#xd8;" horiz-adv-x="674" 
d="M602 333q-1 -78 -6.5 -141.5t-31 -108t-79.5 -68.5t-151 -23q-8 0 -20.5 0.5t-17.5 0.5l-31 -136l-74 16l31 132q-57 14 -87.5 44t-44.5 72.5t-16 97t-2 117.5q1 75 5.5 137.5t29.5 107.5t79 69.5t153 23.5q12 0 24 -0.5t14 -0.5l30 134l74 -18l-29 -127
q55 -15 85.5 -42.5t45 -69t17.5 -96t2 -121.5zM513 332q0 48 -1 81.5t-4 57.5t-8.5 40t-13.5 29q-3 5 -15 18.5t-38 21.5l-117 -505q7 -1 10 -1h9q62 -1 95.5 11.5t51.5 39.5q8 13 14 29t9.5 39.5t5.5 57t2 81.5zM357 592q-5 1 -19 1q-63 1 -96.5 -11.5t-51.5 -40.5
q-8 -13 -13.5 -28.5t-9 -39t-5.5 -57t-2 -81.5t1 -81.5t4 -57.5t8.5 -40t13.5 -29q13 -20 29.5 -29t24.5 -11z" />
    <glyph glyph-name="Ugrave" unicode="&#xd9;" horiz-adv-x="652" 
d="M574 335v-87.5t-2 -58.5q-3 -47 -16 -81q-24 -61 -83 -88.5t-147 -27.5t-147 27.5t-83 88.5q-13 34 -16 81q-2 24 -2 58.5v87.5v332h89v-332q0 -73 1 -122.5t15 -79.5q14 -29 47.5 -44.5t95.5 -15.5q63 0 96.5 15t47.5 44t15 79t1 124v332h88v-332zM336 736l-133 126h96
l133 -126h-96z" />
    <glyph glyph-name="Uacute" unicode="&#xda;" horiz-adv-x="652" 
d="M574 335v-87.5t-2 -58.5q-3 -47 -16 -81q-24 -61 -83 -88.5t-147 -27.5t-147 27.5t-83 88.5q-13 34 -16 81q-2 24 -2 58.5v87.5v332h89v-332q0 -73 1 -122.5t15 -79.5q14 -29 47.5 -44.5t95.5 -15.5q63 0 96.5 15t47.5 44t15 79t1 124v332h88v-332zM326 736h-96l133 126
h96z" />
    <glyph glyph-name="Ucircumflex" unicode="&#xdb;" horiz-adv-x="652" 
d="M574 335v-87.5t-2 -58.5q-3 -47 -16 -81q-24 -61 -83 -88.5t-147 -27.5t-147 27.5t-83 88.5q-13 34 -16 81q-2 24 -2 58.5v87.5v332h89v-332q0 -73 1 -122.5t15 -79.5q14 -29 47.5 -44.5t95.5 -15.5q63 0 96.5 15t47.5 44t15 79t1 124v332h88v-332zM412 735l-79 76
l-78 -76h-91l131 127h76l131 -127h-90z" />
    <glyph glyph-name="Udieresis" unicode="&#xdc;" horiz-adv-x="652" 
d="M574 335v-87.5t-2 -58.5q-3 -47 -16 -81q-24 -61 -83 -88.5t-147 -27.5t-147 27.5t-83 88.5q-13 34 -16 81q-2 24 -2 58.5v87.5v332h89v-332q0 -73 1 -122.5t15 -79.5q14 -29 47.5 -44.5t95.5 -15.5q63 0 96.5 15t47.5 44t15 79t1 124v332h88v-332zM489 815
q0 -49 -50 -49q-48 0 -48 49q0 26 11.5 37t36.5 11t37.5 -11t12.5 -37zM274 815q0 -49 -50 -49q-48 0 -48 49q0 26 11.5 37t36.5 11t37.5 -11t12.5 -37z" />
    <glyph glyph-name="Yacute" unicode="&#xdd;" horiz-adv-x="568" 
d="M329 291v-291h-89v291l-238 376h102l182 -295l180 295h100zM276 736h-96l133 126h96z" />
    <glyph glyph-name="Thorn" unicode="&#xde;" horiz-adv-x="615" 
d="M573 337q0 -71 -19.5 -110t-54 -57.5t-83 -22.5t-105.5 -4h-138v-143h-89v667h89v-140h138q57 0 105 -3.5t83 -21.5t54.5 -56.5t19.5 -108.5zM485 335q0 46 -13.5 68t-31.5 31q-24 12 -60 12.5t-71 0.5h-136v-224h136q35 0 71 0.5t60 12.5q18 9 31.5 31t13.5 68z" />
    <glyph glyph-name="germandbls" unicode="&#xdf;" horiz-adv-x="566" 
d="M501 196q0 -59 -15 -97t-43.5 -60t-70 -30.5t-93.5 -8.5h-61v77h63q38 0 63.5 5t41.5 18.5t22.5 37t6.5 59.5q0 41 -7 66.5t-23.5 40t-44 19.5t-67.5 5h-55v77h55q33 0 58.5 3.5t43 15t26.5 33.5t9 60q0 31 -5.5 52t-19.5 34t-39 18t-65 5q-45 0 -70 -9t-37.5 -26.5
t-15.5 -44.5t-3 -63v-483h-85v480v45t3.5 45.5t12 43t26.5 37.5q27 26 71 39.5t98 13.5q108 0 160.5 -40.5t52.5 -140.5q0 -54 -15 -95.5t-57 -60.5q47 -18 63 -62t16 -109z" />
    <glyph glyph-name="agrave" unicode="&#xe0;" horiz-adv-x="539" 
d="M396 0v47q-22 -26 -63 -40.5t-98 -14.5q-90 0 -139 34t-49 117q0 51 16.5 81.5t44 46.5t64 21t75.5 5h143q0 31 -1.5 53.5t-13 37.5t-36.5 22t-71 7q-21 0 -43 -1.5t-40.5 -8.5t-30 -21.5t-11.5 -40.5h-82q0 45 16.5 73.5t45.5 45t68 22.5t84 6q76 0 117 -19t59 -48.5
t20.5 -63.5t2.5 -64v-297h-78zM243 225q-28 0 -49 -3t-34.5 -11.5t-20 -24.5t-6.5 -42q0 -41 23 -60t87 -19q51 0 80.5 10t44.5 30t19 50t4 70h-148zM280 541l-133 126h96l133 -126h-96z" />
    <glyph glyph-name="aacute" unicode="&#xe1;" horiz-adv-x="539" 
d="M396 0v47q-22 -26 -63 -40.5t-98 -14.5q-90 0 -139 34t-49 117q0 51 16.5 81.5t44 46.5t64 21t75.5 5h143q0 31 -1.5 53.5t-13 37.5t-36.5 22t-71 7q-21 0 -43 -1.5t-40.5 -8.5t-30 -21.5t-11.5 -40.5h-82q0 45 16.5 73.5t45.5 45t68 22.5t84 6q76 0 117 -19t59 -48.5
t20.5 -63.5t2.5 -64v-297h-78zM243 225q-28 0 -49 -3t-34.5 -11.5t-20 -24.5t-6.5 -42q0 -41 23 -60t87 -19q51 0 80.5 10t44.5 30t19 50t4 70h-148zM263 541h-96l133 126h96z" />
    <glyph glyph-name="acircumflex" unicode="&#xe2;" horiz-adv-x="539" 
d="M396 0v47q-22 -26 -63 -40.5t-98 -14.5q-90 0 -139 34t-49 117q0 51 16.5 81.5t44 46.5t64 21t75.5 5h143q0 31 -1.5 53.5t-13 37.5t-36.5 22t-71 7q-21 0 -43 -1.5t-40.5 -8.5t-30 -21.5t-11.5 -40.5h-82q0 45 16.5 73.5t45.5 45t68 22.5t84 6q76 0 117 -19t59 -48.5
t20.5 -63.5t2.5 -64v-297h-78zM243 225q-28 0 -49 -3t-34.5 -11.5t-20 -24.5t-6.5 -42q0 -41 23 -60t87 -19q51 0 80.5 10t44.5 30t19 50t4 70h-148zM351 540l-79 76l-78 -76h-91l131 127h76l131 -127h-90z" />
    <glyph glyph-name="atilde" unicode="&#xe3;" horiz-adv-x="539" 
d="M396 0v47q-22 -26 -63 -40.5t-98 -14.5q-90 0 -139 34t-49 117q0 51 16.5 81.5t44 46.5t64 21t75.5 5h143q0 31 -1.5 53.5t-13 37.5t-36.5 22t-71 7q-21 0 -43 -1.5t-40.5 -8.5t-30 -21.5t-11.5 -40.5h-82q0 45 16.5 73.5t45.5 45t68 22.5t84 6q76 0 117 -19t59 -48.5
t20.5 -63.5t2.5 -64v-297h-78zM243 225q-28 0 -49 -3t-34.5 -11.5t-20 -24.5t-6.5 -42q0 -41 23 -60t87 -19q51 0 80.5 10t44.5 30t19 50t4 70h-148zM465 609q-23 -12 -46 -25t-47 -20.5t-49 -6.5t-52 17q-13 8 -23.5 15t-22.5 10t-26 1.5t-33 -11.5l-59 -30l-31 58
q22 12 45.5 24.5t48 20t49.5 6.5t52 -17q13 -8 23.5 -15t22.5 -10t25.5 -1.5t32.5 11.5l59 31z" />
    <glyph glyph-name="adieresis" unicode="&#xe4;" horiz-adv-x="539" 
d="M396 0v47q-22 -26 -63 -40.5t-98 -14.5q-90 0 -139 34t-49 117q0 51 16.5 81.5t44 46.5t64 21t75.5 5h143q0 31 -1.5 53.5t-13 37.5t-36.5 22t-71 7q-21 0 -43 -1.5t-40.5 -8.5t-30 -21.5t-11.5 -40.5h-82q0 45 16.5 73.5t45.5 45t68 22.5t84 6q76 0 117 -19t59 -48.5
t20.5 -63.5t2.5 -64v-297h-78zM243 225q-28 0 -49 -3t-34.5 -11.5t-20 -24.5t-6.5 -42q0 -41 23 -60t87 -19q51 0 80.5 10t44.5 30t19 50t4 70h-148zM428 619q0 -49 -50 -49q-48 0 -48 49q0 26 11.5 37t36.5 11t37.5 -11t12.5 -37zM213 619q0 -49 -50 -49q-48 0 -48 49
q0 26 11.5 37t36.5 11t37.5 -11t12.5 -37z" />
    <glyph glyph-name="aring" unicode="&#xe5;" horiz-adv-x="539" 
d="M396 0v47q-22 -26 -63 -40.5t-98 -14.5q-90 0 -139 34t-49 117q0 51 16.5 81.5t44 46.5t64 21t75.5 5h143q0 31 -1.5 53.5t-13 37.5t-36.5 22t-71 7q-21 0 -43 -1.5t-40.5 -8.5t-30 -21.5t-11.5 -40.5h-82q0 62 31 93.5t81 43.5q-12 11 -15.5 32t-3.5 45q0 61 27.5 84.5
t92.5 23.5t92.5 -23t27.5 -85q0 -24 -5 -46t-16 -33q39 -12 59.5 -33t30 -46.5t10.5 -52.5t1 -51v-297h-78zM335 550q0 38 -12.5 51.5t-50.5 13.5q-39 0 -50 -14t-11 -51q0 -19 2.5 -31t9.5 -18.5t19 -9t32 -2.5q37 0 49 12t12 49zM243 225q-28 0 -49 -3t-34.5 -11.5
t-20 -24.5t-6.5 -42q0 -41 23 -60t87 -19q51 0 80.5 10t44.5 30t19 50t4 70h-148z" />
    <glyph glyph-name="ae" unicode="&#xe6;" horiz-adv-x="874" 
d="M476 219q0 -38 4.5 -67t19 -48t40.5 -28.5t70 -9.5q20 0 41.5 2t39.5 10t30 22.5t12 40.5h80q0 -45 -17.5 -74t-46.5 -45.5t-66 -23t-76 -6.5q-131 0 -174 73q-31 -42 -81.5 -57.5t-113.5 -15.5q-90 0 -140.5 32.5t-50.5 115.5q0 51 17 81.5t45 46.5t64.5 20.5t75.5 4.5
h145q0 35 -3.5 59t-16 38.5t-37 20.5t-67.5 6q-21 0 -43.5 -1.5t-41 -8.5t-30.5 -21.5t-12 -40.5h-82q0 43 16.5 71.5t45 45.5t66.5 23.5t82 6.5q63 0 106.5 -13.5t66.5 -48.5q46 62 162 62q76 0 119 -19.5t64 -55t25.5 -86t4.5 -112.5h-343zM735 292q0 35 -5.5 59t-20.5 39
t-40 22t-64 7q-38 0 -62.5 -8t-39 -23.5t-20.5 -39.5t-6 -56h258zM245 220q-28 0 -49 -2.5t-35 -11t-21 -24t-7 -41.5q0 -41 24.5 -58.5t87.5 -17.5q51 0 80.5 9t44.5 27.5t19.5 48t4.5 70.5h-149z" />
    <glyph glyph-name="ccedilla" unicode="&#xe7;" horiz-adv-x="523" 
d="M473 141q0 -43 -15 -71t-39.5 -44.5t-56.5 -24t-65 -8.5v-34q33 -1 49 -19.5t16 -49.5q0 -38 -19 -58.5t-65 -20.5q-43 0 -63.5 16t-20.5 54h47q0 -17 8.5 -22.5t28.5 -5.5q23 0 28.5 9t5.5 26q0 18 -10 25t-25 8q-6 1 -13.5 1h-16.5v71q-62 3 -100 21.5t-58.5 51t-27 77
t-6.5 100.5q0 54 6.5 99.5t28.5 79t65 52t117 18.5q36 0 72 -5.5t64.5 -22t46.5 -45.5t18 -76h-81q0 25 -11 39.5t-28 21.5t-38 9t-41 2q-46 0 -72.5 -10t-40 -31t-17 -53.5t-3.5 -77.5t3.5 -77.5t17 -54t40 -32t72.5 -10.5q20 0 41 2t38 9t28 21.5t11 39.5h81v0z" />
    <glyph glyph-name="egrave" unicode="&#xe8;" horiz-adv-x="538" 
d="M141 213q0 -38 4.5 -66t19 -46t40.5 -26.5t70 -8.5q20 0 41.5 2t39.5 10t29.5 22.5t11.5 40.5h80q0 -46 -18.5 -75t-47.5 -45.5t-65.5 -22.5t-72.5 -6q-71 0 -114 17.5t-66 49.5t-30.5 77.5t-7.5 101.5q0 57 7.5 104t30 80t65 51.5t112.5 18.5q76 0 119 -20.5t64 -57
t25.5 -88t4.5 -113.5h-342zM399 286q0 35 -4.5 60t-18.5 41.5t-39.5 24t-66.5 7.5q-39 0 -64 -8.5t-39.5 -25.5t-19.5 -42t-5 -57h257zM278 541l-133 126h96l133 -126h-96z" />
    <glyph glyph-name="eacute" unicode="&#xe9;" horiz-adv-x="538" 
d="M141 213q0 -38 4.5 -66t19 -46t40.5 -26.5t70 -8.5q20 0 41.5 2t39.5 10t29.5 22.5t11.5 40.5h80q0 -46 -18.5 -75t-47.5 -45.5t-65.5 -22.5t-72.5 -6q-71 0 -114 17.5t-66 49.5t-30.5 77.5t-7.5 101.5q0 57 7.5 104t30 80t65 51.5t112.5 18.5q76 0 119 -20.5t64 -57
t25.5 -88t4.5 -113.5h-342zM399 286q0 35 -4.5 60t-18.5 41.5t-39.5 24t-66.5 7.5q-39 0 -64 -8.5t-39.5 -25.5t-19.5 -42t-5 -57h257zM262 541h-96l133 126h96z" />
    <glyph glyph-name="ecircumflex" unicode="&#xea;" horiz-adv-x="538" 
d="M141 213q0 -38 4.5 -66t19 -46t40.5 -26.5t70 -8.5q20 0 41.5 2t39.5 10t29.5 22.5t11.5 40.5h80q0 -46 -18.5 -75t-47.5 -45.5t-65.5 -22.5t-72.5 -6q-71 0 -114 17.5t-66 49.5t-30.5 77.5t-7.5 101.5q0 57 7.5 104t30 80t65 51.5t112.5 18.5q76 0 119 -20.5t64 -57
t25.5 -88t4.5 -113.5h-342zM399 286q0 35 -4.5 60t-18.5 41.5t-39.5 24t-66.5 7.5q-39 0 -64 -8.5t-39.5 -25.5t-19.5 -42t-5 -57h257zM349 540l-79 76l-78 -76h-91l131 127h76l131 -127h-90z" />
    <glyph glyph-name="edieresis" unicode="&#xeb;" horiz-adv-x="538" 
d="M141 213q0 -38 4.5 -66t19 -46t40.5 -26.5t70 -8.5q20 0 41.5 2t39.5 10t29.5 22.5t11.5 40.5h80q0 -46 -18.5 -75t-47.5 -45.5t-65.5 -22.5t-72.5 -6q-71 0 -114 17.5t-66 49.5t-30.5 77.5t-7.5 101.5q0 57 7.5 104t30 80t65 51.5t112.5 18.5q76 0 119 -20.5t64 -57
t25.5 -88t4.5 -113.5h-342zM399 286q0 35 -4.5 60t-18.5 41.5t-39.5 24t-66.5 7.5q-39 0 -64 -8.5t-39.5 -25.5t-19.5 -42t-5 -57h257zM427 619q0 -49 -50 -49q-48 0 -48 49q0 26 11.5 37t36.5 11t37.5 -11t12.5 -37zM212 619q0 -49 -50 -49q-48 0 -48 49q0 26 11.5 37
t36.5 11t37.5 -11t12.5 -37z" />
    <glyph glyph-name="igrave" unicode="&#xec;" horiz-adv-x="222" 
d="M70 0v484h85v-484h-85zM140 541l-133 126h96l133 -126h-96z" />
    <glyph glyph-name="iacute" unicode="&#xed;" horiz-adv-x="222" 
d="M70 0v484h85v-484h-85zM101 541h-96l133 126h96z" />
    <glyph glyph-name="icircumflex" unicode="&#xee;" horiz-adv-x="222" 
d="M70 0v484h85v-484h-85zM191 540l-79 76l-78 -76h-91l131 127h76l131 -127h-90z" />
    <glyph glyph-name="idieresis" unicode="&#xef;" horiz-adv-x="222" 
d="M70 0v484h85v-484h-85zM269 619q0 -49 -50 -49q-48 0 -48 49q0 26 11.5 37t36.5 11t37.5 -11t12.5 -37zM54 619q0 -49 -50 -49q-48 0 -48 49q0 26 11.5 37t36.5 11t37.5 -11t12.5 -37z" />
    <glyph glyph-name="eth" unicode="&#xf0;" horiz-adv-x="552" 
d="M497 242q0 -63 -9 -110t-33.5 -78t-67.5 -46.5t-111 -15.5q-69 0 -112.5 15.5t-67.5 46.5t-32.5 78.5t-8.5 110.5q0 45 5 87.5t23 75.5t54 54t99 25q16 1 31.5 1t30.5 -2l-96 97l-57 -48l-44 44l57 49l-46 46l57 51l46 -47l53 47l43 -44l-52 -46l148 -151q25 -26 42 -50
t27.5 -52t15.5 -61.5t5 -76.5zM412 242q0 51 -8 84t-26 51.5t-46 26t-68 7.5q-42 0 -67 -11.5t-38 -33t-16.5 -53t-3.5 -71.5q0 -45 3 -77.5t16 -53.5t40.5 -31t77.5 -10q49 0 76.5 10.5t40.5 31.5t16 53.5t3 76.5z" />
    <glyph glyph-name="ntilde" unicode="&#xf1;" horiz-adv-x="543" 
d="M393 0v255q0 39 -0.5 68.5t-9.5 49.5t-31 30t-65 10q-51 0 -78 -16t-39 -42t-13.5 -60.5t-1.5 -71.5v-223h-85v484h77v-47q23 25 58.5 40t89.5 15q74 0 112 -20.5t53.5 -53.5t16.5 -73.5t1 -79.5v-265h-85zM467 609q-23 -12 -46 -25t-47 -20.5t-49 -6.5t-52 17
q-13 8 -23.5 15t-22.5 10t-26 1.5t-33 -11.5l-59 -30l-31 58q22 12 45.5 24.5t48 20t49.5 6.5t52 -17q13 -8 23.5 -15t22.5 -10t25.5 -1.5t32.5 11.5l59 31z" />
    <glyph glyph-name="ograve" unicode="&#xf2;" horiz-adv-x="555" 
d="M500 242q0 -74 -10 -120.5t-39 -75.5t-71.5 -41.5t-101.5 -12.5q-60 0 -102.5 12.5t-71.5 41.5t-39 75.5t-10 120.5t10 120.5t39 75.5t71.5 41.5t102.5 12.5q59 0 101.5 -12.5t71.5 -41.5t39 -75.5t10 -120.5zM414 242q0 45 -3.5 77.5t-17 54t-40.5 31.5t-75 10
t-75.5 -10.5t-41 -32t-17 -54t-3.5 -76.5t3.5 -76.5t17 -54t41 -32t75.5 -10.5t75.5 10.5t41 32t16.5 54t3 76.5zM307 541l-133 126h96l133 -126h-96z" />
    <glyph glyph-name="oacute" unicode="&#xf3;" horiz-adv-x="555" 
d="M500 242q0 -74 -10 -120.5t-39 -75.5t-71.5 -41.5t-101.5 -12.5q-60 0 -102.5 12.5t-71.5 41.5t-39 75.5t-10 120.5t10 120.5t39 75.5t71.5 41.5t102.5 12.5q59 0 101.5 -12.5t71.5 -41.5t39 -75.5t10 -120.5zM414 242q0 45 -3.5 77.5t-17 54t-40.5 31.5t-75 10
t-75.5 -10.5t-41 -32t-17 -54t-3.5 -76.5t3.5 -76.5t17 -54t41 -32t75.5 -10.5t75.5 10.5t41 32t16.5 54t3 76.5zM251 541h-96l133 126h96z" />
    <glyph glyph-name="ocircumflex" unicode="&#xf4;" horiz-adv-x="555" 
d="M500 242q0 -74 -10 -120.5t-39 -75.5t-71.5 -41.5t-101.5 -12.5q-60 0 -102.5 12.5t-71.5 41.5t-39 75.5t-10 120.5t10 120.5t39 75.5t71.5 41.5t102.5 12.5q59 0 101.5 -12.5t71.5 -41.5t39 -75.5t10 -120.5zM414 242q0 45 -3.5 77.5t-17 54t-40.5 31.5t-75 10
t-75.5 -10.5t-41 -32t-17 -54t-3.5 -76.5t3.5 -76.5t17 -54t41 -32t75.5 -10.5t75.5 10.5t41 32t16.5 54t3 76.5zM359 540l-79 76l-78 -76h-91l131 127h76l131 -127h-90z" />
    <glyph glyph-name="otilde" unicode="&#xf5;" horiz-adv-x="555" 
d="M500 242q0 -74 -10 -120.5t-39 -75.5t-71.5 -41.5t-101.5 -12.5q-60 0 -102.5 12.5t-71.5 41.5t-39 75.5t-10 120.5t10 120.5t39 75.5t71.5 41.5t102.5 12.5q59 0 101.5 -12.5t71.5 -41.5t39 -75.5t10 -120.5zM414 242q0 45 -3.5 77.5t-17 54t-40.5 31.5t-75 10
t-75.5 -10.5t-41 -32t-17 -54t-3.5 -76.5t3.5 -76.5t17 -54t41 -32t75.5 -10.5t75.5 10.5t41 32t16.5 54t3 76.5zM475 609q-23 -12 -46 -25t-47 -20.5t-49 -6.5t-52 17q-13 8 -23.5 15t-22.5 10t-26 1.5t-33 -11.5l-59 -30l-31 58q22 12 45.5 24.5t48 20t49.5 6.5t52 -17
q13 -8 23.5 -15t22.5 -10t25.5 -1.5t32.5 11.5l59 31z" />
    <glyph glyph-name="odieresis" unicode="&#xf6;" horiz-adv-x="555" 
d="M500 242q0 -74 -10 -120.5t-39 -75.5t-71.5 -41.5t-101.5 -12.5q-60 0 -102.5 12.5t-71.5 41.5t-39 75.5t-10 120.5t10 120.5t39 75.5t71.5 41.5t102.5 12.5q59 0 101.5 -12.5t71.5 -41.5t39 -75.5t10 -120.5zM414 242q0 45 -3.5 77.5t-17 54t-40.5 31.5t-75 10
t-75.5 -10.5t-41 -32t-17 -54t-3.5 -76.5t3.5 -76.5t17 -54t41 -32t75.5 -10.5t75.5 10.5t41 32t16.5 54t3 76.5zM437 619q0 -49 -50 -49q-48 0 -48 49q0 26 11.5 37t36.5 11t37.5 -11t12.5 -37zM222 619q0 -49 -50 -49q-48 0 -48 49q0 26 11.5 37t36.5 11t37.5 -11
t12.5 -37z" />
    <glyph glyph-name="divide" unicode="&#xf7;" horiz-adv-x="582" 
d="M346 438q0 -26 -13.5 -41t-40.5 -15t-41 15t-14 41q0 54 55 54q54 0 54 -54zM38 204v77h506v-77h-506zM346 48q0 -26 -13.5 -41t-40.5 -15t-41 15t-14 41q0 54 55 54q54 0 54 -54z" />
    <glyph glyph-name="oslash" unicode="&#xf8;" horiz-adv-x="555" 
d="M500 240q-1 -71 -11 -118.5t-40 -76.5t-71.5 -41.5t-101.5 -11.5h-25t-24 2l-35 -94l-73 26l34 88q-36 16 -56 40.5t-29.5 55t-11 65t-1.5 69.5q1 75 11.5 120.5t39.5 74.5q30 29 72 41.5t102 11.5h24.5t23.5 -2l33 88l72 -26l-31 -81q36 -15 56 -40.5t29.5 -56.5
t11 -65.5t1.5 -68.5zM414 241q0 43 -2.5 69.5t-8 42t-13 24.5t-16.5 17l-118 -324q7 -1 13 -1h12q48 0 74.5 10t39.5 31.5t16 54t3 76.5zM301 414q-7 1 -11 1h-10q-48 0 -76 -10t-41.5 -31.5t-17.5 -54t-4 -76.5q-1 -57 6 -94t36 -57q3 9 13 36t23 63t27.5 75t26.5 72
t20 54.5z" />
    <glyph glyph-name="ugrave" unicode="&#xf9;" horiz-adv-x="543" 
d="M394 0v48q-23 -25 -58.5 -40.5t-89.5 -15.5q-71 0 -108 20.5t-53.5 53t-18 73t-1.5 81.5v264h86v-255v-68.5t9 -49.5t31 -30t66 -10q51 0 78 16t38.5 42t13 60.5t1.5 71.5v223h85v-484h-79zM292 541l-133 126h96l133 -126h-96z" />
    <glyph glyph-name="uacute" unicode="&#xfa;" horiz-adv-x="543" 
d="M394 0v48q-23 -25 -58.5 -40.5t-89.5 -15.5q-71 0 -108 20.5t-53.5 53t-18 73t-1.5 81.5v264h86v-255v-68.5t9 -49.5t31 -30t66 -10q51 0 78 16t38.5 42t13 60.5t1.5 71.5v223h85v-484h-79zM266 541h-96l133 126h96z" />
    <glyph glyph-name="ucircumflex" unicode="&#xfb;" horiz-adv-x="543" 
d="M394 0v48q-23 -25 -58.5 -40.5t-89.5 -15.5q-71 0 -108 20.5t-53.5 53t-18 73t-1.5 81.5v264h86v-255v-68.5t9 -49.5t31 -30t66 -10q51 0 78 16t38.5 42t13 60.5t1.5 71.5v223h85v-484h-79zM352 540l-79 76l-78 -76h-91l131 127h76l131 -127h-90z" />
    <glyph glyph-name="udieresis" unicode="&#xfc;" horiz-adv-x="543" 
d="M394 0v48q-23 -25 -58.5 -40.5t-89.5 -15.5q-71 0 -108 20.5t-53.5 53t-18 73t-1.5 81.5v264h86v-255v-68.5t9 -49.5t31 -30t66 -10q51 0 78 16t38.5 42t13 60.5t1.5 71.5v223h85v-484h-79zM431 619q0 -49 -50 -49q-48 0 -48 49q0 26 11.5 37t36.5 11t37.5 -11t12.5 -37z
M216 619q0 -49 -50 -49q-48 0 -48 49q0 26 11.5 37t36.5 11t37.5 -11t12.5 -37z" />
    <glyph glyph-name="yacute" unicode="&#xfd;" horiz-adv-x="472" 
d="M205 -191h-87l76 197l-180 478h89l135 -379l133 379h89zM230 541h-96l133 126h96z" />
    <glyph glyph-name="thorn" unicode="&#xfe;" horiz-adv-x="557" 
d="M502 241q0 -47 -5.5 -91.5t-25.5 -79.5t-61 -56.5t-111 -21.5q-48 0 -83 12t-61 42v-237h-85v888h84v-259q26 27 65 40.5t86 13.5q67 0 106 -18.5t59 -51.5t26 -79t6 -102zM417 242q0 45 -4 77t-17 52.5t-36 30.5t-61 10q-42 0 -69.5 -7.5t-44 -26.5t-23.5 -52.5
t-7 -84.5t7 -84.5t23.5 -52.5t44.5 -26.5t69 -7.5q38 0 61 10t36 31t17 53.5t4 77.5z" />
    <glyph glyph-name="ydieresis" unicode="&#xff;" horiz-adv-x="472" 
d="M205 -191h-87l76 197l-180 478h89l135 -379l133 379h89zM395 619q0 -49 -50 -49q-48 0 -48 49q0 26 11.5 37t36.5 11t37.5 -11t12.5 -37zM180 619q0 -49 -50 -49q-48 0 -48 49q0 26 11.5 37t36.5 11t37.5 -11t12.5 -37z" />
    <glyph glyph-name="Amacron" unicode="&#x100;" horiz-adv-x="628" 
d="M519 0l-68 184h-279l-67 -184h-93l258 667h89l257 -667h-97zM312 560l-111 -299h222zM147 788v65h344v-65h-344z" />
    <glyph glyph-name="amacron" unicode="&#x101;" horiz-adv-x="539" 
d="M396 0v47q-22 -26 -63 -40.5t-98 -14.5q-90 0 -139 34t-49 117q0 51 16.5 81.5t44 46.5t64 21t75.5 5h143q0 31 -1.5 53.5t-13 37.5t-36.5 22t-71 7q-21 0 -43 -1.5t-40.5 -8.5t-30 -21.5t-11.5 -40.5h-82q0 45 16.5 73.5t45.5 45t68 22.5t84 6q76 0 117 -19t59 -48.5
t20.5 -63.5t2.5 -64v-297h-78zM243 225q-28 0 -49 -3t-34.5 -11.5t-20 -24.5t-6.5 -42q0 -41 23 -60t87 -19q51 0 80.5 10t44.5 30t19 50t4 70h-148zM99 587v65h344v-65h-344z" />
    <glyph glyph-name="Abreve" unicode="&#x102;" horiz-adv-x="628" 
d="M519 0l-68 184h-279l-67 -184h-93l258 667h89l257 -667h-97zM312 560l-111 -299h222zM457 867q0 -36 -7 -60.5t-24 -39.5t-44.5 -21.5t-67.5 -6.5q-41 0 -68 6.5t-44 21.5t-24 39.5t-7 60.5h63q0 -23 4.5 -36.5t14 -21t25 -9.5t36.5 -2t36.5 2t25 9.5t14 21t4.5 36.5h63z
" />
    <glyph glyph-name="abreve" unicode="&#x103;" horiz-adv-x="539" 
d="M396 0v47q-22 -26 -63 -40.5t-98 -14.5q-90 0 -139 34t-49 117q0 51 16.5 81.5t44 46.5t64 21t75.5 5h143q0 31 -1.5 53.5t-13 37.5t-36.5 22t-71 7q-21 0 -43 -1.5t-40.5 -8.5t-30 -21.5t-11.5 -40.5h-82q0 45 16.5 73.5t45.5 45t68 22.5t84 6q76 0 117 -19t59 -48.5
t20.5 -63.5t2.5 -64v-297h-78zM243 225q-28 0 -49 -3t-34.5 -11.5t-20 -24.5t-6.5 -42q0 -41 23 -60t87 -19q51 0 80.5 10t44.5 30t19 50t4 70h-148zM412 667q0 -36 -7 -60.5t-24 -39.5t-44.5 -21.5t-67.5 -6.5q-41 0 -68 6.5t-44 21.5t-24 39.5t-7 60.5h63q0 -23 4.5 -36.5
t14 -21t25 -9.5t36.5 -2t36.5 2t25 9.5t14 21t4.5 36.5h63z" />
    <glyph glyph-name="Aogonek" unicode="&#x104;" horiz-adv-x="628" 
d="M616 0q-30 -15 -48.5 -28.5t-28 -26.5t-13 -25t-3.5 -23q0 -35 22.5 -50t60.5 -15h9.5t16.5 2v-58q-17 -2 -30 -2.5t-18 -0.5q-27 0 -51.5 7t-42.5 21.5t-28.5 36.5t-10.5 53t15.5 60.5t50.5 53.5l-66 179h-279l-67 -184h-93l258 667h89zM312 560l-111 -299h222z" />
    <glyph glyph-name="aogonek" unicode="&#x105;" horiz-adv-x="539" 
d="M243 225q-28 0 -49 -3t-34.5 -11.5t-20 -24.5t-6.5 -42q0 -41 23 -60t87 -19q51 0 80.5 10t44.5 30t19 50t4 70h-148zM396 47q-22 -26 -63 -40.5t-98 -14.5q-90 0 -139 34t-49 117q0 51 16.5 81.5t44 46.5t64 21t75.5 5h143q0 31 -1.5 53.5t-13 37.5t-36.5 22t-71 7
q-21 0 -43 -1.5t-40.5 -8.5t-30 -21.5t-11.5 -40.5h-82q0 45 16.5 73.5t45.5 45t68 22.5t84 6q76 0 117 -19t59 -48.5t20.5 -63.5t2.5 -64v-297q-30 -15 -48.5 -28.5t-28 -26.5t-13 -25t-3.5 -23q0 -35 22.5 -50.5t60.5 -15.5h9.5t16.5 2v-57q-17 -2 -30 -2.5t-18 -0.5
q-27 0 -51 7t-42 21.5t-28 36.5t-10 53q0 41 23 73t62 53v30z" />
    <glyph glyph-name="Cacute" unicode="&#x106;" horiz-adv-x="647" 
d="M312 736h-96l133 126h96zM584 179q0 -54 -16 -89.5t-46.5 -57.5t-75.5 -31t-103 -9q-67 0 -113.5 11.5t-76.5 33t-46.5 51.5t-24 68t-9 83t-1.5 95q0 75 4.5 137.5t30 107.5t81 70t156.5 25q58 0 103 -9t75.5 -31t46 -57.5t15.5 -89.5h-86q0 30 -7 50.5t-25.5 32.5
t-50 17.5t-80.5 5.5q-63 0 -98 -14t-52 -44.5t-20.5 -80t-3.5 -121.5t3.5 -121t20.5 -80t52 -44.5t98 -13.5q49 0 80.5 5t50 17t25.5 32.5t7 50.5h86z" />
    <glyph glyph-name="cacute" unicode="&#x107;" horiz-adv-x="523" 
d="M473 141q0 -47 -18 -76t-46.5 -45.5t-64.5 -22t-72 -5.5q-74 0 -117 19t-65 52.5t-28.5 79.5t-6.5 100t6.5 99.5t28.5 79t65 52t117 18.5q36 0 72 -5.5t64.5 -22t46.5 -45.5t18 -76h-81q0 25 -11 39.5t-28 21.5t-38 9t-41 2q-46 0 -72.5 -10t-40 -31t-17 -53.5
t-3.5 -77.5t3.5 -77.5t17 -54t40 -32t72.5 -10.5q20 0 41 2t38 9t28 21.5t11 39.5h81zM246 541h-96l133 126h96z" />
    <glyph glyph-name="Ccircumflex" unicode="&#x108;" horiz-adv-x="647" 
d="M415 735l-79 76l-78 -76h-91l131 127h76l131 -127h-90zM584 179q0 -54 -16 -89.5t-46.5 -57.5t-75.5 -31t-103 -9q-67 0 -113.5 11.5t-76.5 33t-46.5 51.5t-24 68t-9 83t-1.5 95q0 75 4.5 137.5t30 107.5t81 70t156.5 25q58 0 103 -9t75.5 -31t46 -57.5t15.5 -89.5h-86
q0 30 -7 50.5t-25.5 32.5t-50 17.5t-80.5 5.5q-63 0 -98 -14t-52 -44.5t-20.5 -80t-3.5 -121.5t3.5 -121t20.5 -80t52 -44.5t98 -13.5q49 0 80.5 5t50 17t25.5 32.5t7 50.5h86z" />
    <glyph glyph-name="ccircumflex" unicode="&#x109;" horiz-adv-x="523" 
d="M473 141q0 -47 -18 -76t-46.5 -45.5t-64.5 -22t-72 -5.5q-74 0 -117 19t-65 52.5t-28.5 79.5t-6.5 100t6.5 99.5t28.5 79t65 52t117 18.5q36 0 72 -5.5t64.5 -22t46.5 -45.5t18 -76h-81q0 25 -11 39.5t-28 21.5t-38 9t-41 2q-46 0 -72.5 -10t-40 -31t-17 -53.5
t-3.5 -77.5t3.5 -77.5t17 -54t40 -32t72.5 -10.5q20 0 41 2t38 9t28 21.5t11 39.5h81zM353 540l-79 76l-78 -76h-91l131 127h76l131 -127h-90z" />
    <glyph glyph-name="Cdotaccent" unicode="&#x10a;" horiz-adv-x="647" 
d="M584 179q0 -54 -16 -89.5t-46.5 -57.5t-75.5 -31t-103 -9q-67 0 -113.5 11.5t-76.5 33t-46.5 51.5t-24 68t-9 83t-1.5 95q0 75 4.5 137.5t30 107.5t81 70t156.5 25q58 0 103 -9t75.5 -31t46 -57.5t15.5 -89.5h-86q0 30 -7 50.5t-25.5 32.5t-50 17.5t-80.5 5.5
q-63 0 -98 -14t-52 -44.5t-20.5 -80t-3.5 -121.5t3.5 -121t20.5 -80t52 -44.5t98 -13.5q49 0 80.5 5t50 17t25.5 32.5t7 50.5h86zM385 814q0 -49 -50 -49q-48 0 -48 49q0 26 11.5 37t36.5 11t37.5 -11t12.5 -37z" />
    <glyph glyph-name="cdotaccent" unicode="&#x10b;" horiz-adv-x="523" 
d="M473 141q0 -47 -18 -76t-46.5 -45.5t-64.5 -22t-72 -5.5q-74 0 -117 19t-65 52.5t-28.5 79.5t-6.5 100t6.5 99.5t28.5 79t65 52t117 18.5q36 0 72 -5.5t64.5 -22t46.5 -45.5t18 -76h-81q0 25 -11 39.5t-28 21.5t-38 9t-41 2q-46 0 -72.5 -10t-40 -31t-17 -53.5
t-3.5 -77.5t3.5 -77.5t17 -54t40 -32t72.5 -10.5q20 0 41 2t38 9t28 21.5t11 39.5h81zM323 619q0 -49 -50 -49q-48 0 -48 49q0 26 11.5 37t36.5 11t37.5 -11t12.5 -37z" />
    <glyph glyph-name="Ccaron" unicode="&#x10c;" horiz-adv-x="647" 
d="M584 179q0 -54 -16 -89.5t-46.5 -57.5t-75.5 -31t-103 -9q-67 0 -113.5 11.5t-76.5 33t-46.5 51.5t-24 68t-9 83t-1.5 95q0 75 4.5 137.5t30 107.5t81 70t156.5 25q58 0 103 -9t75.5 -31t46 -57.5t15.5 -89.5h-86q0 30 -7 50.5t-25.5 32.5t-50 17.5t-80.5 5.5
q-63 0 -98 -14t-52 -44.5t-20.5 -80t-3.5 -121.5t3.5 -121t20.5 -80t52 -44.5t98 -13.5q49 0 80.5 5t50 17t25.5 32.5t7 50.5h86zM373 736h-76l-131 127h90l79 -76l78 76h91z" />
    <glyph glyph-name="ccaron" unicode="&#x10d;" horiz-adv-x="523" 
d="M473 141q0 -47 -18 -76t-46.5 -45.5t-64.5 -22t-72 -5.5q-74 0 -117 19t-65 52.5t-28.5 79.5t-6.5 100t6.5 99.5t28.5 79t65 52t117 18.5q36 0 72 -5.5t64.5 -22t46.5 -45.5t18 -76h-81q0 25 -11 39.5t-28 21.5t-38 9t-41 2q-46 0 -72.5 -10t-40 -31t-17 -53.5
t-3.5 -77.5t3.5 -77.5t17 -54t40 -32t72.5 -10.5q20 0 41 2t38 9t28 21.5t11 39.5h81zM312 540h-76l-131 127h90l79 -76l78 76h91z" />
    <glyph glyph-name="Dcaron" unicode="&#x10e;" horiz-adv-x="671" 
d="M599 333q0 -52 -2 -90t-6.5 -66.5t-12.5 -49.5t-20 -40q-17 -25 -38 -42t-49 -27t-64.5 -14t-82.5 -4h-240v667h240q92 0 146 -18.5t87 -68.5q12 -19 20.5 -40.5t13 -50t6.5 -66.5t2 -90zM510 333q0 45 -2 78.5t-6 57.5t-10 41t-15 29q-10 14 -23 23t-32 14.5t-44.5 7.5
t-59.5 2h-146v-505h146q34 0 59.5 2t44.5 7t32 14t23 23q9 12 15 29t10 41t6 57.5t2 78.5zM362 736h-76l-131 127h90l79 -76l78 76h91z" />
    <glyph glyph-name="dcaron" unicode="&#x10f;" horiz-adv-x="661" 
d="M408 0v49q-23 -26 -62 -41.5t-92 -15.5q-71 0 -110.5 20.5t-59.5 55t-24.5 79.5t-4.5 95q0 52 6 98t26 79.5t58.5 53t103.5 19.5q48 0 87.5 -11.5t65.5 -41.5v258h85v-697h-79zM403 241q0 51 -7 84.5t-23.5 52.5t-44.5 26.5t-69 7.5q-38 0 -61 -10t-36 -31t-17 -53
t-4 -77t4 -77t17 -53t36 -31t61 -10q41 0 69 7.5t44.5 26.5t23.5 52.5t7 84.5zM661 668q0 -21 -1.5 -37.5t-6.5 -31t-14 -28t-24 -28.5l-37 -37l-53 53q18 16 29 27t17 22t8.5 24.5t2.5 35.5v29h79v-29z" />
    <glyph glyph-name="Dcroat" unicode="&#x110;" horiz-adv-x="688" 
d="M616 333q0 -52 -2 -90t-6.5 -66.5t-12.5 -49.5t-20 -40q-17 -25 -38 -42t-49 -27t-64.5 -14t-82.5 -4h-240v296h-76v80h76v291h240q92 0 146 -18.5t87 -68.5q12 -19 20.5 -40.5t13 -50t6.5 -66.5t2 -90zM527 333q0 45 -2 78.5t-6 57.5t-10 41t-15 29q-10 14 -23 23
t-32 14.5t-44.5 7.5t-59.5 2h-146v-210h179v-80h-179v-215h146q34 0 59.5 2t44.5 7t32 14t23 23q9 12 15 29t10 41t6 57.5t2 78.5z" />
    <glyph glyph-name="dcroat" unicode="&#x111;" horiz-adv-x="557" 
d="M249 615h153v82h85v-82h85v-64h-85v-551h-79v49q-23 -26 -62 -41.5t-92 -15.5q-71 0 -110.5 20.5t-59.5 55t-24.5 79.5t-4.5 95q0 52 6 98t26 79.5t58.5 53t103.5 19.5q48 0 87.5 -11.5t65.5 -41.5v112h-153v64zM403 241q0 51 -7 84.5t-23.5 52.5t-44.5 26.5t-69 7.5
q-38 0 -61 -10t-36 -31t-17 -53t-4 -77t4 -77t17 -53t36 -31t61 -10q41 0 69 7.5t44.5 26.5t23.5 52.5t7 84.5z" />
    <glyph glyph-name="Emacron" unicode="&#x112;" horiz-adv-x="593" 
d="M84 0v667h438v-80h-349v-205h339v-80h-339v-222h349v-80h-438zM131 788v65h344v-65h-344z" />
    <glyph glyph-name="emacron" unicode="&#x113;" horiz-adv-x="538" 
d="M141 213q0 -38 4.5 -66t19 -46t40.5 -26.5t70 -8.5q20 0 41.5 2t39.5 10t29.5 22.5t11.5 40.5h80q0 -46 -18.5 -75t-47.5 -45.5t-65.5 -22.5t-72.5 -6q-71 0 -114 17.5t-66 49.5t-30.5 77.5t-7.5 101.5q0 57 7.5 104t30 80t65 51.5t112.5 18.5q76 0 119 -20.5t64 -57
t25.5 -88t4.5 -113.5h-342zM399 286q0 35 -4.5 60t-18.5 41.5t-39.5 24t-66.5 7.5q-39 0 -64 -8.5t-39.5 -25.5t-19.5 -42t-5 -57h257zM97 587v65h344v-65h-344z" />
    <glyph glyph-name="Ebreve" unicode="&#x114;" horiz-adv-x="593" 
d="M84 0v667h438v-80h-349v-205h339v-80h-339v-222h349v-80h-438zM446 867q0 -36 -7 -60.5t-24 -39.5t-44.5 -21.5t-67.5 -6.5q-41 0 -68 6.5t-44 21.5t-24 39.5t-7 60.5h63q0 -23 4.5 -36.5t14 -21t25 -9.5t36.5 -2t36.5 2t25 9.5t14 21t4.5 36.5h63z" />
    <glyph glyph-name="ebreve" unicode="&#x115;" horiz-adv-x="538" 
d="M141 213q0 -38 4.5 -66t19 -46t40.5 -26.5t70 -8.5q20 0 41.5 2t39.5 10t29.5 22.5t11.5 40.5h80q0 -46 -18.5 -75t-47.5 -45.5t-65.5 -22.5t-72.5 -6q-71 0 -114 17.5t-66 49.5t-30.5 77.5t-7.5 101.5q0 57 7.5 104t30 80t65 51.5t112.5 18.5q76 0 119 -20.5t64 -57
t25.5 -88t4.5 -113.5h-342zM399 286q0 35 -4.5 60t-18.5 41.5t-39.5 24t-66.5 7.5q-39 0 -64 -8.5t-39.5 -25.5t-19.5 -42t-5 -57h257zM412 667q0 -36 -7 -60.5t-24 -39.5t-44.5 -21.5t-67.5 -6.5q-41 0 -68 6.5t-44 21.5t-24 39.5t-7 60.5h63q0 -23 4.5 -36.5t14 -21
t25 -9.5t36.5 -2t36.5 2t25 9.5t14 21t4.5 36.5h63z" />
    <glyph glyph-name="Edotaccent" unicode="&#x116;" horiz-adv-x="593" 
d="M84 0v667h438v-80h-349v-205h339v-80h-339v-222h349v-80h-438zM352 814q0 -49 -50 -49q-48 0 -48 49q0 26 11.5 37t36.5 11t37.5 -11t12.5 -37z" />
    <glyph glyph-name="edotaccent" unicode="&#x117;" horiz-adv-x="538" 
d="M141 213q0 -38 4.5 -66t19 -46t40.5 -26.5t70 -8.5q20 0 41.5 2t39.5 10t29.5 22.5t11.5 40.5h80q0 -46 -18.5 -75t-47.5 -45.5t-65.5 -22.5t-72.5 -6q-71 0 -114 17.5t-66 49.5t-30.5 77.5t-7.5 101.5q0 57 7.5 104t30 80t65 51.5t112.5 18.5q76 0 119 -20.5t64 -57
t25.5 -88t4.5 -113.5h-342zM399 286q0 35 -4.5 60t-18.5 41.5t-39.5 24t-66.5 7.5q-39 0 -64 -8.5t-39.5 -25.5t-19.5 -42t-5 -57h257zM320 619q0 -49 -50 -49q-48 0 -48 49q0 26 11.5 37t36.5 11t37.5 -11t12.5 -37z" />
    <glyph glyph-name="Eogonek" unicode="&#x118;" horiz-adv-x="593" 
d="M522 0q-30 -15 -48.5 -28.5t-28 -26.5t-13 -25t-3.5 -23q0 -35 22.5 -50t60.5 -15h9.5t16.5 2v-58q-17 -2 -30 -2.5t-18 -0.5q-27 0 -51.5 7t-42.5 21.5t-28.5 36.5t-10.5 53q0 29 15 59t49 50h-337v667h438v-80h-349v-205h339v-80h-339v-222h349v-80v0z" />
    <glyph glyph-name="eogonek" unicode="&#x119;" horiz-adv-x="538" 
d="M399 286q0 35 -4.5 60t-18.5 41.5t-39.5 24t-66.5 7.5q-39 0 -64 -8.5t-39.5 -25.5t-19.5 -42t-5 -57h257zM272 -8q-71 0 -113.5 17.5t-65.5 49.5t-30.5 77.5t-7.5 101.5q0 57 7.5 104t30 80t65 51.5t112.5 18.5q76 0 119 -20.5t64 -57t25.5 -88t4.5 -113.5h-342
q0 -38 4.5 -66t19 -46t40.5 -26.5t70 -8.5q20 0 41.5 2t39.5 10t29.5 22.5t11.5 40.5h80q0 -41 -14 -67.5t-35.5 -43.5t-46 -29t-46 -25t-35.5 -31.5t-14 -47.5q0 -35 22.5 -50.5t60.5 -15.5h9.5t16.5 2v-57q-17 -2 -30 -2.5t-18 -0.5q-27 0 -51 7t-42 21.5t-28 36.5t-10 53
q0 41 18 65.5t38 35.5z" />
    <glyph glyph-name="Ecaron" unicode="&#x11a;" horiz-adv-x="593" 
d="M84 0v667h438v-80h-349v-205h339v-80h-339v-222h349v-80h-438zM342 736h-76l-131 127h90l79 -76l78 76h91z" />
    <glyph glyph-name="ecaron" unicode="&#x11b;" horiz-adv-x="538" 
d="M141 213q0 -38 4.5 -66t19 -46t40.5 -26.5t70 -8.5q20 0 41.5 2t39.5 10t29.5 22.5t11.5 40.5h80q0 -46 -18.5 -75t-47.5 -45.5t-65.5 -22.5t-72.5 -6q-71 0 -114 17.5t-66 49.5t-30.5 77.5t-7.5 101.5q0 57 7.5 104t30 80t65 51.5t112.5 18.5q76 0 119 -20.5t64 -57
t25.5 -88t4.5 -113.5h-342zM399 286q0 35 -4.5 60t-18.5 41.5t-39.5 24t-66.5 7.5q-39 0 -64 -8.5t-39.5 -25.5t-19.5 -42t-5 -57h257zM308 540h-76l-131 127h90l79 -76l78 76h91z" />
    <glyph glyph-name="Gcircumflex" unicode="&#x11c;" horiz-adv-x="670" 
d="M521 0v60q-38 -42 -90.5 -55t-109.5 -13q-93 0 -143.5 26t-74 72t-27.5 108.5t-4 134.5q0 76 4.5 139t30 108t81 69.5t157.5 24.5q57 0 103 -9t78.5 -30.5t50 -57.5t17.5 -90h-88q0 30 -8.5 50t-28.5 32.5t-52.5 17.5t-80.5 5q-66 0 -102 -15t-52 -47t-18.5 -81
t-2.5 -116q0 -68 3 -117t19 -80.5t51 -46.5t98 -15q66 0 101.5 16t52.5 45.5t20.5 72t3.5 96.5h-186v78h270v-382h-73zM411 735l-79 76l-78 -76h-91l131 127h76l131 -127h-90z" />
    <glyph glyph-name="gcircumflex" unicode="&#x11d;" horiz-adv-x="556" 
d="M486 49q0 -35 -0.5 -62t-3.5 -47q-6 -41 -28 -67t-52 -41t-66 -20.5t-70 -5.5q-38 0 -74 6.5t-64 23t-45 44.5t-17 70h84q0 -34 29.5 -51.5t83.5 -17.5q25 0 48 3.5t41.5 12.5t30.5 24t15 38t2.5 47t0.5 47q-25 -28 -64 -40.5t-85 -12.5q-69 0 -108 20t-59 54t-25 78.5
t-5 93.5q0 54 6.5 99t27 77.5t59 51t103.5 18.5q48 0 89 -12.5t67 -41.5v46h79v-435zM402 245q0 50 -7 83t-23.5 52t-44.5 26.5t-69 7.5q-38 0 -61 -9.5t-35.5 -30t-16.5 -52.5t-4 -77t4 -76.5t17 -51.5t35.5 -29t60.5 -9q41 0 68.5 7t44.5 25.5t24 50.5t7 83zM350 540
l-79 76l-78 -76h-91l131 127h76l131 -127h-90z" />
    <glyph glyph-name="Gbreve" unicode="&#x11e;" horiz-adv-x="670" 
d="M521 0v60q-38 -42 -90.5 -55t-109.5 -13q-93 0 -143.5 26t-74 72t-27.5 108.5t-4 134.5q0 76 4.5 139t30 108t81 69.5t157.5 24.5q57 0 103 -9t78.5 -30.5t50 -57.5t17.5 -90h-88q0 30 -8.5 50t-28.5 32.5t-52.5 17.5t-80.5 5q-66 0 -102 -15t-52 -47t-18.5 -81
t-2.5 -116q0 -68 3 -117t19 -80.5t51 -46.5t98 -15q66 0 101.5 16t52.5 45.5t20.5 72t3.5 96.5h-186v78h270v-382h-73zM475 867q0 -36 -7 -60.5t-24 -39.5t-44.5 -21.5t-67.5 -6.5q-41 0 -68 6.5t-44 21.5t-24 39.5t-7 60.5h63q0 -23 4.5 -36.5t14 -21t25 -9.5t36.5 -2
t36.5 2t25 9.5t14 21t4.5 36.5h63z" />
    <glyph glyph-name="gbreve" unicode="&#x11f;" horiz-adv-x="556" 
d="M486 49q0 -35 -0.5 -62t-3.5 -47q-6 -41 -28 -67t-52 -41t-66 -20.5t-70 -5.5q-38 0 -74 6.5t-64 23t-45 44.5t-17 70h84q0 -34 29.5 -51.5t83.5 -17.5q25 0 48 3.5t41.5 12.5t30.5 24t15 38t2.5 47t0.5 47q-25 -28 -64 -40.5t-85 -12.5q-69 0 -108 20t-59 54t-25 78.5
t-5 93.5q0 54 6.5 99t27 77.5t59 51t103.5 18.5q48 0 89 -12.5t67 -41.5v46h79v-435zM402 245q0 50 -7 83t-23.5 52t-44.5 26.5t-69 7.5q-38 0 -61 -9.5t-35.5 -30t-16.5 -52.5t-4 -77t4 -76.5t17 -51.5t35.5 -29t60.5 -9q41 0 68.5 7t44.5 25.5t24 50.5t7 83zM414 667
q0 -36 -7 -60.5t-24 -39.5t-44.5 -21.5t-67.5 -6.5q-41 0 -68 6.5t-44 21.5t-24 39.5t-7 60.5h63q0 -23 4.5 -36.5t14 -21t25 -9.5t36.5 -2t36.5 2t25 9.5t14 21t4.5 36.5h63z" />
    <glyph glyph-name="Gdotaccent" unicode="&#x120;" horiz-adv-x="670" 
d="M521 0v60q-38 -42 -90.5 -55t-109.5 -13q-93 0 -143.5 26t-74 72t-27.5 108.5t-4 134.5q0 76 4.5 139t30 108t81 69.5t157.5 24.5q57 0 103 -9t78.5 -30.5t50 -57.5t17.5 -90h-88q0 30 -8.5 50t-28.5 32.5t-52.5 17.5t-80.5 5q-66 0 -102 -15t-52 -47t-18.5 -81
t-2.5 -116q0 -68 3 -117t19 -80.5t51 -46.5t98 -15q66 0 101.5 16t52.5 45.5t20.5 72t3.5 96.5h-186v78h270v-382h-73zM381 814q0 -49 -50 -49q-48 0 -48 49q0 26 11.5 37t36.5 11t37.5 -11t12.5 -37z" />
    <glyph glyph-name="gdotaccent" unicode="&#x121;" horiz-adv-x="556" 
d="M486 49q0 -35 -0.5 -62t-3.5 -47q-6 -41 -28 -67t-52 -41t-66 -20.5t-70 -5.5q-38 0 -74 6.5t-64 23t-45 44.5t-17 70h84q0 -34 29.5 -51.5t83.5 -17.5q25 0 48 3.5t41.5 12.5t30.5 24t15 38t2.5 47t0.5 47q-25 -28 -64 -40.5t-85 -12.5q-69 0 -108 20t-59 54t-25 78.5
t-5 93.5q0 54 6.5 99t27 77.5t59 51t103.5 18.5q48 0 89 -12.5t67 -41.5v46h79v-435zM402 245q0 50 -7 83t-23.5 52t-44.5 26.5t-69 7.5q-38 0 -61 -9.5t-35.5 -30t-16.5 -52.5t-4 -77t4 -76.5t17 -51.5t35.5 -29t60.5 -9q41 0 68.5 7t44.5 25.5t24 50.5t7 83zM320 619
q0 -49 -50 -49q-48 0 -48 49q0 26 11.5 37t36.5 11t37.5 -11t12.5 -37z" />
    <glyph glyph-name="uni0122" unicode="&#x122;" horiz-adv-x="670" 
d="M521 0v60q-38 -42 -90.5 -55t-109.5 -13q-93 0 -143.5 26t-74 72t-27.5 108.5t-4 134.5q0 76 4.5 139t30 108t81 69.5t157.5 24.5q57 0 103 -9t78.5 -30.5t50 -57.5t17.5 -90h-88q0 30 -8.5 50t-28.5 32.5t-52.5 17.5t-80.5 5q-66 0 -102 -15t-52 -47t-18.5 -81
t-2.5 -116q0 -68 3 -117t19 -80.5t51 -46.5t98 -15q66 0 101.5 16t52.5 45.5t20.5 72t3.5 96.5h-186v78h270v-382h-73zM372 -70q0 -21 -1.5 -37.5t-6.5 -31t-14 -28t-24 -28.5l-37 -37l-53 53q18 16 29 27t17 22t8.5 24.5t2.5 35.5v29h79v-29z" />
    <glyph glyph-name="uni0123" unicode="&#x123;" horiz-adv-x="556" 
d="M486 49q0 -35 -0.5 -62t-3.5 -47q-6 -41 -28 -67t-52 -41t-66 -20.5t-70 -5.5q-38 0 -74 6.5t-64 23t-45 44.5t-17 70h84q0 -34 29.5 -51.5t83.5 -17.5q25 0 48 3.5t41.5 12.5t30.5 24t15 38t2.5 47t0.5 47q-25 -28 -64 -40.5t-85 -12.5q-69 0 -108 20t-59 54t-25 78.5
t-5 93.5q0 54 6.5 99t27 77.5t59 51t103.5 18.5q48 0 89 -12.5t67 -41.5v46h79v-435zM402 245q0 50 -7 83t-23.5 52t-44.5 26.5t-69 7.5q-38 0 -61 -9.5t-35.5 -30t-16.5 -52.5t-4 -77t4 -76.5t17 -51.5t35.5 -29t60.5 -9q41 0 68.5 7t44.5 25.5t24 50.5t7 83zM217 570
q0 21 1.5 37.5t6.5 31t14 28t24 28.5l37 37l53 -53q-18 -17 -29 -27.5t-17 -21.5t-8.5 -24.5t-2.5 -35.5v-29h-79v29z" />
    <glyph glyph-name="Hcircumflex" unicode="&#x124;" horiz-adv-x="657" 
d="M485 0v302h-312v-302h-89v667h89v-285h312v285h88v-667h-88zM407 735l-79 76l-78 -76h-91l131 127h76l131 -127h-90z" />
    <glyph glyph-name="hcircumflex" unicode="&#x125;" horiz-adv-x="543" 
d="M393 0v255q0 39 -0.5 68.5t-9.5 49.5t-31 30t-65 10q-51 0 -78 -16t-39 -42t-13.5 -60.5t-1.5 -71.5v-223h-85v697h85v-256q23 23 56 37t84 14q74 0 112 -20.5t53.5 -53.5t16.5 -73.5t1 -79.5v-265h-85zM191 753l-79 76l-78 -76h-91l131 127h76l131 -127h-90z" />
    <glyph glyph-name="Hbar" unicode="&#x126;" horiz-adv-x="657" 
d="M485 0v302h-312v-302h-89v486h-83v80h83v101h89v-101h312v101h88v-101h83v-80h-83v-486h-88zM485 382v104h-312v-104h312z" />
    <glyph glyph-name="hbar" unicode="&#x127;" horiz-adv-x="543" 
d="M155 441q23 23 56 37t84 14q74 0 112 -20.5t53.5 -53.5t16.5 -73.5t1 -79.5v-265h-85v255q0 39 -0.5 68.5t-9.5 49.5t-31 30t-65 10q-51 0 -78 -16t-39 -42t-13.5 -60.5t-1.5 -71.5v-223h-85v551h-85v64h85v82h85v-82h153v-64h-153v-110z" />
    <glyph glyph-name="Itilde" unicode="&#x128;" horiz-adv-x="257" 
d="M84 0v667h89v-667h-89zM323 802q-23 -12 -46 -25t-47 -20.5t-49 -6.5t-52 17q-13 8 -23.5 15t-22.5 10t-26 1.5t-33 -11.5l-59 -30l-31 58q22 12 45.5 24.5t48 20t49.5 6.5t52 -17q13 -8 23.5 -15t22.5 -10t25.5 -1.5t32.5 11.5l59 31z" />
    <glyph glyph-name="itilde" unicode="&#x129;" horiz-adv-x="225" 
d="M70 0v484h85v-484h-85zM307 609q-23 -12 -46 -25t-47 -20.5t-49 -6.5t-52 17q-13 8 -23.5 15t-22.5 10t-26 1.5t-33 -11.5l-59 -30l-31 58q22 12 45.5 24.5t48 20t49.5 6.5t52 -17q13 -8 23.5 -15t22.5 -10t25.5 -1.5t32.5 11.5l59 31z" />
    <glyph glyph-name="Imacron" unicode="&#x12a;" horiz-adv-x="257" 
d="M84 0v667h89v-667h-89zM-43 788v65h344v-65h-344z" />
    <glyph glyph-name="imacron" unicode="&#x12b;" horiz-adv-x="225" 
d="M70 0v484h85v-484h-85zM-59 587v65h344v-65h-344z" />
    <glyph glyph-name="Ibreve" unicode="&#x12c;" horiz-adv-x="257" 
d="M84 0v667h89v-667h-89zM272 867q0 -36 -7 -60.5t-24 -39.5t-44.5 -21.5t-67.5 -6.5q-41 0 -68 6.5t-44 21.5t-24 39.5t-7 60.5h63q0 -23 4.5 -36.5t14 -21t25 -9.5t36.5 -2t36.5 2t25 9.5t14 21t4.5 36.5h63z" />
    <glyph glyph-name="ibreve" unicode="&#x12d;" horiz-adv-x="225" 
d="M70 0v484h85v-484h-85zM256 667q0 -36 -7 -60.5t-24 -39.5t-44.5 -21.5t-67.5 -6.5q-41 0 -68 6.5t-44 21.5t-24 39.5t-7 60.5h63q0 -23 4.5 -36.5t14 -21t25 -9.5t36.5 -2t36.5 2t25 9.5t14 21t4.5 36.5h63z" />
    <glyph glyph-name="Iogonek" unicode="&#x12e;" horiz-adv-x="257" 
d="M84 667h89v-667q-30 -15 -48.5 -28.5t-28 -26.5t-13 -25t-3.5 -23q0 -35 22.5 -50t60.5 -15h9.5t16.5 2v-58q-17 -2 -30 -2.5t-18 -0.5q-27 0 -51.5 7t-42.5 21.5t-28.5 36.5t-10.5 53q0 29 16 61.5t60 61.5v653z" />
    <glyph glyph-name="iogonek" unicode="&#x12f;" horiz-adv-x="225" 
d="M162 624q0 -15 -5.5 -25t-13 -15.5t-16 -7.5t-15.5 -2t-15.5 2t-16 7.5t-13 15.5t-5.5 25t5.5 25t13 15.5t16 7.5t15.5 2t16 -2t16.5 -7.5t12.5 -15.5t5 -25zM155 0q-30 -15 -48.5 -28.5t-28 -26.5t-13 -25t-3.5 -23q0 -35 22.5 -50.5t60.5 -15.5h9.5t16.5 2v-57
q-17 -2 -30 -2.5t-18 -0.5q-27 0 -51 7t-42 21.5t-28 36.5t-10 53q0 41 21.5 71.5t56.5 51.5v470h85v-484z" />
    <glyph glyph-name="Idotaccent" unicode="&#x130;" horiz-adv-x="257" 
d="M84 0v667h89v-667h-89zM178 814q0 -49 -50 -49q-48 0 -48 49q0 26 11.5 37t36.5 11t37.5 -11t12.5 -37z" />
    <glyph glyph-name="dotlessi" unicode="&#x131;" horiz-adv-x="225" 
d="M70 0v484h85v-484h-85z" />
    <glyph glyph-name="Jcircumflex" unicode="&#x134;" horiz-adv-x="537" 
d="M459 213q0 -25 -0.5 -46t-3.5 -39q-7 -41 -26.5 -67.5t-47.5 -41.5t-62.5 -21t-71.5 -6q-50 0 -89 9t-67 30.5t-42.5 57.5t-14.5 90h85q0 -33 8 -54t23.5 -32.5t39.5 -15.5t57 -4q45 0 69.5 8t36.5 25t14.5 43t2.5 62v456h89v-454zM493 735l-79 76l-78 -76h-91l131 127
h76l131 -127h-90z" />
    <glyph glyph-name="jcircumflex" unicode="&#x135;" horiz-adv-x="225" 
d="M155 -37q0 -42 -13 -72t-36.5 -49t-56.5 -27.5t-73 -8.5q-37 0 -68 7t-53 23t-35 41.5t-14 62.5h83q0 -28 21 -45t66 -17q34 0 53 8t28 21.5t11 31t2 35.5v510h85v-521zM192 540l-79 76l-78 -76h-91l131 127h76l131 -127h-90z" />
    <glyph glyph-name="uni0136" unicode="&#x136;" horiz-adv-x="607" 
d="M470 0l-297 285v-285h-89v667h88v-288l307 288h121l-361 -332l363 -335h-132zM356 -70q0 -21 -1.5 -37.5t-6.5 -31t-14 -28t-24 -28.5l-37 -37l-53 53q18 16 29 27t17 22t8.5 24.5t2.5 35.5v29h79v-29z" />
    <glyph glyph-name="uni0137" unicode="&#x137;" horiz-adv-x="497" 
d="M380 0l-225 230v-230h-85v697h85v-404l224 191h117l-262 -222l262 -262h-116zM322 -70q0 -21 -1.5 -37.5t-6.5 -31t-14 -28t-24 -28.5l-37 -37l-53 53q18 16 29 27t17 22t8.5 24.5t2.5 35.5v29h79v-29z" />
    <glyph glyph-name="Lacute" unicode="&#x139;" horiz-adv-x="520" 
d="M84 0v667h89v-587h339v-80h-428zM179 736h-96l133 126h96z" />
    <glyph glyph-name="lacute" unicode="&#x13a;" horiz-adv-x="225" 
d="M70 0v697h85v-697h-85zM167 736h-96l133 126h96z" />
    <glyph glyph-name="uni013B" unicode="&#x13b;" horiz-adv-x="520" 
d="M84 0v667h89v-587h339v-80h-428zM337 -70q0 -21 -1.5 -37.5t-6.5 -31t-14 -28t-24 -28.5l-37 -37l-53 53q18 16 29 27t17 22t8.5 24.5t2.5 35.5v29h79v-29z" />
    <glyph glyph-name="uni013C" unicode="&#x13c;" horiz-adv-x="225" 
d="M70 0v697h85v-697h-85zM152 -70q0 -21 -1.5 -37.5t-6.5 -31t-14 -28t-24 -28.5l-37 -37l-53 53q18 16 29 27t17 22t8.5 24.5t2.5 35.5v29h79v-29z" />
    <glyph glyph-name="Lcaron" unicode="&#x13d;" horiz-adv-x="520" 
d="M84 0v667h89v-587h339v-80h-428zM375 638q0 -21 -1.5 -37.5t-6.5 -31t-14 -28t-24 -28.5l-37 -37l-53 53q18 16 29 27t17 22t8.5 24.5t2.5 35.5v29h79v-29z" />
    <glyph glyph-name="lcaron" unicode="&#x13e;" horiz-adv-x="330" 
d="M70 0v697h85v-697h-85zM330 668q0 -21 -1.5 -37.5t-6.5 -31t-14 -28t-24 -28.5l-37 -37l-53 53q18 16 29 27t17 22t8.5 24.5t2.5 35.5v29h79v-29z" />
    <glyph glyph-name="Ldot" unicode="&#x13f;" horiz-adv-x="520" 
d="M84 0v667h89v-587h339v-80h-428zM437 344q0 -49 -50 -49q-48 0 -48 49q0 26 11.5 37t36.5 11t37.5 -11t12.5 -37z" />
    <glyph glyph-name="ldot" unicode="&#x140;" horiz-adv-x="324" 
d="M70 0v697h85v-697h-85zM324 343q0 -49 -50 -49q-48 0 -48 49q0 26 11.5 37t36.5 11t37.5 -11t12.5 -37z" />
    <glyph glyph-name="Lslash" unicode="&#x141;" horiz-adv-x="565" 
d="M129 0v252l-55 -55l-56 55l111 111v304h89v-228l66 66l56 -55l-122 -121v-249h339v-80h-428z" />
    <glyph glyph-name="lslash" unicode="&#x142;" horiz-adv-x="257" 
d="M171 330v-330h-85v257l-45 -46l-55 53l100 102v331h85v-257l49 49l55 -54z" />
    <glyph glyph-name="Nacute" unicode="&#x143;" horiz-adv-x="655" 
d="M477 0l-307 520v-520h-86v667h93l308 -517v517h86v-667h-94zM309 736h-96l133 126h96z" />
    <glyph glyph-name="nacute" unicode="&#x144;" horiz-adv-x="543" 
d="M393 0v255q0 39 -0.5 68.5t-9.5 49.5t-31 30t-65 10q-51 0 -78 -16t-39 -42t-13.5 -60.5t-1.5 -71.5v-223h-85v484h77v-47q23 25 58.5 40t89.5 15q74 0 112 -20.5t53.5 -53.5t16.5 -73.5t1 -79.5v-265h-85zM256 541h-96l133 126h96z" />
    <glyph glyph-name="uni0145" unicode="&#x145;" horiz-adv-x="655" 
d="M477 0l-307 520v-520h-86v667h93l308 -517v517h86v-667h-94zM367 -70q0 -21 -1.5 -37.5t-6.5 -31t-14 -28t-24 -28.5l-37 -37l-53 53q18 16 29 27t17 22t8.5 24.5t2.5 35.5v29h79v-29z" />
    <glyph glyph-name="uni0146" unicode="&#x146;" horiz-adv-x="543" 
d="M393 0v255q0 39 -0.5 68.5t-9.5 49.5t-31 30t-65 10q-51 0 -78 -16t-39 -42t-13.5 -60.5t-1.5 -71.5v-223h-85v484h77v-47q23 25 58.5 40t89.5 15q74 0 112 -20.5t53.5 -53.5t16.5 -73.5t1 -79.5v-265h-85zM316 -70q0 -21 -1.5 -37.5t-6.5 -31t-14 -28t-24 -28.5l-37 -37
l-53 53q18 16 29 27t17 22t8.5 24.5t2.5 35.5v29h79v-29z" />
    <glyph glyph-name="Ncaron" unicode="&#x147;" horiz-adv-x="655" 
d="M477 0l-307 520v-520h-86v667h93l308 -517v517h86v-667h-94zM366 736h-76l-131 127h90l79 -76l78 76h91z" />
    <glyph glyph-name="ncaron" unicode="&#x148;" horiz-adv-x="543" 
d="M393 0v255q0 39 -0.5 68.5t-9.5 49.5t-31 30t-65 10q-51 0 -78 -16t-39 -42t-13.5 -60.5t-1.5 -71.5v-223h-85v484h77v-47q23 25 58.5 40t89.5 15q74 0 112 -20.5t53.5 -53.5t16.5 -73.5t1 -79.5v-265h-85zM312 540h-76l-131 127h90l79 -76l78 76h91z" />
    <glyph glyph-name="Eng" unicode="&#x14a;" horiz-adv-x="655" 
d="M486 0l-316 520v-520h-86v667h93l308 -507v507h86v-667v-39q0 -42 -13 -71.5t-37.5 -48t-59.5 -27t-79 -8.5h-11t-19 0.5t-22 1.5t-20 2v71q7 -1 18 -1.5l22 -1t20 -0.5h12q39 0 60 8t30.5 21t11.5 30t2 35v28z" />
    <glyph glyph-name="eng" unicode="&#x14b;" horiz-adv-x="543" 
d="M299 -194q-5 0 -19.5 0.5t-31.5 2.5v71q12 -2 29 -2h22q34 0 53 8t28 21.5t11 31t2 35.5v281q0 39 -0.5 68.5t-9.5 49.5t-31 30t-65 10q-51 0 -78 -16t-39 -42t-13.5 -60.5t-1.5 -71.5v-223h-85v484h77v-47q23 25 58.5 40t89.5 15q74 0 112 -20.5t53.5 -53.5t16.5 -73.5
t1 -79.5v-302q0 -42 -13 -72t-36.5 -49t-56.5 -27.5t-73 -8.5z" />
    <glyph glyph-name="Omacron" unicode="&#x14c;" horiz-adv-x="674" 
d="M602 335q0 -78 -5 -141.5t-30.5 -108t-79 -69t-150.5 -24.5q-99 0 -153 25.5t-79 70.5t-29 108t-4 138t4 137.5t28.5 107.5t78.5 70t153 25t153 -24.5t79 -69.5t29.5 -107.5t4.5 -137.5zM513 334q0 48 -1.5 81.5t-5 57t-9 39.5t-13.5 29q-18 28 -51.5 40t-96.5 12
t-97 -12.5t-51 -40.5q-8 -13 -13.5 -29t-8.5 -39.5t-4.5 -57t-1.5 -81.5t1.5 -81.5t5 -57t9 -39.5t13.5 -29q17 -28 51 -40t97 -12q62 0 95.5 12t51.5 40q8 13 13.5 29t9 40t5 57.5t1.5 81.5zM164 788v65h344v-65h-344z" />
    <glyph glyph-name="omacron" unicode="&#x14d;" horiz-adv-x="555" 
d="M500 242q0 -74 -10 -120.5t-39 -75.5t-71.5 -41.5t-101.5 -12.5q-60 0 -102.5 12.5t-71.5 41.5t-39 75.5t-10 120.5t10 120.5t39 75.5t71.5 41.5t102.5 12.5q59 0 101.5 -12.5t71.5 -41.5t39 -75.5t10 -120.5zM414 242q0 45 -3.5 77.5t-17 54t-40.5 31.5t-75 10
t-75.5 -10.5t-41 -32t-17 -54t-3.5 -76.5t3.5 -76.5t17 -54t41 -32t75.5 -10.5t75.5 10.5t41 32t16.5 54t3 76.5zM106 587v65h344v-65h-344z" />
    <glyph glyph-name="Obreve" unicode="&#x14e;" horiz-adv-x="674" 
d="M602 335q0 -78 -5 -141.5t-30.5 -108t-79 -69t-150.5 -24.5q-99 0 -153 25.5t-79 70.5t-29 108t-4 138t4 137.5t28.5 107.5t78.5 70t153 25t153 -24.5t79 -69.5t29.5 -107.5t4.5 -137.5zM513 334q0 48 -1.5 81.5t-5 57t-9 39.5t-13.5 29q-18 28 -51.5 40t-96.5 12
t-97 -12.5t-51 -40.5q-8 -13 -13.5 -29t-8.5 -39.5t-4.5 -57t-1.5 -81.5t1.5 -81.5t5 -57t9 -39.5t13.5 -29q17 -28 51 -40t97 -12q62 0 95.5 12t51.5 40q8 13 13.5 29t9 40t5 57.5t1.5 81.5zM479 867q0 -36 -7 -60.5t-24 -39.5t-44.5 -21.5t-67.5 -6.5q-41 0 -68 6.5
t-44 21.5t-24 39.5t-7 60.5h63q0 -23 4.5 -36.5t14 -21t25 -9.5t36.5 -2t36.5 2t25 9.5t14 21t4.5 36.5h63z" />
    <glyph glyph-name="obreve" unicode="&#x14f;" horiz-adv-x="555" 
d="M500 242q0 -74 -10 -120.5t-39 -75.5t-71.5 -41.5t-101.5 -12.5q-60 0 -102.5 12.5t-71.5 41.5t-39 75.5t-10 120.5t10 120.5t39 75.5t71.5 41.5t102.5 12.5q59 0 101.5 -12.5t71.5 -41.5t39 -75.5t10 -120.5zM414 242q0 45 -3.5 77.5t-17 54t-40.5 31.5t-75 10
t-75.5 -10.5t-41 -32t-17 -54t-3.5 -76.5t3.5 -76.5t17 -54t41 -32t75.5 -10.5t75.5 10.5t41 32t16.5 54t3 76.5zM421 667q0 -36 -7 -60.5t-24 -39.5t-44.5 -21.5t-67.5 -6.5q-41 0 -68 6.5t-44 21.5t-24 39.5t-7 60.5h63q0 -23 4.5 -36.5t14 -21t25 -9.5t36.5 -2t36.5 2
t25 9.5t14 21t4.5 36.5h63z" />
    <glyph glyph-name="Ohungarumlaut" unicode="&#x150;" horiz-adv-x="674" 
d="M602 335q0 -78 -5 -141.5t-30.5 -108t-79 -69t-150.5 -24.5q-99 0 -153 25.5t-79 70.5t-29 108t-4 138t4 137.5t28.5 107.5t78.5 70t153 25t153 -24.5t79 -69.5t29.5 -107.5t4.5 -137.5zM513 334q0 48 -1.5 81.5t-5 57t-9 39.5t-13.5 29q-18 28 -51.5 40t-96.5 12
t-97 -12.5t-51 -40.5q-8 -13 -13.5 -29t-8.5 -39.5t-4.5 -57t-1.5 -81.5t1.5 -81.5t5 -57t9 -39.5t13.5 -29q17 -28 51 -40t97 -12q62 0 95.5 12t51.5 40q8 13 13.5 29t9 40t5 57.5t1.5 81.5zM458 736h-90l127 126h90zM279 736h-90l127 126h90z" />
    <glyph glyph-name="ohungarumlaut" unicode="&#x151;" horiz-adv-x="555" 
d="M500 242q0 -74 -10 -120.5t-39 -75.5t-71.5 -41.5t-101.5 -12.5q-60 0 -102.5 12.5t-71.5 41.5t-39 75.5t-10 120.5t10 120.5t39 75.5t71.5 41.5t102.5 12.5q59 0 101.5 -12.5t71.5 -41.5t39 -75.5t10 -120.5zM414 242q0 45 -3.5 77.5t-17 54t-40.5 31.5t-75 10
t-75.5 -10.5t-41 -32t-17 -54t-3.5 -76.5t3.5 -76.5t17 -54t41 -32t75.5 -10.5t75.5 10.5t41 32t16.5 54t3 76.5zM385 541h-90l127 126h90zM206 541h-90l127 126h90z" />
    <glyph glyph-name="OE" unicode="&#x152;" horiz-adv-x="917" 
d="M347 0q-47 0 -83.5 4t-64.5 14t-49 27t-37 42q-12 19 -20 40t-12.5 49.5t-6.5 66.5t-2 90q0 51 2 89t6.5 67t13 50.5t20.5 40.5q16 25 37.5 42t49.5 27t64 14t82 4h499v-80h-308v-205h298v-80h-298v-222h308v-80h-499zM450 587h-97q-69 0 -104.5 -10t-54.5 -38
q-9 -12 -15 -29t-10 -41t-6 -57.5t-2 -78.5t2 -78.5t6 -57.5t10.5 -41t14.5 -29q21 -31 60 -39t99 -8h97v507z" />
    <glyph glyph-name="oe" unicode="&#x153;" horiz-adv-x="897" 
d="M500 213q0 -38 4.5 -66t19 -46t40.5 -26.5t70 -8.5q20 0 41.5 2t39.5 10t29.5 22.5t11.5 40.5h80q0 -46 -18 -75t-47.5 -45.5t-66 -22.5t-72.5 -6q-65 0 -110 19t-66 55q-22 -36 -68 -55t-110 -19q-60 0 -102.5 12.5t-71.5 41.5t-39 75.5t-10 120.5t10 120.5t39 75.5
t72 41.5t103 12.5q64 0 109.5 -19t67.5 -55q43 74 173 74q76 0 119 -20.5t64 -57t25.5 -88t4.5 -113.5h-342zM758 286q0 35 -4.5 60t-18.5 41.5t-39.5 24t-66.5 7.5q-40 0 -65 -8.5t-39 -25.5t-19 -42t-5 -57h257zM414 241q0 45 -3.5 78t-17 54t-40.5 31.5t-75 10.5
t-75.5 -10.5t-41 -32t-17 -54t-3.5 -76.5t3.5 -76.5t17 -54t41 -32t75.5 -10.5t75.5 10.5t41 31.5t16.5 53.5t3 76.5z" />
    <glyph glyph-name="Racute" unicode="&#x154;" horiz-adv-x="653" 
d="M487 0v168q0 42 -3 65.5t-22 37.5t-55 15.5t-99 1.5h-135v-288h-89v667h227q58 0 106.5 -3.5t83 -21.5t53.5 -56.5t19 -108.5q0 -59 -16.5 -95t-53.5 -51q30 -9 44.5 -28.5t20 -43t5.5 -48.5v-46v-165h-86zM486 476q0 31 -6 50.5t-15 30.5t-20.5 17t-29.5 9t-43.5 3.5
t-62.5 0.5h-136v-218h142h73.5t59.5 11q16 8 27 29.5t11 66.5zM310 736h-96l133 126h96z" />
    <glyph glyph-name="racute" unicode="&#x155;" horiz-adv-x="450" 
d="M358 345q0 41 -19 55.5t-68 14.5q-47 0 -70.5 -20t-34 -50.5t-11 -66.5t-0.5 -68v-210h-85v484h80v-47q46 55 137 55q75 0 114 -35.5t39 -111.5h-82zM236 541h-96l133 126h96z" />
    <glyph glyph-name="uni0156" unicode="&#x156;" horiz-adv-x="653" 
d="M487 0v168q0 42 -3 65.5t-22 37.5t-55 15.5t-99 1.5h-135v-288h-89v667h227q58 0 106.5 -3.5t83 -21.5t53.5 -56.5t19 -108.5q0 -59 -16.5 -95t-53.5 -51q30 -9 44.5 -28.5t20 -43t5.5 -48.5v-46v-165h-86zM486 476q0 31 -6 50.5t-15 30.5t-20.5 17t-29.5 9t-43.5 3.5
t-62.5 0.5h-136v-218h142h73.5t59.5 11q16 8 27 29.5t11 66.5zM368 -70q0 -21 -1.5 -37.5t-6.5 -31t-14 -28t-24 -28.5l-37 -37l-53 53q18 16 29 27t17 22t8.5 24.5t2.5 35.5v29h79v-29z" />
    <glyph glyph-name="uni0157" unicode="&#x157;" horiz-adv-x="450" 
d="M358 345q0 41 -19 55.5t-68 14.5q-47 0 -70.5 -20t-34 -50.5t-11 -66.5t-0.5 -68v-210h-85v484h80v-47q46 55 137 55q75 0 114 -35.5t39 -111.5h-82zM155 -70q0 -21 -1.5 -37.5t-6.5 -31t-14 -28t-24 -28.5l-37 -37l-53 53q18 16 29 27t17 22t8.5 24.5t2.5 35.5v29h79
v-29z" />
    <glyph glyph-name="Rcaron" unicode="&#x158;" horiz-adv-x="653" 
d="M487 0v168q0 42 -3 65.5t-22 37.5t-55 15.5t-99 1.5h-135v-288h-89v667h227q58 0 106.5 -3.5t83 -21.5t53.5 -56.5t19 -108.5q0 -59 -16.5 -95t-53.5 -51q30 -9 44.5 -28.5t20 -43t5.5 -48.5v-46v-165h-86zM486 476q0 31 -6 50.5t-15 30.5t-20.5 17t-29.5 9t-43.5 3.5
t-62.5 0.5h-136v-218h142h73.5t59.5 11q16 8 27 29.5t11 66.5zM349 736h-76l-131 127h90l79 -76l78 76h91z" />
    <glyph glyph-name="rcaron" unicode="&#x159;" horiz-adv-x="450" 
d="M358 345q0 41 -19 55.5t-68 14.5q-47 0 -70.5 -20t-34 -50.5t-11 -66.5t-0.5 -68v-210h-85v484h80v-47q46 55 137 55q75 0 114 -35.5t39 -111.5h-82zM294 540h-76l-131 127h90l79 -76l78 76h91z" />
    <glyph glyph-name="Sacute" unicode="&#x15a;" horiz-adv-x="647" 
d="M583 203q0 -110 -62.5 -160.5t-197.5 -50.5q-62 0 -110.5 9t-81.5 30.5t-50 57.5t-17 90h88q0 -30 8 -50.5t28 -33t53.5 -17.5t83.5 -5q52 0 84.5 7t51 22.5t25.5 39t7 56.5q0 36 -9 55.5t-26 28.5t-41.5 11t-55.5 4q-35 1 -70.5 1.5t-68.5 4t-61.5 12.5t-50 29t-34 52
t-12.5 82q0 56 15.5 93.5t47 60.5t80 32.5t114.5 9.5q62 0 109.5 -9t80 -30.5t49 -57.5t16.5 -90h-86q0 37 -11.5 58t-33.5 31.5t-54 13.5t-72 3q-53 0 -85.5 -5.5t-50.5 -19t-24 -35.5t-6 -54q0 -35 10 -53.5t27.5 -27.5t42 -11t53.5 -3q34 -2 69.5 -2t68.5 -3.5t62 -12.5
t50.5 -28.5t34 -52t12.5 -82.5zM305 736h-96l133 126h96z" />
    <glyph glyph-name="sacute" unicode="&#x15b;" horiz-adv-x="513" 
d="M384 343q0 42 -24 58.5t-86 17.5q-39 1 -64 -3t-39.5 -12.5t-20.5 -21t-6 -28.5q0 -28 7.5 -42t21 -20t32.5 -6.5t42 -1.5q41 -2 79.5 -3.5t68.5 -14t48 -41.5t18 -86q0 -43 -15 -71.5t-42.5 -45.5t-67.5 -23.5t-89 -6.5q-48 0 -84.5 7.5t-61.5 24.5t-38 45.5t-13 71.5
h79q0 -20 5.5 -34.5t18.5 -23.5t35.5 -13.5t57.5 -4.5q34 0 58.5 2.5t40.5 11t23.5 24t7.5 42.5q0 22 -6.5 34t-20.5 17.5t-35 7t-49 2.5q-40 1 -77 3.5t-66 15.5t-46 41t-17 82q0 43 15 71t43 44.5t67.5 22.5t88.5 6q44 0 79.5 -7.5t60 -24.5t37.5 -45.5t13 -71.5h-79z
M238 541h-96l133 126h96z" />
    <glyph glyph-name="Scircumflex" unicode="&#x15c;" horiz-adv-x="647" 
d="M583 203q0 -110 -62.5 -160.5t-197.5 -50.5q-62 0 -110.5 9t-81.5 30.5t-50 57.5t-17 90h88q0 -30 8 -50.5t28 -33t53.5 -17.5t83.5 -5q52 0 84.5 7t51 22.5t25.5 39t7 56.5q0 36 -9 55.5t-26 28.5t-41.5 11t-55.5 4q-35 1 -70.5 1.5t-68.5 4t-61.5 12.5t-50 29t-34 52
t-12.5 82q0 56 15.5 93.5t47 60.5t80 32.5t114.5 9.5q62 0 109.5 -9t80 -30.5t49 -57.5t16.5 -90h-86q0 37 -11.5 58t-33.5 31.5t-54 13.5t-72 3q-53 0 -85.5 -5.5t-50.5 -19t-24 -35.5t-6 -54q0 -35 10 -53.5t27.5 -27.5t42 -11t53.5 -3q34 -2 69.5 -2t68.5 -3.5t62 -12.5
t50.5 -28.5t34 -52t12.5 -82.5zM403 735l-79 76l-78 -76h-91l131 127h76l131 -127h-90z" />
    <glyph glyph-name="scircumflex" unicode="&#x15d;" horiz-adv-x="513" 
d="M384 343q0 42 -24 58.5t-86 17.5q-39 1 -64 -3t-39.5 -12.5t-20.5 -21t-6 -28.5q0 -28 7.5 -42t21 -20t32.5 -6.5t42 -1.5q41 -2 79.5 -3.5t68.5 -14t48 -41.5t18 -86q0 -43 -15 -71.5t-42.5 -45.5t-67.5 -23.5t-89 -6.5q-48 0 -84.5 7.5t-61.5 24.5t-38 45.5t-13 71.5
h79q0 -20 5.5 -34.5t18.5 -23.5t35.5 -13.5t57.5 -4.5q34 0 58.5 2.5t40.5 11t23.5 24t7.5 42.5q0 22 -6.5 34t-20.5 17.5t-35 7t-49 2.5q-40 1 -77 3.5t-66 15.5t-46 41t-17 82q0 43 15 71t43 44.5t67.5 22.5t88.5 6q44 0 79.5 -7.5t60 -24.5t37.5 -45.5t13 -71.5h-79z
M347 540l-79 76l-78 -76h-91l131 127h76l131 -127h-90z" />
    <glyph glyph-name="Scedilla" unicode="&#x15e;" horiz-adv-x="647" 
d="M407 -110q0 -38 -19 -58.5t-65 -20.5q-43 0 -63.5 16t-20.5 54h47q0 -17 8.5 -22.5t28.5 -5.5q23 0 28.5 9t5.5 26q0 18 -10 25t-25 8q-6 1 -13.5 1h-16.5v71q-54 1 -96.5 11.5t-72 32.5t-44.5 56.5t-15 85.5h88q0 -30 8 -50.5t28 -33t53.5 -17.5t83.5 -5q52 0 84.5 7
t51 22.5t25.5 39t7 56.5q0 36 -9 55.5t-26 28.5t-41.5 11t-55.5 4q-35 1 -70.5 1.5t-68.5 4t-61.5 12.5t-50 29t-34 52t-12.5 82q0 56 15.5 93.5t47 60.5t80 32.5t114.5 9.5q62 0 109.5 -9t80 -30.5t49 -57.5t16.5 -90h-86q0 37 -11.5 58t-33.5 31.5t-54 13.5t-72 3
q-53 0 -85.5 -5.5t-50.5 -19t-24 -35.5t-6 -54q0 -35 10 -53.5t27.5 -27.5t42 -11t53.5 -3q34 -2 69.5 -2t68.5 -3.5t62 -12.5t50.5 -28.5t34 -52t12.5 -82.5q0 -106 -58.5 -156.5t-182.5 -54.5v-33q33 -1 49 -19.5t16 -49.5z" />
    <glyph glyph-name="scedilla" unicode="&#x15f;" horiz-adv-x="513" 
d="M348 -110q0 -38 -19 -58.5t-65 -20.5q-43 0 -63.5 16t-20.5 54h47q0 -17 8.5 -22.5t28.5 -5.5q23 0 28.5 9t5.5 26q0 18 -10 25t-25 8q-6 1 -13.5 1h-16.5v70q-44 1 -78.5 9t-57.5 25.5t-35 45.5t-12 69h79q0 -20 5.5 -34.5t18.5 -23.5t35.5 -13.5t57.5 -4.5
q34 0 58.5 2.5t40.5 11t23.5 24t7.5 42.5q0 22 -6.5 34t-20.5 17.5t-35 7t-49 2.5q-40 1 -77 3.5t-66 15.5t-46 41t-17 82q0 43 15 71t43 44.5t67.5 22.5t88.5 6q44 0 79.5 -7.5t60 -24.5t37.5 -45.5t13 -71.5h-79q0 42 -24 58.5t-86 17.5q-39 1 -64 -3t-39.5 -12.5
t-20.5 -21t-6 -28.5q0 -28 7.5 -42t21 -20t32.5 -6.5t42 -1.5q41 -2 79.5 -3.5t68.5 -14t48 -41.5t18 -86q0 -39 -12 -66t-35 -44t-56 -25.5t-75 -10.5v-34q33 -1 49 -19.5t16 -49.5z" />
    <glyph glyph-name="Scaron" unicode="&#x160;" horiz-adv-x="647" 
d="M583 203q0 -110 -62.5 -160.5t-197.5 -50.5q-62 0 -110.5 9t-81.5 30.5t-50 57.5t-17 90h88q0 -30 8 -50.5t28 -33t53.5 -17.5t83.5 -5q52 0 84.5 7t51 22.5t25.5 39t7 56.5q0 36 -9 55.5t-26 28.5t-41.5 11t-55.5 4q-35 1 -70.5 1.5t-68.5 4t-61.5 12.5t-50 29t-34 52
t-12.5 82q0 56 15.5 93.5t47 60.5t80 32.5t114.5 9.5q62 0 109.5 -9t80 -30.5t49 -57.5t16.5 -90h-86q0 37 -11.5 58t-33.5 31.5t-54 13.5t-72 3q-53 0 -85.5 -5.5t-50.5 -19t-24 -35.5t-6 -54q0 -35 10 -53.5t27.5 -27.5t42 -11t53.5 -3q34 -2 69.5 -2t68.5 -3.5t62 -12.5
t50.5 -28.5t34 -52t12.5 -82.5zM362 726h-76l-131 127h90l79 -76l78 76h91z" />
    <glyph glyph-name="scaron" unicode="&#x161;" horiz-adv-x="513" 
d="M384 343q0 42 -24 58.5t-86 17.5q-39 1 -64 -3t-39.5 -12.5t-20.5 -21t-6 -28.5q0 -28 7.5 -42t21 -20t32.5 -6.5t42 -1.5q41 -2 79.5 -3.5t68.5 -14t48 -41.5t18 -86q0 -43 -15 -71.5t-42.5 -45.5t-67.5 -23.5t-89 -6.5q-48 0 -84.5 7.5t-61.5 24.5t-38 45.5t-13 71.5
h79q0 -20 5.5 -34.5t18.5 -23.5t35.5 -13.5t57.5 -4.5q34 0 58.5 2.5t40.5 11t23.5 24t7.5 42.5q0 22 -6.5 34t-20.5 17.5t-35 7t-49 2.5q-40 1 -77 3.5t-66 15.5t-46 41t-17 82q0 43 15 71t43 44.5t67.5 22.5t88.5 6q44 0 79.5 -7.5t60 -24.5t37.5 -45.5t13 -71.5h-79z
M306 540h-76l-131 127h90l79 -76l78 76h91z" />
    <glyph glyph-name="uni0162" unicode="&#x162;" horiz-adv-x="541" 
d="M315 588v-588h-89v588h-208v79h505v-79h-208zM310 -70q0 -21 -1.5 -37.5t-6.5 -31t-14 -28t-24 -28.5l-37 -37l-53 53q18 16 29 27t17 22t8.5 24.5t2.5 35.5v29h79v-29z" />
    <glyph glyph-name="uni0163" unicode="&#x163;" horiz-adv-x="467" 
d="M447 141q0 -42 -13 -70.5t-36 -46t-54 -25t-68 -7.5q-82 0 -124.5 36t-42.5 115v268h-80v73h80v183h85v-183h214v-73h-214v-268q0 -43 19.5 -60.5t66.5 -17.5t67.5 18t20.5 58h79zM321 -70q0 -21 -1.5 -37.5t-6.5 -31t-14 -28t-24 -28.5l-37 -37l-53 53q18 16 29 27
t17 22t8.5 24.5t2.5 35.5v29h79v-29z" />
    <glyph glyph-name="Tcaron" unicode="&#x164;" horiz-adv-x="541" 
d="M315 588v-588h-89v588h-208v79h505v-79h-208zM309 736h-76l-131 127h90l79 -76l78 76h91z" />
    <glyph glyph-name="tcaron" unicode="&#x165;" horiz-adv-x="549" 
d="M447 141q0 -42 -13 -70.5t-36 -46t-54 -25t-68 -7.5q-82 0 -124.5 36t-42.5 115v268h-80v73h80v183h85v-183h214v-73h-214v-268q0 -43 19.5 -60.5t66.5 -17.5t67.5 18t20.5 58h79zM549 668q0 -21 -1.5 -37.5t-6.5 -31t-14 -28t-24 -28.5l-37 -37l-53 53q18 16 29 27
t17 22t8.5 24.5t2.5 35.5v29h79v-29z" />
    <glyph glyph-name="Tbar" unicode="&#x166;" horiz-adv-x="541" 
d="M315 305v-305h-89v305h-115v77h115v206h-208v79h505v-79h-208v-206h115v-77h-115z" />
    <glyph glyph-name="tbar" unicode="&#x167;" horiz-adv-x="467" 
d="M194 213v-70q0 -43 19.5 -60.5t66.5 -17.5t67.5 18t20.5 58h79q0 -42 -13 -70.5t-36 -46t-54 -25t-68 -7.5q-82 0 -124.5 36t-42.5 115v70h-80v73h80v125h-80v73h80v183h85v-183h214v-73h-214v-125h214v-73h-214z" />
    <glyph glyph-name="Utilde" unicode="&#x168;" horiz-adv-x="652" 
d="M574 335v-87.5t-2 -58.5q-3 -47 -16 -81q-24 -61 -83 -88.5t-147 -27.5t-147 27.5t-83 88.5q-13 34 -16 81q-2 24 -2 58.5v87.5v332h89v-332q0 -73 1 -122.5t15 -79.5q14 -29 47.5 -44.5t95.5 -15.5q63 0 96.5 15t47.5 44t15 79t1 124v332h88v-332zM520 802
q-23 -12 -46 -25t-47 -20.5t-49 -6.5t-52 17q-13 8 -23.5 15t-22.5 10t-26 1.5t-33 -11.5l-59 -30l-31 58q22 12 45.5 24.5t48 20t49.5 6.5t52 -17q13 -8 23.5 -15t22.5 -10t25.5 -1.5t32.5 11.5l59 31z" />
    <glyph glyph-name="utilde" unicode="&#x169;" horiz-adv-x="543" 
d="M394 0v48q-23 -25 -58.5 -40.5t-89.5 -15.5q-71 0 -108 20.5t-53.5 53t-18 73t-1.5 81.5v264h86v-255v-68.5t9 -49.5t31 -30t66 -10q51 0 78 16t38.5 42t13 60.5t1.5 71.5v223h85v-484h-79zM469 609q-23 -12 -46 -25t-47 -20.5t-49 -6.5t-52 17q-13 8 -23.5 15t-22.5 10
t-26 1.5t-33 -11.5l-59 -30l-31 58q22 12 45.5 24.5t48 20t49.5 6.5t52 -17q13 -8 23.5 -15t22.5 -10t25.5 -1.5t32.5 11.5l59 31z" />
    <glyph glyph-name="Umacron" unicode="&#x16a;" horiz-adv-x="652" 
d="M574 335v-87.5t-2 -58.5q-3 -47 -16 -81q-24 -61 -83 -88.5t-147 -27.5t-147 27.5t-83 88.5q-13 34 -16 81q-2 24 -2 58.5v87.5v332h89v-332q0 -73 1 -122.5t15 -79.5q14 -29 47.5 -44.5t95.5 -15.5q63 0 96.5 15t47.5 44t15 79t1 124v332h88v-332zM154 788v65h344v-65
h-344z" />
    <glyph glyph-name="umacron" unicode="&#x16b;" horiz-adv-x="543" 
d="M394 0v48q-23 -25 -58.5 -40.5t-89.5 -15.5q-71 0 -108 20.5t-53.5 53t-18 73t-1.5 81.5v264h86v-255v-68.5t9 -49.5t31 -30t66 -10q51 0 78 16t38.5 42t13 60.5t1.5 71.5v223h85v-484h-79zM102 587v65h344v-65h-344z" />
    <glyph glyph-name="Ubreve" unicode="&#x16c;" horiz-adv-x="652" 
d="M574 335v-87.5t-2 -58.5q-3 -47 -16 -81q-24 -61 -83 -88.5t-147 -27.5t-147 27.5t-83 88.5q-13 34 -16 81q-2 24 -2 58.5v87.5v332h89v-332q0 -73 1 -122.5t15 -79.5q14 -29 47.5 -44.5t95.5 -15.5q63 0 96.5 15t47.5 44t15 79t1 124v332h88v-332zM469 867
q0 -36 -7 -60.5t-24 -39.5t-44.5 -21.5t-67.5 -6.5q-41 0 -68 6.5t-44 21.5t-24 39.5t-7 60.5h63q0 -23 4.5 -36.5t14 -21t25 -9.5t36.5 -2t36.5 2t25 9.5t14 21t4.5 36.5h63z" />
    <glyph glyph-name="ubreve" unicode="&#x16d;" horiz-adv-x="543" 
d="M394 0v48q-23 -25 -58.5 -40.5t-89.5 -15.5q-71 0 -108 20.5t-53.5 53t-18 73t-1.5 81.5v264h86v-255v-68.5t9 -49.5t31 -30t66 -10q51 0 78 16t38.5 42t13 60.5t1.5 71.5v223h85v-484h-79zM417 667q0 -36 -7 -60.5t-24 -39.5t-44.5 -21.5t-67.5 -6.5q-41 0 -68 6.5
t-44 21.5t-24 39.5t-7 60.5h63q0 -23 4.5 -36.5t14 -21t25 -9.5t36.5 -2t36.5 2t25 9.5t14 21t4.5 36.5h63z" />
    <glyph glyph-name="Uring" unicode="&#x16e;" horiz-adv-x="652" 
d="M574 335v-87.5t-2 -58.5q-3 -47 -16 -81q-24 -61 -83 -88.5t-147 -27.5t-147 27.5t-83 88.5q-13 34 -16 81q-2 24 -2 58.5v87.5v332h89v-332q0 -73 1 -122.5t15 -79.5q14 -29 47.5 -44.5t95.5 -15.5q63 0 96.5 15t47.5 44t15 79t1 124v332h88v-332zM441 801
q0 -61 -25.5 -88.5t-89.5 -27.5t-89.5 27.5t-25.5 88.5q0 60 26 86t89 26t89 -26t26 -86zM384 800q0 36 -10.5 49t-47.5 13q-19 0 -30.5 -3t-17.5 -10t-8 -19t-2 -30q0 -36 10 -50t48 -14q37 0 47.5 14t10.5 50z" />
    <glyph glyph-name="uring" unicode="&#x16f;" horiz-adv-x="543" 
d="M394 0v48q-23 -25 -58.5 -40.5t-89.5 -15.5q-71 0 -108 20.5t-53.5 53t-18 73t-1.5 81.5v264h86v-255v-68.5t9 -49.5t31 -30t66 -10q51 0 78 16t38.5 42t13 60.5t1.5 71.5v223h85v-484h-79zM383 625q0 -61 -25.5 -88.5t-89.5 -27.5t-89.5 27.5t-25.5 88.5q0 60 26 86
t89 26t89 -26t26 -86zM326 624q0 36 -10.5 49t-47.5 13q-19 0 -30.5 -3t-17.5 -10t-8 -19t-2 -30q0 -36 10 -50t48 -14q37 0 47.5 14t10.5 50z" />
    <glyph glyph-name="Uhungarumlaut" unicode="&#x170;" horiz-adv-x="652" 
d="M574 335v-87.5t-2 -58.5q-3 -47 -16 -81q-24 -61 -83 -88.5t-147 -27.5t-147 27.5t-83 88.5q-13 34 -16 81q-2 24 -2 58.5v87.5v332h89v-332q0 -73 1 -122.5t15 -79.5q14 -29 47.5 -44.5t95.5 -15.5q63 0 96.5 15t47.5 44t15 79t1 124v332h88v-332zM441 736h-90l127 126
h90zM262 736h-90l127 126h90z" />
    <glyph glyph-name="uhungarumlaut" unicode="&#x171;" horiz-adv-x="543" 
d="M394 0v48q-23 -25 -58.5 -40.5t-89.5 -15.5q-71 0 -108 20.5t-53.5 53t-18 73t-1.5 81.5v264h86v-255v-68.5t9 -49.5t31 -30t66 -10q51 0 78 16t38.5 42t13 60.5t1.5 71.5v223h85v-484h-79zM377 541h-90l127 126h90zM198 541h-90l127 126h90z" />
    <glyph glyph-name="Uogonek" unicode="&#x172;" horiz-adv-x="652" 
d="M326 -8q-88 0 -147 27.5t-83 88.5q-13 34 -16 81q-2 24 -2 58.5v87.5v332h89v-332q0 -73 1 -122.5t15 -79.5q14 -29 47.5 -44.5t95.5 -15.5q63 0 96.5 15t47.5 44t15 79t1 124v332h88v-332v-87.5t-2 -58.5q-3 -47 -16 -81q-18 -46 -51.5 -71t-67 -43.5t-58.5 -39
t-25 -57.5q0 -35 22.5 -50t60.5 -15h9.5t16.5 2v-58q-17 -2 -30 -2.5t-18 -0.5q-27 0 -51.5 7t-42.5 21.5t-28.5 36.5t-10.5 53q0 63 56 101h-12z" />
    <glyph glyph-name="uogonek" unicode="&#x173;" horiz-adv-x="543" 
d="M394 48q-23 -25 -58.5 -40.5t-89.5 -15.5q-71 0 -108 20.5t-53.5 53t-18 73t-1.5 81.5v264h86v-255v-68.5t9 -49.5t31 -30t66 -10q51 0 78 16t38.5 42t13 60.5t1.5 71.5v223h85v-484q-30 -15 -48.5 -28.5t-28 -26.5t-13 -25t-3.5 -23q0 -35 22.5 -50.5t60.5 -15.5h9.5
t16.5 2v-57q-17 -2 -30 -2.5t-18 -0.5q-27 0 -51 7t-42 21.5t-28 36.5t-10 53q0 41 22.5 73t61.5 52v32z" />
    <glyph glyph-name="Wcircumflex" unicode="&#x174;" horiz-adv-x="884" 
d="M685 0h-94l-149 545l-148 -545h-98l-160 667h90l125 -534l145 534h94l144 -534l127 534h87zM521 735l-79 76l-78 -76h-91l131 127h76l131 -127h-90z" />
    <glyph glyph-name="wcircumflex" unicode="&#x175;" horiz-adv-x="713" 
d="M555 0h-89l-108 378l-108 -378h-91l-139 484h89l100 -377l105 377h87l106 -377l100 377h86zM437 540l-79 76l-78 -76h-91l131 127h76l131 -127h-90z" />
    <glyph glyph-name="Ycircumflex" unicode="&#x176;" horiz-adv-x="568" 
d="M329 291v-291h-89v291l-238 376h102l182 -295l180 295h100zM363 735l-79 76l-78 -76h-91l131 127h76l131 -127h-90z" />
    <glyph glyph-name="ycircumflex" unicode="&#x177;" horiz-adv-x="472" 
d="M205 -191h-87l76 197l-180 478h89l135 -379l133 379h89zM318 540l-79 76l-78 -76h-91l131 127h76l131 -127h-90z" />
    <glyph glyph-name="Ydieresis" unicode="&#x178;" horiz-adv-x="568" 
d="M329 291v-291h-89v291l-238 376h102l182 -295l180 295h100zM442 814q0 -49 -50 -49q-48 0 -48 49q0 26 11.5 37t36.5 11t37.5 -11t12.5 -37zM227 814q0 -49 -50 -49q-48 0 -48 49q0 26 11.5 37t36.5 11t37.5 -11t12.5 -37z" />
    <glyph glyph-name="Zacute" unicode="&#x179;" horiz-adv-x="610" 
d="M61 0v78l382 510h-382v79h488v-78l-383 -509h383v-80h-488zM286 736h-96l133 126h96z" />
    <glyph glyph-name="zacute" unicode="&#x17a;" horiz-adv-x="487" 
d="M46 0v72l286 339h-286v73h394v-72l-285 -336h285v-76h-394zM225 541h-96l133 126h96z" />
    <glyph glyph-name="Zdotaccent" unicode="&#x17b;" horiz-adv-x="610" 
d="M61 0v78l382 510h-382v79h488v-78l-383 -509h383v-80h-488zM355 814q0 -49 -50 -49q-48 0 -48 49q0 26 11.5 37t36.5 11t37.5 -11t12.5 -37z" />
    <glyph glyph-name="zdotaccent" unicode="&#x17c;" horiz-adv-x="487" 
d="M46 0v72l286 339h-286v73h394v-72l-285 -336h285v-76h-394zM293 619q0 -49 -50 -49q-48 0 -48 49q0 26 11.5 37t36.5 11t37.5 -11t12.5 -37z" />
    <glyph glyph-name="Zcaron" unicode="&#x17d;" horiz-adv-x="610" 
d="M61 0v78l382 510h-382v79h488v-78l-383 -509h383v-80h-488zM335 726h-76l-131 127h90l79 -76l78 76h91z" />
    <glyph glyph-name="zcaron" unicode="&#x17e;" horiz-adv-x="487" 
d="M46 0v72l286 339h-286v73h394v-72l-285 -336h285v-76h-394zM287 540h-76l-131 127h90l79 -76l78 76h91z" />
    <glyph glyph-name="florin" unicode="&#x192;" horiz-adv-x="578" 
d="M455 515q0 27 -8 43t-23 24.5t-36 11t-47 2.5q-47 0 -73.5 -7.5t-39.5 -23.5t-16.5 -42t-3.5 -63v-84h285v-77h-285v-490h-86v490h-61v77h61v82v44t3.5 43.5t12 41.5t26.5 37q27 26 70 38t97 12q32 0 68 -3.5t67 -19t51 -47.5t20 -89h-82z" />
    <glyph glyph-name="Aringacute" unicode="&#x1fa;" horiz-adv-x="628" 
d="M317 900h-96l133 126h96zM519 0l-69 184h-278l-68 -184h-92l242 629q-60 18 -60 110q0 62 28 85t91 23q64 0 92 -24.5t28 -86.5q0 -92 -61 -107l243 -629h-96zM375 732q0 37 -12 50t-50 13t-49 -13t-11 -50q0 -18 2.5 -29.5t9 -18t18.5 -9t31 -2.5q37 0 49 11.5t12 47.5z
M311 560l-111 -300h222z" />
    <glyph glyph-name="aringacute" unicode="&#x1fb;" horiz-adv-x="539" 
d="M263 720h-96l133 126h96zM396 0v47q-22 -26 -63 -40.5t-98 -14.5q-90 0 -139 34t-49 117q0 51 16.5 81.5t44 46.5t64 21t75.5 5h143q0 31 -1.5 53.5t-13 37.5t-36.5 22t-71 7q-21 0 -43 -1.5t-40.5 -8.5t-30 -21.5t-11.5 -40.5h-82q0 62 31 93.5t81 43.5q-12 11 -15.5 32
t-3.5 45q0 61 27.5 84.5t92.5 23.5t92.5 -23t27.5 -85q0 -24 -5 -46t-16 -33q39 -12 59.5 -33t30 -46.5t10.5 -52.5t1 -51v-297h-78zM335 550q0 38 -12.5 51.5t-50.5 13.5q-39 0 -50 -14t-11 -51q0 -19 2.5 -31t9.5 -18.5t19 -9t32 -2.5q37 0 49 12t12 49zM243 225
q-28 0 -49 -3t-34.5 -11.5t-20 -24.5t-6.5 -42q0 -41 23 -60t87 -19q51 0 80.5 10t44.5 30t19 50t4 70h-148z" />
    <glyph glyph-name="AEacute" unicode="&#x1fc;" horiz-adv-x="931" 
d="M463 0v184h-238l-121 -184h-102l446 667h412v-80h-310v-205h300v-80h-300v-222h310v-80h-397zM463 546l-187 -284h187v284zM548 736h-96l133 126h96z" />
    <glyph glyph-name="aeacute" unicode="&#x1fd;" horiz-adv-x="874" 
d="M476 219q0 -38 4.5 -67t19 -48t40.5 -28.5t70 -9.5q20 0 41.5 2t39.5 10t30 22.5t12 40.5h80q0 -45 -17.5 -74t-46.5 -45.5t-66 -23t-76 -6.5q-131 0 -174 73q-31 -42 -81.5 -57.5t-113.5 -15.5q-90 0 -140.5 32.5t-50.5 115.5q0 51 17 81.5t45 46.5t64.5 20.5t75.5 4.5
h145q0 35 -3.5 59t-16 38.5t-37 20.5t-67.5 6q-21 0 -43.5 -1.5t-41 -8.5t-30.5 -21.5t-12 -40.5h-82q0 43 16.5 71.5t45 45.5t66.5 23.5t82 6.5q63 0 106.5 -13.5t66.5 -48.5q46 62 162 62q76 0 119 -19.5t64 -55t25.5 -86t4.5 -112.5h-343zM735 292q0 35 -5.5 59t-20.5 39
t-40 22t-64 7q-38 0 -62.5 -8t-39 -23.5t-20.5 -39.5t-6 -56h258zM245 220q-28 0 -49 -2.5t-35 -11t-21 -24t-7 -41.5q0 -41 24.5 -58.5t87.5 -17.5q51 0 80.5 9t44.5 27.5t19.5 48t4.5 70.5h-149zM442 541h-96l133 126h96z" />
    <glyph glyph-name="Oslashacute" unicode="&#x1fe;" horiz-adv-x="674" 
d="M292 736h-96l133 126h96zM602 333q-1 -78 -6.5 -141.5t-31 -108t-79.5 -68.5t-151 -23q-8 0 -20.5 0.5t-17.5 0.5l-31 -136l-74 16l31 132q-57 14 -87.5 44t-44.5 72.5t-16 97t-2 117.5q1 75 5.5 137.5t29.5 107.5t79 69.5t153 23.5q12 0 24 -0.5t14 -0.5l30 134l74 -18
l-29 -127q55 -15 85.5 -42.5t45 -69t17.5 -96t2 -121.5zM513 332q0 48 -1 81.5t-4 57.5t-8.5 40t-13.5 29q-3 5 -15 18.5t-38 21.5l-117 -505q7 -1 10 -1h9q62 -1 95.5 11.5t51.5 39.5q8 13 14 29t9.5 39.5t5.5 57t2 81.5zM357 592q-5 1 -19 1q-63 1 -96.5 -11.5
t-51.5 -40.5q-8 -13 -13.5 -28.5t-9 -39t-5.5 -57t-2 -81.5t1 -81.5t4 -57.5t8.5 -40t13.5 -29q13 -20 29.5 -29t24.5 -11z" />
    <glyph glyph-name="oslashacute" unicode="&#x1ff;" horiz-adv-x="555" 
d="M251 541h-96l133 126h96zM500 240q-1 -71 -11 -118.5t-40 -76.5t-71.5 -41.5t-101.5 -11.5h-25t-24 2l-35 -94l-73 26l34 88q-36 16 -56 40.5t-29.5 55t-11 65t-1.5 69.5q1 75 11.5 120.5t39.5 74.5q30 29 72 41.5t102 11.5h24.5t23.5 -2l33 88l72 -26l-31 -81
q36 -15 56 -40.5t29.5 -56.5t11 -65.5t1.5 -68.5zM414 241q0 43 -2.5 69.5t-8 42t-13 24.5t-16.5 17l-118 -324q7 -1 13 -1h12q48 0 74.5 10t39.5 31.5t16 54t3 76.5zM301 414q-7 1 -11 1h-10q-48 0 -76 -10t-41.5 -31.5t-17.5 -54t-4 -76.5q-1 -57 6 -94t36 -57q3 9 13 36
t23 63t27.5 75t26.5 72t20 54.5z" />
    <glyph glyph-name="uni0218" unicode="&#x218;" horiz-adv-x="647" 
d="M583 203q0 -110 -62.5 -160.5t-197.5 -50.5q-62 0 -110.5 9t-81.5 30.5t-50 57.5t-17 90h88q0 -30 8 -50.5t28 -33t53.5 -17.5t83.5 -5q52 0 84.5 7t51 22.5t25.5 39t7 56.5q0 36 -9 55.5t-26 28.5t-41.5 11t-55.5 4q-35 1 -70.5 1.5t-68.5 4t-61.5 12.5t-50 29t-34 52
t-12.5 82q0 56 15.5 93.5t47 60.5t80 32.5t114.5 9.5q62 0 109.5 -9t80 -30.5t49 -57.5t16.5 -90h-86q0 37 -11.5 58t-33.5 31.5t-54 13.5t-72 3q-53 0 -85.5 -5.5t-50.5 -19t-24 -35.5t-6 -54q0 -35 10 -53.5t27.5 -27.5t42 -11t53.5 -3q34 -2 69.5 -2t68.5 -3.5t62 -12.5
t50.5 -28.5t34 -52t12.5 -82.5zM361 -70q0 -21 -1.5 -37.5t-6.5 -31t-14 -28t-24 -28.5l-37 -37l-53 53q18 16 29 27t17 22t8.5 24.5t2.5 35.5v29h79v-29z" />
    <glyph glyph-name="uni0219" unicode="&#x219;" horiz-adv-x="513" 
d="M384 343q0 42 -24 58.5t-86 17.5q-39 1 -64 -3t-39.5 -12.5t-20.5 -21t-6 -28.5q0 -28 7.5 -42t21 -20t32.5 -6.5t42 -1.5q41 -2 79.5 -3.5t68.5 -14t48 -41.5t18 -86q0 -43 -15 -71.5t-42.5 -45.5t-67.5 -23.5t-89 -6.5q-48 0 -84.5 7.5t-61.5 24.5t-38 45.5t-13 71.5
h79q0 -20 5.5 -34.5t18.5 -23.5t35.5 -13.5t57.5 -4.5q34 0 58.5 2.5t40.5 11t23.5 24t7.5 42.5q0 22 -6.5 34t-20.5 17.5t-35 7t-49 2.5q-40 1 -77 3.5t-66 15.5t-46 41t-17 82q0 43 15 71t43 44.5t67.5 22.5t88.5 6q44 0 79.5 -7.5t60 -24.5t37.5 -45.5t13 -71.5h-79z
M289 -70q0 -21 -1.5 -37.5t-6.5 -31t-14 -28t-24 -28.5l-37 -37l-53 53q18 16 29 27t17 22t8.5 24.5t2.5 35.5v29h79v-29z" />
    <glyph glyph-name="uni021A" unicode="&#x21a;" horiz-adv-x="541" 
d="M315 588v-588h-89v588h-208v79h505v-79h-208zM310 -70q0 -21 -1.5 -37.5t-6.5 -31t-14 -28t-24 -28.5l-37 -37l-53 53q18 16 29 27t17 22t8.5 24.5t2.5 35.5v29h79v-29z" />
    <glyph glyph-name="uni021B" unicode="&#x21b;" horiz-adv-x="467" 
d="M447 141q0 -42 -13 -70.5t-36 -46t-54 -25t-68 -7.5q-82 0 -124.5 36t-42.5 115v268h-80v73h80v183h85v-183h214v-73h-214v-268q0 -43 19.5 -60.5t66.5 -17.5t67.5 18t20.5 58h79zM321 -70q0 -21 -1.5 -37.5t-6.5 -31t-14 -28t-24 -28.5l-37 -37l-53 53q18 16 29 27
t17 22t8.5 24.5t2.5 35.5v29h79v-29z" />
    <glyph glyph-name="circumflex" unicode="&#x2c6;" horiz-adv-x="428" 
d="M293 540l-79 76l-78 -76h-91l131 127h76l131 -127h-90z" />
    <glyph glyph-name="caron" unicode="&#x2c7;" horiz-adv-x="428" 
d="M252 540h-76l-131 127h90l79 -76l78 76h91z" />
    <glyph glyph-name="breve" unicode="&#x2d8;" horiz-adv-x="428" 
d="M357 667q0 -36 -7 -60.5t-24 -39.5t-44.5 -21.5t-67.5 -6.5q-41 0 -68 6.5t-44 21.5t-24 39.5t-7 60.5h63q0 -23 4.5 -36.5t14 -21t25 -9.5t36.5 -2t36.5 2t25 9.5t14 21t4.5 36.5h63v0z" />
    <glyph glyph-name="dotaccent" unicode="&#x2d9;" horiz-adv-x="428" 
d="M263 619q0 -49 -50 -49q-48 0 -48 49q0 26 11.5 37t36.5 11t37.5 -11t12.5 -37z" />
    <glyph glyph-name="ring" unicode="&#x2da;" horiz-adv-x="478" 
d="M354 588q0 -61 -25.5 -88.5t-89.5 -27.5t-89.5 27.5t-25.5 88.5q0 60 26 86t89 26t89 -26t26 -86zM297 587q0 36 -10.5 49t-47.5 13q-19 0 -30.5 -3t-17.5 -10t-8 -19t-2 -30q0 -36 10 -50t48 -14q37 0 47.5 14t10.5 50z" />
    <glyph glyph-name="ogonek" unicode="&#x2db;" horiz-adv-x="437" 
d="M284 0q-30 -15 -48.5 -28.5t-28 -26.5t-13 -25t-3.5 -23q0 -35 22.5 -50.5t60.5 -15.5h9.5t16.5 2v-57q-17 -2 -30 -2.5t-18 -0.5q-27 0 -51 7t-42 21.5t-28 36.5t-10 53q0 41 23 73t62 53z" />
    <glyph glyph-name="tilde" unicode="&#x2dc;" horiz-adv-x="428" 
d="M409 609q-23 -12 -46 -25t-47 -20.5t-49 -6.5t-52 17q-13 8 -23.5 15t-22.5 10t-26 1.5t-33 -11.5l-59 -30l-31 58q22 12 45.5 24.5t48 20t49.5 6.5t52 -17q13 -8 23.5 -15t22.5 -10t25.5 -1.5t32.5 11.5l59 31l31 -58v0z" />
    <glyph glyph-name="hungarumlaut" unicode="&#x2dd;" horiz-adv-x="428" 
d="M296 541h-90l127 126h90zM117 541h-90l127 126h90z" />
    <glyph glyph-name="uni0326" unicode="&#x326;" horiz-adv-x="437" 
d="M257 -70q0 -21 -1.5 -37.5t-6.5 -31t-14 -28t-24 -28.5l-37 -37l-53 53q18 16 29 27t17 22t8.5 24.5t2.5 35.5v29h79v-29v0z" />
    <glyph glyph-name="uni0394" unicode="&#x394;" horiz-adv-x="633" 
d="M14 0l258 667h89l257 -667h-604zM315 560l-179 -480h359z" />
    <glyph glyph-name="uni03A9" unicode="&#x3a9;" horiz-adv-x="674" 
d="M602 334q0 -44 -1 -83t-7 -71.5t-18.5 -58t-36.5 -42.5h63v-79h-231v75q52 4 76.5 18t37.5 33q7 10 12.5 22t9 33.5t5 57.5t1.5 95q0 48 -1.5 81.5t-5 57t-9 39.5t-13.5 29q-18 28 -51.5 40t-96.5 12t-97 -12.5t-51 -40.5q-8 -13 -13.5 -28.5t-8.5 -39t-4.5 -57
t-1.5 -81.5q0 -59 2 -94.5t5.5 -57.5t9 -33.5t12.5 -22.5q13 -20 37 -34t76 -17v-75h-230v79h63q-24 17 -37 42.5t-18.5 58t-6.5 71.5t-1 83q0 75 4 137.5t28.5 107.5t78.5 70t153 25q66 0 111.5 -11t75 -32.5t45.5 -51.5t23.5 -67.5t9 -82.5t1.5 -95z" />
    <glyph glyph-name="uni03BC" unicode="&#x3bc;" horiz-adv-x="548" 
d="M399 0v47q-23 -25 -57.5 -40t-85.5 -15q-29 0 -57 7t-45 21v-211h-84v675h85v-255q0 -41 1 -71t10.5 -49.5t31.5 -28.5t64 -9q51 0 78 16t38.5 42t13 60.5t1.5 71.5v223h85v-484h-79z" />
    <glyph glyph-name="pi" unicode="&#x3c0;" horiz-adv-x="654" 
d="M511 407v-290q0 -26 6.5 -35t36.5 -9h12v-73h-33q-25 0 -45 4.5t-33.5 15.5t-21 31t-7.5 52v304h-209v-407h-85v407h-56v77h491v-77h-56z" />
    <glyph glyph-name="uni0400" unicode="&#x400;" horiz-adv-x="593" 
d="M84 0v667h438v-80h-349v-205h339v-80h-339v-222h349v-80h-438zM305 736l-133 126h96l133 -126h-96z" />
    <glyph glyph-name="uni0401" unicode="&#x401;" horiz-adv-x="593" 
d="M84 0v667h438v-80h-349v-205h339v-80h-339v-222h349v-80h-438zM469 814q0 -49 -50 -49q-48 0 -48 49q0 26 11.5 37t36.5 11t37.5 -11t12.5 -37zM254 814q0 -49 -50 -49q-48 0 -48 49q0 26 11.5 37t36.5 11t37.5 -11t12.5 -37z" />
    <glyph glyph-name="uni0402" unicode="&#x402;" horiz-adv-x="721" 
d="M650 150q0 -62 -2 -107t-8 -78t-18 -57t-32 -44q-25 -25 -69.5 -39.5t-124.5 -14.5v82q31 0 53 3t36.5 8t23.5 11t15 12q9 9 16 22.5t12 38.5t7.5 64t2.5 99q0 43 -3 76.5t-15.5 56t-39 34t-74.5 11.5q-54 0 -88 -11t-52 -19v-298h-89v588h-177v79h474v-79h-208v-207
q21 9 56.5 18t89.5 9q109 0 163 -54q34 -34 42.5 -86t8.5 -118z" />
    <glyph glyph-name="uni0403" unicode="&#x403;" horiz-adv-x="522" 
d="M512 667v-80h-339v-587h-89v667h428zM289 736h-96l133 126h96z" />
    <glyph glyph-name="uni0404" unicode="&#x404;" horiz-adv-x="647" 
d="M584 179q0 -54 -16 -89.5t-46.5 -57.5t-75.5 -31t-103 -9q-67 0 -113.5 11.5t-76.5 33t-46.5 51.5t-24 68t-9 83t-1.5 95q0 75 4.5 137.5t30 107.5t81 70t156.5 25q58 0 103 -9t75.5 -31t46 -57.5t15.5 -89.5h-86q0 30 -7 50.5t-25.5 32.5t-50 17.5t-80.5 5.5
q-57 0 -91.5 -11.5t-52.5 -37t-23.5 -65.5t-6.5 -98h251v-76h-251q0 -64 5 -108t22.5 -71.5t52 -39.5t94.5 -12q49 0 80.5 5t50 17t25.5 32.5t7 50.5h86v0z" />
    <glyph glyph-name="uni0405" unicode="&#x405;" horiz-adv-x="647" 
d="M583 203q0 -110 -62.5 -160.5t-197.5 -50.5q-62 0 -110.5 9t-81.5 30.5t-50 57.5t-17 90h88q0 -30 8 -50.5t28 -33t53.5 -17.5t83.5 -5q52 0 84.5 7t51 22.5t25.5 39t7 56.5q0 36 -9 55.5t-26 28.5t-41.5 11t-55.5 4q-35 1 -70.5 1.5t-68.5 4t-61.5 12.5t-50 29t-34 52
t-12.5 82q0 56 15.5 93.5t47 60.5t80 32.5t114.5 9.5q62 0 109.5 -9t80 -30.5t49 -57.5t16.5 -90h-86q0 37 -11.5 58t-33.5 31.5t-54 13.5t-72 3q-53 0 -85.5 -5.5t-50.5 -19t-24 -35.5t-6 -54q0 -35 10 -53.5t27.5 -27.5t42 -11t53.5 -3q34 -2 69.5 -2t68.5 -3.5t62 -12.5
t50.5 -28.5t34 -52t12.5 -82.5z" />
    <glyph glyph-name="uni0406" unicode="&#x406;" horiz-adv-x="257" 
d="M84 0v667h89v-667h-89z" />
    <glyph glyph-name="uni0407" unicode="&#x407;" horiz-adv-x="257" 
d="M84 0v667h89v-667h-89zM285 814q0 -49 -50 -49q-48 0 -48 49q0 26 11.5 37t36.5 11t37.5 -11t12.5 -37zM70 814q0 -49 -50 -49q-48 0 -48 49q0 26 11.5 37t36.5 11t37.5 -11t12.5 -37z" />
    <glyph glyph-name="uni0408" unicode="&#x408;" horiz-adv-x="537" 
d="M459 213q0 -25 -0.5 -46t-3.5 -39q-7 -41 -26.5 -67.5t-47.5 -41.5t-62.5 -21t-71.5 -6q-50 0 -89 9t-67 30.5t-42.5 57.5t-14.5 90h85q0 -33 8 -54t23.5 -32.5t39.5 -15.5t57 -4q45 0 69.5 8t36.5 25t14.5 43t2.5 62v456h89v-454v0z" />
    <glyph glyph-name="uni0409" unicode="&#x409;" horiz-adv-x="1001" 
d="M959 194q0 -71 -19.5 -110t-54 -57.5t-83 -22.5t-105.5 -4h-230v588h-171l-99 -435q-8 -38 -19.5 -67t-36.5 -54q-40 -40 -135 -40v81q21 0 36 4.5t26 12.5q19 13 28.5 36t15.5 51l111 490h333v-286h141q57 0 105 -3t83 -20.5t54.5 -55.5t19.5 -108zM871 192
q0 46 -13.5 67t-31.5 30q-24 12 -60 12.5t-71 0.5h-139v-222h139q35 0 71 0.5t60 12.5q18 9 31.5 31t13.5 68z" />
    <glyph glyph-name="uni040A" unicode="&#x40a;" horiz-adv-x="1025" 
d="M983 194q0 -71 -19.5 -110t-54 -57.5t-83 -22.5t-105.5 -4h-236v302h-312v-302h-89v667h89v-285h312v285h88v-286h148q57 0 105 -3t83 -20.5t54.5 -55.5t19.5 -108zM895 192q0 46 -13.5 67t-31.5 30q-24 12 -60 12.5t-71 0.5h-146v-222h146q35 0 71 0.5t60 12.5
q18 9 31.5 31t13.5 68z" />
    <glyph glyph-name="uni040B" unicode="&#x40b;" horiz-adv-x="725" 
d="M559 0v155q0 20 -0.5 40.5t-3.5 39.5t-9.5 35t-18.5 28q-14 14 -35.5 21.5t-60.5 7.5q-54 0 -88.5 -10.5t-52.5 -18.5v-298h-89v588h-177v79h474v-79h-208v-207q21 9 56.5 18t89.5 9q51 0 91.5 -12.5t69.5 -41.5q19 -19 29.5 -43t15 -51.5t5.5 -57t1 -60.5v-142h-89z" />
    <glyph glyph-name="uni040C" unicode="&#x40c;" horiz-adv-x="607" 
d="M345 736h-97l132 126h97zM470 0l-297 285v-285h-89v667h88v-288l307 288h121l-361 -332l363 -335h-132z" />
    <glyph glyph-name="uni040D" unicode="&#x40d;" horiz-adv-x="655" 
d="M488 0v529l-310 -529h-94v667h83v-526l311 526h93v-667h-83zM335 736l-133 126h96l133 -126h-96z" />
    <glyph glyph-name="uni040E" unicode="&#x40e;" horiz-adv-x="580" 
d="M228 0h-99l115 219l-235 448h101l184 -354l184 354h99zM435 862q0 -36 -7 -60.5t-24 -39.5t-44.5 -21.5t-67.5 -6.5q-41 0 -68 6.5t-44 21.5t-24 39.5t-7 60.5h63q0 -23 4.5 -36.5t14 -21t25 -9.5t36.5 -2t36.5 2t25 9.5t14 21t4.5 36.5h63z" />
    <glyph glyph-name="uni040F" unicode="&#x40f;" horiz-adv-x="657" 
d="M371 0v-117h-86v117h-201v667h89v-587h311v587h89v-667h-202z" />
    <glyph glyph-name="uni0410" unicode="&#x410;" horiz-adv-x="628" 
d="M519 0l-68 184h-279l-67 -184h-93l258 667h89l257 -667h-97zM312 560l-111 -299h222z" />
    <glyph glyph-name="uni0411" unicode="&#x411;" horiz-adv-x="635" 
d="M576 194q0 -71 -19.5 -110t-54 -57.5t-83 -22.5t-105.5 -4h-230v667h432v-79h-343v-207h141q57 0 105 -3t83 -20.5t54.5 -55.5t19.5 -108zM488 192q0 46 -13.5 67t-31.5 30q-24 12 -60 12.5t-71 0.5h-139v-222h139q35 0 71 0.5t60 12.5q18 9 31.5 31t13.5 68z" />
    <glyph glyph-name="uni0412" unicode="&#x412;" horiz-adv-x="651" 
d="M579 192q0 -74 -22.5 -113.5t-59 -57t-83 -19.5t-93.5 -2h-237v667h231q50 0 96.5 -1t82.5 -16t58 -49.5t22 -101.5q0 -57 -15 -98t-52 -57q45 -20 58.5 -60.5t13.5 -91.5zM486 485q0 41 -11 62t-33.5 30t-56 9.5t-77.5 0.5h-136v-205h143h70.5t54 8.5t34.5 30t12 64.5z
M491 190q0 45 -11 68t-33 32.5t-55.5 10.5t-78.5 1h-141v-222h141h74t56 9.5t35.5 32.5t12.5 68z" />
    <glyph glyph-name="uni0413" unicode="&#x413;" horiz-adv-x="522" 
d="M512 667v-80h-339v-587h-89v667h428z" />
    <glyph glyph-name="uni0414" unicode="&#x414;" horiz-adv-x="660" 
d="M533 -117v119h-441v-119h-86v197q50 1 71.5 24.5t32.5 70.5l118 492h327v-587h64v-197h-86zM467 588h-167l-100 -416q-7 -27 -17.5 -52.5t-28.5 -39.5h313v508z" />
    <glyph glyph-name="uni0415" unicode="&#x415;" horiz-adv-x="593" 
d="M84 0v667h438v-80h-349v-205h339v-80h-339v-222h349v-80h-438z" />
    <glyph glyph-name="uni0416" unicode="&#x416;" horiz-adv-x="860" 
d="M735 0l-260 294v-294h-89v294l-263 -294h-118l311 340l-311 327h114l267 -283v283h88v-283l268 283h111l-312 -325l314 -342h-120z" />
    <glyph glyph-name="uni0417" unicode="&#x417;" horiz-adv-x="655" 
d="M575 186q0 -107 -66 -150.5t-195 -43.5q-57 0 -103 7.5t-79 28.5t-51 57.5t-18 93.5h86q0 -33 9.5 -53.5t29.5 -32t51.5 -15.5t75.5 -4q46 0 79 5t54 17.5t30.5 35t9.5 57.5q0 37 -6.5 60t-25 35.5t-51.5 16.5t-87 4h-78v76h78q43 0 73.5 4.5t50 16.5t29 33t9.5 55
q0 30 -5.5 50t-23.5 31.5t-50.5 16.5t-86.5 5q-45 0 -76.5 -4.5t-51 -16.5t-28.5 -32.5t-9 -52.5h-86q0 59 19 95.5t52.5 57t79.5 27.5t100 7q68 0 116 -9.5t79 -30t45 -54t14 -81.5q0 -24 -3.5 -46.5t-13 -42t-27.5 -36t-46 -27.5q33 -10 52.5 -26t29.5 -37t12.5 -46
t2.5 -52z" />
    <glyph glyph-name="uni0418" unicode="&#x418;" horiz-adv-x="655" 
d="M488 0v529l-310 -529h-94v667h83v-526l311 526h93v-667h-83z" />
    <glyph glyph-name="uni0419" unicode="&#x419;" horiz-adv-x="655" 
d="M471 863q0 -38 -9 -62.5t-29 -38.5q-17 -14 -43.5 -19.5t-61.5 -5.5q-41 0 -68 7t-44 22t-24.5 39t-7.5 58h63q0 -23 4.5 -36.5t14 -21t25 -10t36.5 -2.5q22 0 37.5 2.5t25 10t14 21t4.5 36.5h63zM488 0v529l-310 -529h-94v667h83v-526l311 526h93v-667h-83z" />
    <glyph glyph-name="uni041A" unicode="&#x41a;" horiz-adv-x="607" 
d="M470 0l-297 285v-285h-89v667h88v-288l307 288h121l-361 -332l363 -335h-132z" />
    <glyph glyph-name="uni041B" unicode="&#x41b;" horiz-adv-x="639" 
d="M223 667h332v-667h-88v588h-171l-99 -435q-8 -38 -19.5 -67t-36.5 -54q-40 -40 -135 -40v81q21 0 36 4.5t26 12.5q19 13 28.5 36t15.5 51z" />
    <glyph glyph-name="uni041C" unicode="&#x41c;" horiz-adv-x="824" 
d="M655 0v533l-201 -533h-85l-201 533v-533h-84v667h115l214 -556l212 556h115v-667h-85z" />
    <glyph glyph-name="uni041D" unicode="&#x41d;" horiz-adv-x="657" 
d="M485 0v302h-312v-302h-89v667h89v-285h312v285h88v-667h-88z" />
    <glyph glyph-name="uni041E" unicode="&#x41e;" horiz-adv-x="674" 
d="M602 335q0 -78 -5 -141.5t-30.5 -108t-79 -69t-150.5 -24.5q-99 0 -153 25.5t-79 70.5t-29 108t-4 138t4 137.5t28.5 107.5t78.5 70t153 25t153 -24.5t79 -69.5t29.5 -107.5t4.5 -137.5zM513 334q0 48 -1.5 81.5t-5 57t-9 39.5t-13.5 29q-18 28 -51.5 40t-96.5 12
t-97 -12.5t-51 -40.5q-8 -13 -13.5 -29t-8.5 -39.5t-4.5 -57t-1.5 -81.5t1.5 -81.5t5 -57t9 -39.5t13.5 -29q17 -28 51 -40t97 -12q62 0 95.5 12t51.5 40q8 13 13.5 29t9 40t5 57.5t1.5 81.5z" />
    <glyph glyph-name="uni041F" unicode="&#x41f;" horiz-adv-x="657" 
d="M484 0v588h-311v-588h-89v667h489v-667h-89z" />
    <glyph glyph-name="uni0420" unicode="&#x420;" horiz-adv-x="615" 
d="M573 477q0 -71 -19.5 -110t-54 -57.5t-83 -22.5t-105.5 -4h-138v-283h-89v667h227q57 0 105 -3.5t83 -21.5t54.5 -56.5t19.5 -108.5zM485 475q0 46 -13.5 68t-31.5 31q-24 12 -60 12.5t-71 0.5h-136v-224h136q35 0 71 0.5t60 12.5q18 9 31.5 31t13.5 68z" />
    <glyph glyph-name="uni0421" unicode="&#x421;" horiz-adv-x="647" 
d="M584 179q0 -54 -16 -89.5t-46.5 -57.5t-75.5 -31t-103 -9q-67 0 -113.5 11.5t-76.5 33t-46.5 51.5t-24 68t-9 83t-1.5 95q0 75 4.5 137.5t30 107.5t81 70t156.5 25q58 0 103 -9t75.5 -31t46 -57.5t15.5 -89.5h-86q0 30 -7 50.5t-25.5 32.5t-50 17.5t-80.5 5.5
q-63 0 -98 -14t-52 -44.5t-20.5 -80t-3.5 -121.5t3.5 -121t20.5 -80t52 -44.5t98 -13.5q49 0 80.5 5t50 17t25.5 32.5t7 50.5h86v0z" />
    <glyph glyph-name="uni0422" unicode="&#x422;" horiz-adv-x="541" 
d="M315 588v-588h-89v588h-208v79h505v-79h-208z" />
    <glyph glyph-name="uni0423" unicode="&#x423;" horiz-adv-x="580" 
d="M577 667l-349 -667h-99l115 219l-235 448h101l184 -354l184 354h99v0z" />
    <glyph glyph-name="uni0424" unicode="&#x424;" horiz-adv-x="786" 
d="M730 336q0 -92 -19 -144.5t-59 -82.5q-35 -26 -87.5 -37t-127.5 -13v-59h-88v59q-74 2 -126.5 13t-88.5 37q-40 30 -59 82.5t-19 144.5q0 93 18.5 145.5t59.5 82.5q35 27 87.5 37t127.5 12v54h88v-54q75 -2 127.5 -12t87.5 -37q40 -30 59 -83t19 -145zM641 338
q0 34 -2.5 59.5t-8 44t-13.5 31.5t-20 23q-22 18 -62 25t-98 9v-388q58 3 98 10.5t62 25.5q23 19 33.5 55t10.5 105zM349 530q-54 -2 -91.5 -8t-59.5 -20q-29 -17 -41 -54.5t-12 -111.5q0 -37 3 -64t9.5 -46t16.5 -32t24 -22q22 -14 60 -21t91 -9v388z" />
    <glyph glyph-name="uni0425" unicode="&#x425;" horiz-adv-x="590" 
d="M465 0l-171 273l-170 -273h-100l219 340l-213 327h101l165 -262l164 262h101l-214 -327l219 -340h-101z" />
    <glyph glyph-name="uni0426" unicode="&#x426;" horiz-adv-x="666" 
d="M551 -117v117h-467v667h89v-587h311v587h89v-587h64v-197h-86z" />
    <glyph glyph-name="uni0427" unicode="&#x427;" horiz-adv-x="629" 
d="M456 0v278q-23 -8 -62.5 -17.5t-96.5 -9.5q-54 0 -97.5 12.5t-72.5 41.5q-20 19 -30.5 41.5t-16 48.5t-6.5 56.5t-1 65.5v150h89v-165q0 -30 1 -51.5t4.5 -37t10 -27t16.5 -21.5q15 -15 40 -24t68 -9q58 0 96 10.5t58 18.5v306h89v-667h-89z" />
    <glyph glyph-name="uni0428" unicode="&#x428;" horiz-adv-x="885" 
d="M84 0v667h89v-587h225v587h89v-587h225v587h89v-667h-717z" />
    <glyph glyph-name="uni0429" unicode="&#x429;" horiz-adv-x="895" 
d="M779 -117v117h-695v667h89v-587h225v587h89v-587h225v587h89v-587h64v-197h-86z" />
    <glyph glyph-name="uni042A" unicode="&#x42a;" horiz-adv-x="710" 
d="M668 194q0 -71 -19.5 -110t-54 -57.5t-83 -22.5t-105.5 -4h-230v588h-178v79h267v-286h141q57 0 105 -3t83 -20.5t54.5 -55.5t19.5 -108zM580 192q0 46 -13.5 67t-31.5 30q-24 12 -60 12.5t-71 0.5h-139v-222h139q35 0 71 0.5t60 12.5q18 9 31.5 31t13.5 68z" />
    <glyph glyph-name="uni042B" unicode="&#x42b;" horiz-adv-x="843" 
d="M670 0v667h89v-667h-89zM576 194q0 -71 -19.5 -110t-54 -57.5t-83 -22.5t-105.5 -4h-230v667h89v-286h141q57 0 105 -3t83 -20.5t54.5 -55.5t19.5 -108zM488 192q0 46 -13.5 67t-31.5 30q-24 12 -60 12.5t-71 0.5h-139v-222h139q35 0 71 0.5t60 12.5q18 9 31.5 31
t13.5 68z" />
    <glyph glyph-name="uni042C" unicode="&#x42c;" horiz-adv-x="618" 
d="M576 194q0 -71 -19.5 -110t-54 -57.5t-83 -22.5t-105.5 -4h-230v667h89v-286h141q57 0 105 -3t83 -20.5t54.5 -55.5t19.5 -108zM488 192q0 46 -13.5 67t-31.5 30q-24 12 -60 12.5t-71 0.5h-139v-222h139q35 0 71 0.5t60 12.5q18 9 31.5 31t13.5 68z" />
    <glyph glyph-name="uni042D" unicode="&#x42d;" horiz-adv-x="647" 
d="M149 179q0 -30 7 -50.5t25.5 -32.5t50 -17t80.5 -5q60 0 94.5 12t52 39.5t22.5 71.5t5 108h-251v76h251q-1 58 -6.5 98t-23.5 65.5t-52.5 37t-91.5 11.5q-49 0 -80.5 -5.5t-50 -17.5t-25.5 -32.5t-7 -50.5h-86q0 54 15.5 89.5t46 57.5t75.5 31t103 9q101 0 156.5 -25
t81 -70t30 -107.5t4.5 -137.5q0 -50 -1.5 -95t-9 -83t-24 -68t-46.5 -51.5t-76.5 -33t-113.5 -11.5q-58 0 -103 9t-75.5 31t-46.5 57.5t-16 89.5h86z" />
    <glyph glyph-name="uni042E" unicode="&#x42e;" horiz-adv-x="914" 
d="M842 335q0 -78 -5 -141.5t-30.5 -108t-79 -69t-150.5 -24.5q-95 0 -148 23t-79 64t-32 98t-6 125h-139v-302h-89v667h89v-285h139q1 66 8 120t33.5 92t79 59t143.5 21q99 0 153 -24.5t79 -69.5t29.5 -107.5t4.5 -137.5zM753 334q0 48 -1.5 81.5t-5 57t-9 39.5t-13.5 29
q-18 28 -51.5 40t-96.5 12t-97 -12.5t-51 -40.5q-8 -13 -13.5 -29t-8.5 -39.5t-4.5 -57t-1.5 -81.5t1.5 -81.5t5 -57t9 -39.5t13.5 -29q17 -28 51 -40t97 -12q62 0 95.5 12t51.5 40q8 13 13.5 29t9 40t5 57.5t1.5 81.5z" />
    <glyph glyph-name="uni042F" unicode="&#x42f;" horiz-adv-x="653" 
d="M80 0v165v46t5.5 48.5t20 43t44.5 28.5q-37 15 -53.5 51t-16.5 95q0 70 19 108.5t53.5 56.5t83 21.5t106.5 3.5h227v-667h-89v288h-135q-63 0 -99 -1.5t-55 -15.5t-22 -37.5t-3 -65.5v-168h-86zM167 476q0 -45 11 -66.5t27 -29.5q22 -11 59.5 -11h73.5h142v218h-136
q-37 0 -62.5 -0.5t-43.5 -3.5t-29.5 -9t-20.5 -17t-15 -30.5t-6 -50.5z" />
    <glyph glyph-name="uni0430" unicode="&#x430;" horiz-adv-x="539" 
d="M396 0v47q-22 -26 -63 -40.5t-98 -14.5q-90 0 -139 34t-49 117q0 51 16.5 81.5t44 46.5t64 21t75.5 5h143q0 31 -1.5 53.5t-13 37.5t-36.5 22t-71 7q-21 0 -43 -1.5t-40.5 -8.5t-30 -21.5t-11.5 -40.5h-82q0 45 16.5 73.5t45.5 45t68 22.5t84 6q76 0 117 -19t59 -48.5
t20.5 -63.5t2.5 -64v-297h-78zM243 225q-28 0 -49 -3t-34.5 -11.5t-20 -24.5t-6.5 -42q0 -41 23 -60t87 -19q51 0 80.5 10t44.5 30t19 50t4 70h-148z" />
    <glyph glyph-name="uni0431" unicode="&#x431;" horiz-adv-x="555" 
d="M500 243q0 -75 -9.5 -121.5t-38.5 -75.5t-70 -41.5t-98 -12.5q-60 0 -100 12.5t-67 39.5q-18 18 -27.5 40t-14.5 47.5t-6 53t-1 55.5v193q0 20 1.5 41.5t6 42.5t13.5 40.5t25 35.5q32 32 70 41.5t75 13.5q19 2 39.5 4t37.5 7t28.5 14t11.5 25h84q0 -33 -8 -54t-23 -35
q-23 -21 -56.5 -27t-69 -9.5t-69 -10t-54.5 -28.5q-21 -24 -24 -62q-2 -8 -2 -16v-16q26 29 62 40.5t90 11.5q66 0 105 -19t58.5 -53t25 -79.5t5.5 -97.5zM414 242q0 45 -4 77t-16.5 52.5t-36 30.5t-61.5 10q-41 0 -68.5 -7.5t-44 -26.5t-23.5 -52.5t-7 -85.5q0 -45 3 -77
t16 -52.5t39 -30.5t72 -10t72.5 10.5t39.5 31.5t16 53.5t3 76.5z" />
    <glyph glyph-name="uni0432" unicode="&#x432;" horiz-adv-x="538" 
d="M483 142q0 -28 -6.5 -57.5t-29.5 -49.5q-17 -14 -36 -21.5t-40.5 -10.5t-45 -3h-48.5h-207v484h202q51 0 83.5 -1.5t58.5 -10.5q29 -11 46.5 -37t17.5 -75q0 -41 -11 -69.5t-40 -39.5q35 -15 45.5 -44t10.5 -65zM394 347q0 42 -22 53t-69 11h-148v-126h128q25 0 53.5 1
t41.5 12q7 6 11.5 17.5t4.5 31.5zM396 143q0 39 -16 53q-6 5 -13 8.5t-18 5.5t-29.5 2.5t-47.5 0.5h-117v-140h127q20 0 45 1t40 7q12 5 20.5 18t8.5 44z" />
    <glyph glyph-name="uni0433" unicode="&#x433;" horiz-adv-x="434" 
d="M155 411v-411h-85v484h359v-73h-274z" />
    <glyph glyph-name="uni0434" unicode="&#x434;" horiz-adv-x="549" 
d="M437 -117v120h-350v-120h-81v193q35 0 56 21.5t31 61.5l79 325h291v-408h54v-193h-80zM378 411h-139l-62 -254q-7 -29 -15.5 -50.5t-25.5 -30.5h242v335z" />
    <glyph glyph-name="uni0435" unicode="&#x435;" horiz-adv-x="538" 
d="M141 213q0 -38 4.5 -66t19 -46t40.5 -26.5t70 -8.5q20 0 41.5 2t39.5 10t29.5 22.5t11.5 40.5h80q0 -46 -18.5 -75t-47.5 -45.5t-65.5 -22.5t-72.5 -6q-71 0 -114 17.5t-66 49.5t-30.5 77.5t-7.5 101.5q0 57 7.5 104t30 80t65 51.5t112.5 18.5q76 0 119 -20.5t64 -57
t25.5 -88t4.5 -113.5h-342zM399 286q0 35 -4.5 60t-18.5 41.5t-39.5 24t-66.5 7.5q-39 0 -64 -8.5t-39.5 -25.5t-19.5 -42t-5 -57h257z" />
    <glyph glyph-name="uni0436" unicode="&#x436;" horiz-adv-x="703" 
d="M590 0l-196 219v-219h-85v219l-196 -219h-107l230 249l-228 235h104l197 -206v206h85v-206l198 206h101l-227 -233l231 -251h-107z" />
    <glyph glyph-name="uni0437" unicode="&#x437;" horiz-adv-x="534" 
d="M481 139q0 -41 -16 -69.5t-45 -45.5t-71 -24.5t-94 -7.5q-40 0 -77 6t-65.5 22.5t-45.5 45.5t-17 75h81q0 -25 11 -39.5t29 -21.5t40.5 -9t46.5 -2q72 0 104 14t32 58q0 23 -5.5 37.5t-20 22t-40 10t-66.5 2.5h-52v73h52q66 0 96.5 12t30.5 54q0 18 -6 30t-21 19.5
t-40.5 10.5t-64.5 3q-23 0 -45.5 -2t-40.5 -9t-29 -21.5t-11 -39.5h-81q0 45 17 74t45.5 45.5t65.5 23t77 6.5q110 0 165 -29.5t55 -104.5q0 -31 -10.5 -59.5t-46.5 -45.5q21 -8 33.5 -20t19 -27t8.5 -32t2 -35z" />
    <glyph glyph-name="uni0438" unicode="&#x438;" horiz-adv-x="550" 
d="M398 0v363l-236 -363h-91v484h81v-363l237 363h90v-484h-81z" />
    <glyph glyph-name="uni0439" unicode="&#x439;" horiz-adv-x="550" 
d="M398 0v363l-236 -363h-91v484h81v-363l237 363h90v-484h-81zM418 667q0 -36 -7 -60.5t-24 -39.5t-44.5 -21.5t-67.5 -6.5q-41 0 -68 6.5t-44 21.5t-24 39.5t-7 60.5h63q0 -23 4.5 -36.5t14 -21t25 -9.5t36.5 -2t36.5 2t25 9.5t14 21t4.5 36.5h63z" />
    <glyph glyph-name="uni043A" unicode="&#x43a;" horiz-adv-x="497" 
d="M380 0l-225 230v-230h-85v484h85v-191l224 191h117l-262 -222l262 -262h-116z" />
    <glyph glyph-name="uni043B" unicode="&#x43b;" horiz-adv-x="535" 
d="M379 0v411h-142l-71 -302q-7 -26 -18 -48t-29.5 -37.5t-46 -24t-66.5 -8.5v72q21 0 35 5.5t23 16t15 26t11 34.5l79 339h295v-484h-85z" />
    <glyph glyph-name="uni043C" unicode="&#x43c;" horiz-adv-x="670" 
d="M518 0v348l-145 -348h-78l-144 348v-348h-81v484h107l159 -380l162 380h102v-484h-82z" />
    <glyph glyph-name="uni043D" unicode="&#x43d;" horiz-adv-x="548" 
d="M393 0v213h-238v-213h-85v484h85v-198h238v198h85v-484h-85z" />
    <glyph glyph-name="uni043E" unicode="&#x43e;" horiz-adv-x="555" 
d="M500 242q0 -74 -10 -120.5t-39 -75.5t-71.5 -41.5t-101.5 -12.5q-60 0 -102.5 12.5t-71.5 41.5t-39 75.5t-10 120.5t10 120.5t39 75.5t71.5 41.5t102.5 12.5q59 0 101.5 -12.5t71.5 -41.5t39 -75.5t10 -120.5zM414 242q0 45 -3.5 77.5t-17 54t-40.5 31.5t-75 10
t-75.5 -10.5t-41 -32t-17 -54t-3.5 -76.5t3.5 -76.5t17 -54t41 -32t75.5 -10.5t75.5 10.5t41 32t16.5 54t3 76.5z" />
    <glyph glyph-name="uni043F" unicode="&#x43f;" horiz-adv-x="548" 
d="M393 0v411h-238v-411h-85v484h408v-484h-85z" />
    <glyph glyph-name="uni0440" unicode="&#x440;" horiz-adv-x="557" 
d="M502 241q0 -47 -5.5 -91.5t-25.5 -79.5t-61 -56.5t-111 -21.5q-48 0 -83 12.5t-61 41.5v-237h-85v675h79v-48q27 29 67.5 42.5t88.5 13.5q67 0 106 -18.5t59 -51.5t26 -79t6 -102zM417 242q0 45 -4 77t-17 52.5t-36 30.5t-61 10q-41 0 -69 -7.5t-44.5 -26.5t-23.5 -52
t-7 -84t7 -84.5t23.5 -53t44.5 -27t69 -7.5q38 0 61 10t36 31t17 53.5t4 77.5z" />
    <glyph glyph-name="uni0441" unicode="&#x441;" horiz-adv-x="523" 
d="M473 141q0 -47 -18 -76t-46.5 -45.5t-64.5 -22t-72 -5.5q-74 0 -117 19t-65 52.5t-28.5 79.5t-6.5 100t6.5 99.5t28.5 79t65 52t117 18.5q36 0 72 -5.5t64.5 -22t46.5 -45.5t18 -76h-81q0 25 -11 39.5t-28 21.5t-38 9t-41 2q-46 0 -72.5 -10t-40 -31t-17 -53.5
t-3.5 -77.5t3.5 -77.5t17 -54t40 -32t72.5 -10.5q20 0 41 2t38 9t28 21.5t11 39.5h81v0z" />
    <glyph glyph-name="uni0442" unicode="&#x442;" horiz-adv-x="451" 
d="M268 411v-411h-85v411h-170v73h425v-73h-170z" />
    <glyph glyph-name="uni0443" unicode="&#x443;" horiz-adv-x="474" 
d="M205 -191h-87l76 197l-180 478h89l135 -379l133 379h89z" />
    <glyph glyph-name="uni0444" unicode="&#x444;" horiz-adv-x="827" 
d="M772 242q0 -53 -6 -98.5t-26.5 -79.5t-58 -53t-100.5 -19q-45 0 -76.5 14t-48.5 33v-230h-85v230q-17 -22 -50.5 -34.5t-78.5 -12.5q-64 0 -101.5 19t-56.5 52t-24 78.5t-5 99.5q0 55 5.5 101t24.5 79.5t56.5 52t100.5 18.5q44 0 77 -12t52 -35v253h85v-253
q23 22 53.5 34.5t76.5 12.5q63 0 100 -19t56 -52t24.5 -79t5.5 -100zM686 242q0 42 -3.5 74t-14.5 54t-31.5 33.5t-55.5 11.5t-59 -8t-39 -28t-22 -53t-7 -84q0 -50 7 -83.5t22 -53t39 -27.5t59 -8q34 0 55 11.5t32 33t14.5 53.5t3.5 74zM373 242q0 51 -7 84t-22 53t-39 28
t-59 8t-55.5 -11.5t-31.5 -33.5t-14.5 -54t-3.5 -74t3 -74t14 -53.5t32 -33t56 -11.5t59 8t39 27.5t22 53t7 83.5z" />
    <glyph glyph-name="uni0445" unicode="&#x445;" horiz-adv-x="495" 
d="M378 0l-131 188l-134 -188h-98l182 247l-175 237h102l124 -178l128 178h99l-177 -236l182 -248h-102z" />
    <glyph glyph-name="uni0446" unicode="&#x446;" horiz-adv-x="562" 
d="M452 -117v117h-382v484h85v-411h238v411h85v-411h54v-190h-80z" />
    <glyph glyph-name="uni0447" unicode="&#x447;" horiz-adv-x="530" 
d="M374 0v192q-16 -7 -48 -15t-86 -8q-49 0 -85 10.5t-60 34.5q-17 16 -25.5 36.5t-13 43.5t-5 49t-0.5 53v88h86v-97q0 -44 4.5 -71t24.5 -47q14 -14 34.5 -19t49.5 -5q32 0 64 4.5t60 18.5v216h85v-484h-85z" />
    <glyph glyph-name="uni0448" unicode="&#x448;" horiz-adv-x="759" 
d="M70 0v484h85v-411h182v411h85v-411h182v411h85v-484h-619z" />
    <glyph glyph-name="uni0449" unicode="&#x449;" horiz-adv-x="772" 
d="M663 -117v117h-593v484h85v-411h182v411h85v-411h182v411h85v-411h54v-190h-80z" />
    <glyph glyph-name="uni044A" unicode="&#x44a;" horiz-adv-x="558" 
d="M507 144q0 -31 -6.5 -61t-26.5 -48q-20 -19 -42 -25t-48 -8q-8 -1 -17 -1.5t-18 -0.5h-248v411h-101v73h186v-198h154q44 0 78 -6t57 -29q16 -16 24 -41.5t8 -65.5zM418 143q0 25 -5.5 39.5t-18.5 21t-35 8t-54 1.5h-119v-140h128q26 0 45.5 1.5t32.5 8.5t19.5 21t6.5 39
z" />
    <glyph glyph-name="uni044B" unicode="&#x44b;" horiz-adv-x="714" 
d="M476 144q0 -31 -6.5 -61t-26.5 -48q-20 -19 -42 -25t-48 -8q-8 -1 -17 -1.5t-18 -0.5h-248v484h85v-198h154q44 0 78 -6t57 -29q16 -16 24 -41.5t8 -65.5zM387 143q0 25 -5.5 39.5t-18.5 21t-35 8t-54 1.5h-119v-140h128q26 0 45.5 1.5t32.5 8.5t19.5 21t6.5 39zM559 0
v484h85v-484h-85z" />
    <glyph glyph-name="uni044C" unicode="&#x44c;" horiz-adv-x="528" 
d="M476 144q0 -31 -6.5 -61t-26.5 -48q-20 -19 -42 -25t-48 -8q-8 -1 -17 -1.5t-18 -0.5h-248v484h85v-198h154q44 0 78 -6t57 -29q16 -16 24 -41.5t8 -65.5zM387 143q0 25 -5.5 39.5t-18.5 21t-35 8t-54 1.5h-119v-140h128q26 0 45.5 1.5t32.5 8.5t19.5 21t6.5 39z" />
    <glyph glyph-name="uni044D" unicode="&#x44d;" horiz-adv-x="523" 
d="M131 141q0 -25 11 -39.5t28 -21.5t38 -9t41 -2q42 0 67.5 8.5t40 26.5t19.5 45t6 64h-172v73h171q-1 33 -7 57.5t-20 40t-39.5 23.5t-65.5 8q-20 0 -41 -2t-38 -9t-28 -21.5t-11 -39.5h-81q0 47 18 76t46.5 45.5t64.5 22t72 5.5q73 0 116.5 -18.5t65.5 -52t28.5 -79
t6.5 -99.5t-6.5 -100t-28.5 -79.5t-65.5 -52.5t-116.5 -19q-36 0 -72 5.5t-64.5 22t-46.5 45.5t-18 76h81z" />
    <glyph glyph-name="uni044E" unicode="&#x44e;" horiz-adv-x="769" 
d="M714 242q0 -74 -10 -120.5t-39 -75.5t-71.5 -41.5t-101.5 -12.5q-60 0 -102.5 12.5t-71.5 41.5q-26 26 -36.5 66.5t-11.5 100.5h-115v-213h-85v484h85v-198h115q2 55 12.5 91t35.5 61q29 29 71.5 41.5t102.5 12.5q59 0 101.5 -12.5t71.5 -41.5t39 -75.5t10 -120.5z
M628 242q0 45 -3.5 77.5t-17 54t-40.5 31.5t-75 10t-75.5 -10.5t-41 -32t-17 -54t-3.5 -76.5t3.5 -76.5t17 -54t41 -32t75.5 -10.5t75.5 10.5t41 32t16.5 54t3 76.5z" />
    <glyph glyph-name="uni044F" unicode="&#x44f;" horiz-adv-x="539" 
d="M384 0v204h-114q-30 0 -49 -0.5t-31 -2t-18.5 -4t-12.5 -7.5q-10 -8 -11.5 -27t-1.5 -36v-127h-85v129q0 16 0.5 33t5.5 33t16 28.5t32 19.5q-29 12 -41.5 38t-12.5 66q0 49 14 76.5t39 41t58 16.5t72 3h225v-484h-85zM384 411h-125q-32 0 -53.5 -1.5t-35 -8t-19.5 -20.5
t-6 -39q0 -24 6 -37t18 -19t30 -7.5t43 -1.5h142v134z" />
    <glyph glyph-name="uni0450" unicode="&#x450;" horiz-adv-x="538" 
d="M141 213q0 -38 4.5 -66t19 -46t40.5 -26.5t70 -8.5q20 0 41.5 2t39.5 10t29.5 22.5t11.5 40.5h80q0 -46 -18.5 -75t-47.5 -45.5t-65.5 -22.5t-72.5 -6q-71 0 -114 17.5t-66 49.5t-30.5 77.5t-7.5 101.5q0 57 7.5 104t30 80t65 51.5t112.5 18.5q76 0 119 -20.5t64 -57
t25.5 -88t4.5 -113.5h-342zM399 286q0 35 -4.5 60t-18.5 41.5t-39.5 24t-66.5 7.5q-39 0 -64 -8.5t-39.5 -25.5t-19.5 -42t-5 -57h257zM278 541l-133 126h96l133 -126h-96z" />
    <glyph glyph-name="uni0451" unicode="&#x451;" horiz-adv-x="538" 
d="M141 213q0 -38 4.5 -66t19 -46t40.5 -26.5t70 -8.5q20 0 41.5 2t39.5 10t29.5 22.5t11.5 40.5h80q0 -46 -18.5 -75t-47.5 -45.5t-65.5 -22.5t-72.5 -6q-71 0 -114 17.5t-66 49.5t-30.5 77.5t-7.5 101.5q0 57 7.5 104t30 80t65 51.5t112.5 18.5q76 0 119 -20.5t64 -57
t25.5 -88t4.5 -113.5h-342zM399 286q0 35 -4.5 60t-18.5 41.5t-39.5 24t-66.5 7.5q-39 0 -64 -8.5t-39.5 -25.5t-19.5 -42t-5 -57h257zM427 619q0 -49 -50 -49q-48 0 -48 49q0 26 11.5 37t36.5 11t37.5 -11t12.5 -37zM212 619q0 -49 -50 -49q-48 0 -48 49q0 26 11.5 37
t36.5 11t37.5 -11t12.5 -37z" />
    <glyph glyph-name="uni0452" unicode="&#x452;" horiz-adv-x="573" 
d="M423 255q0 39 -0.5 68.5t-9.5 49.5t-31 30t-65 10q-51 0 -78 -16t-39 -42t-13.5 -60.5t-1.5 -71.5v-223h-85v547h-78v69h78v81h85v-81h159v-69h-159v-106q23 23 56 37t84 14q74 0 112 -20.5t53.5 -53.5t16.5 -73.5t1 -79.5v-162q0 -72 -6 -126.5t-29.5 -92t-69.5 -56.5
t-126 -19v79q49 0 78 12t44 37.5t19.5 66t4.5 96.5v155z" />
    <glyph glyph-name="uni0453" unicode="&#x453;" horiz-adv-x="433" 
d="M155 411v-411h-85v484h358v-73h-273zM234 541h-96l133 126h96z" />
    <glyph glyph-name="uni0454" unicode="&#x454;" horiz-adv-x="523" 
d="M473 141q0 -47 -18 -76t-46.5 -45.5t-64.5 -22t-72 -5.5q-74 0 -117 19t-65 52.5t-28.5 79.5t-6.5 100t6.5 99.5t28.5 79t65 52t117 18.5q36 0 72 -5.5t64.5 -22t46.5 -45.5t18 -76h-81q0 25 -11 39.5t-28 21.5t-38 9t-41 2q-40 0 -65.5 -8t-39.5 -23.5t-20 -40t-7 -57.5
h171v-73h-172q1 -37 6 -64t19.5 -45t40 -26.5t67.5 -8.5q20 0 41 2t38 9t28 21.5t11 39.5h81v0z" />
    <glyph glyph-name="uni0455" unicode="&#x455;" horiz-adv-x="513" 
d="M384 343q0 42 -24 58.5t-86 17.5q-39 1 -64 -3t-39.5 -12.5t-20.5 -21t-6 -28.5q0 -28 7.5 -42t21 -20t32.5 -6.5t42 -1.5q41 -2 79.5 -3.5t68.5 -14t48 -41.5t18 -86q0 -43 -15 -71.5t-42.5 -45.5t-67.5 -23.5t-89 -6.5q-48 0 -84.5 7.5t-61.5 24.5t-38 45.5t-13 71.5
h79q0 -20 5.5 -34.5t18.5 -23.5t35.5 -13.5t57.5 -4.5q34 0 58.5 2.5t40.5 11t23.5 24t7.5 42.5q0 22 -6.5 34t-20.5 17.5t-35 7t-49 2.5q-40 1 -77 3.5t-66 15.5t-46 41t-17 82q0 43 15 71t43 44.5t67.5 22.5t88.5 6q44 0 79.5 -7.5t60 -24.5t37.5 -45.5t13 -71.5h-79z" />
    <glyph glyph-name="uni0456" unicode="&#x456;" horiz-adv-x="225" 
d="M162 624q0 -15 -5.5 -25t-13 -15.5t-16 -7.5t-15.5 -2t-15.5 2t-16 7.5t-13 15.5t-5.5 25t5.5 25t13 15.5t16 7.5t15.5 2t16 -2t16.5 -7.5t12.5 -15.5t5 -25zM70 0v484h85v-484h-85z" />
    <glyph glyph-name="uni0457" unicode="&#x457;" horiz-adv-x="225" 
d="M71 0v484h85v-484h-85zM269 619q0 -49 -50 -49q-48 0 -48 49q0 26 11.5 37t36.5 11t37.5 -11t12.5 -37zM54 619q0 -49 -50 -49q-48 0 -48 49q0 26 11.5 37t36.5 11t37.5 -11t12.5 -37z" />
    <glyph glyph-name="uni0458" unicode="&#x458;" horiz-adv-x="225" 
d="M163 624q0 -15 -5.5 -25t-13 -15.5t-16 -7.5t-15.5 -2t-15.5 2t-16 7.5t-13 15.5t-5.5 25t5.5 25t13 15.5t16 7.5t15.5 2t15.5 -2t16 -7.5t13 -15.5t5.5 -25zM155 -37q0 -42 -13 -72t-36.5 -49t-56.5 -27.5t-73 -8.5q-37 0 -68 7t-53 23t-35 41.5t-14 62.5h83
q0 -28 21 -45t66 -17q34 0 53 8t28 21.5t11 31t2 35.5v510h85v-521z" />
    <glyph glyph-name="uni0459" unicode="&#x459;" horiz-adv-x="825" 
d="M784 144q0 -31 -6.5 -61t-26.5 -48q-20 -19 -42 -25t-48 -8q-8 -1 -17 -1.5t-18 -0.5h-248v411h-141l-71 -302q-7 -26 -18 -48t-29.5 -37.5t-46 -24t-66.5 -8.5v72q21 0 35 5.5t23 16t15 26t11 34.5l79 339h294v-198h154q44 0 78 -6t57 -29q16 -16 24 -41.5t8 -65.5z
M695 143q0 25 -5.5 39.5t-18.5 21t-35 8t-54 1.5h-119v-140h128q26 0 45.5 1.5t32.5 8.5t19.5 21t6.5 39z" />
    <glyph glyph-name="uni045A" unicode="&#x45a;" horiz-adv-x="841" 
d="M800 144q0 -31 -6.5 -61t-26.5 -48q-20 -19 -42 -25t-48 -8q-8 -1 -17 -1.5t-18 -0.5h-248v213h-238v-213h-85v484h85v-198h238v198h85v-198h154q44 0 78 -6t57 -29q16 -16 24 -41.5t8 -65.5zM711 143q0 25 -5.5 39.5t-18.5 21t-35 8t-54 1.5h-119v-140h128
q26 0 45.5 1.5t32.5 8.5t19.5 21t6.5 39z" />
    <glyph glyph-name="uni045B" unicode="&#x45b;" horiz-adv-x="573" 
d="M22 616h78v81h85v-81h159v-69h-159v-106q23 23 56 37t84 14q74 0 112 -20.5t53.5 -53.5t16.5 -73.5t1 -79.5v-265h-85v255q0 39 -0.5 68.5t-9.5 49.5t-31 30t-65 10q-51 0 -78 -16t-39 -42t-13.5 -60.5t-1.5 -71.5v-223h-85v547h-78v69z" />
    <glyph glyph-name="uni045C" unicode="&#x45c;" horiz-adv-x="497" 
d="M293 541h-97l132 126h97zM380 0l-225 230v-230h-85v484h85v-191l224 191h117l-262 -222l262 -262h-116z" />
    <glyph glyph-name="uni045D" unicode="&#x45d;" horiz-adv-x="550" 
d="M398 0v363l-236 -363h-91v484h81v-363l237 363h90v-484h-81zM283 541l-133 126h96l133 -126h-96z" />
    <glyph glyph-name="uni045E" unicode="&#x45e;" horiz-adv-x="472" 
d="M205 -191h-87l76 197l-180 478h89l135 -379l133 379h89zM378 667q0 -36 -7 -60.5t-24 -39.5t-44.5 -21.5t-67.5 -6.5q-41 0 -68 6.5t-44 21.5t-24 39.5t-7 60.5h63q0 -23 4.5 -36.5t14 -21t25 -9.5t36.5 -2t36.5 2t25 9.5t14 21t4.5 36.5h63z" />
    <glyph glyph-name="uni045F" unicode="&#x45f;" horiz-adv-x="550" 
d="M315 0v-117h-80v117h-165v484h85v-411h238v411h85v-484h-163z" />
    <glyph glyph-name="uni0462" unicode="&#x462;" horiz-adv-x="710" 
d="M668 194q0 -71 -19.5 -110t-54 -57.5t-83 -22.5t-105.5 -4h-230v486h-178v80h178v101h89v-101h208v-80h-208v-105h141q57 0 105 -3t83 -20.5t54.5 -55.5t19.5 -108zM580 192q0 46 -13.5 67t-31.5 30q-24 12 -60 12.5t-71 0.5h-139v-222h139q35 0 71 0.5t60 12.5
q18 9 31.5 31t13.5 68z" />
    <glyph glyph-name="uni0463" unicode="&#x463;" horiz-adv-x="558" 
d="M507 144q0 -31 -6.5 -61t-26.5 -48q-20 -19 -42 -25t-48 -8q-8 -1 -17 -1.5t-18 -0.5h-248v411h-101v73h101v183h85v-183h214v-73h-214v-125h154q44 0 78 -6t57 -29q16 -16 24 -41.5t8 -65.5zM418 143q0 25 -5.5 39.5t-18.5 21t-35 8t-54 1.5h-119v-140h128
q26 0 45.5 1.5t32.5 8.5t19.5 21t6.5 39z" />
    <glyph glyph-name="uni0472" unicode="&#x472;" horiz-adv-x="674" 
d="M602 335q0 -78 -5 -141.5t-30.5 -108t-79 -69t-150.5 -24.5q-99 0 -153 25.5t-79 70.5t-29 108t-4 138t4 137.5t28.5 107.5t78.5 70t153 25t153 -24.5t79 -69.5t29.5 -107.5t4.5 -137.5zM484 126q7 12 12.5 26t9 34.5t5.5 48.5t2 67h-353q0 -39 2 -67.5t5.5 -48.5
t8.5 -34t13 -26q17 -28 51 -40t97 -12q62 0 95.5 12t51.5 40zM188 540q-7 -11 -12 -24t-8.5 -31.5t-5 -43.5t-2.5 -59h353q-1 34 -3 59t-5.5 43.5t-8.5 32t-12 24.5q-18 28 -51.5 40t-96.5 12t-97 -12.5t-51 -40.5z" />
    <glyph glyph-name="uni0473" unicode="&#x473;" horiz-adv-x="555" 
d="M500 242q0 -74 -10 -120.5t-39 -75.5t-71.5 -41.5t-101.5 -12.5q-60 0 -102.5 12.5t-71.5 41.5t-39 75.5t-10 120.5t10 120.5t39 75.5t71.5 41.5t102.5 12.5q59 0 101.5 -12.5t71.5 -41.5t39 -75.5t10 -120.5zM278 69q44 0 70.5 8.5t41 26.5t19 45t5.5 64h-273
q1 -37 6 -64t19 -45t41 -26.5t71 -8.5zM278 415q-42 0 -68 -8t-41 -24t-21 -40t-7 -57h272q-1 33 -7 57.5t-20.5 40.5t-40.5 23.5t-67 7.5z" />
    <glyph glyph-name="uni0474" unicode="&#x474;" horiz-adv-x="613" 
d="M252 0l-248 667h94l199 -548l142 389q15 40 27.5 71t30 52t44 32.5t68.5 11.5v-79q-20 0 -33.5 -8t-23 -22.5t-17 -34t-15.5 -41.5l-182 -490h-86z" />
    <glyph glyph-name="uni0475" unicode="&#x475;" horiz-adv-x="497" 
d="M203 0l-190 484h91l144 -383l102 272q12 32 22.5 54.5t24.5 37t34.5 21.5t52.5 7v-70q-14 0 -23 -6.5t-16 -17.5t-12.5 -26.5t-12.5 -33.5l-132 -339h-85z" />
    <glyph glyph-name="uni0490" unicode="&#x490;" horiz-adv-x="525" 
d="M173 587v-587h-89v667h345v99h83v-179h-339z" />
    <glyph glyph-name="uni0491" unicode="&#x491;" horiz-adv-x="433" 
d="M155 411v-411h-85v484h278v98h80v-171h-273z" />
    <glyph glyph-name="Wgrave" unicode="&#x1e80;" horiz-adv-x="884" 
d="M685 0h-94l-149 545l-148 -545h-98l-160 667h90l125 -534l145 534h94l144 -534l127 534h87zM440 736l-133 126h96l133 -126h-96z" />
    <glyph glyph-name="wgrave" unicode="&#x1e81;" horiz-adv-x="713" 
d="M555 0h-89l-108 378l-108 -378h-91l-139 484h89l100 -377l105 377h87l106 -377l100 377h86zM365 541l-133 126h96l133 -126h-96z" />
    <glyph glyph-name="Wacute" unicode="&#x1e82;" horiz-adv-x="884" 
d="M685 0h-94l-149 545l-148 -545h-98l-160 667h90l125 -534l145 534h94l144 -534l127 534h87zM469 736h-96l133 126h96z" />
    <glyph glyph-name="wacute" unicode="&#x1e83;" horiz-adv-x="713" 
d="M555 0h-89l-108 378l-108 -378h-91l-139 484h89l100 -377l105 377h87l106 -377l100 377h86zM366 541h-96l133 126h96z" />
    <glyph glyph-name="Wdieresis" unicode="&#x1e84;" horiz-adv-x="884" 
d="M685 0h-94l-149 545l-148 -545h-98l-160 667h90l125 -534l145 534h94l144 -534l127 534h87zM599 815q0 -49 -50 -49q-48 0 -48 49q0 26 11.5 37t36.5 11t37.5 -11t12.5 -37zM384 815q0 -49 -50 -49q-48 0 -48 49q0 26 11.5 37t36.5 11t37.5 -11t12.5 -37z" />
    <glyph glyph-name="wdieresis" unicode="&#x1e85;" horiz-adv-x="713" 
d="M555 0h-89l-108 378l-108 -378h-91l-139 484h89l100 -377l105 377h87l106 -377l100 377h86zM515 619q0 -49 -50 -49q-48 0 -48 49q0 26 11.5 37t36.5 11t37.5 -11t12.5 -37zM300 619q0 -49 -50 -49q-48 0 -48 49q0 26 11.5 37t36.5 11t37.5 -11t12.5 -37z" />
    <glyph glyph-name="Ygrave" unicode="&#x1ef2;" horiz-adv-x="568" 
d="M329 291v-291h-89v291l-238 376h102l182 -295l180 295h100zM294 736l-133 126h96l133 -126h-96z" />
    <glyph glyph-name="ygrave" unicode="&#x1ef3;" horiz-adv-x="472" 
d="M205 -191h-87l76 197l-180 478h89l135 -379l133 379h89zM254 541l-133 126h96l133 -126h-96z" />
    <glyph glyph-name="figuredash" unicode="&#x2012;" horiz-adv-x="582" 
d="M38 204v77h506v-77h-506z" />
    <glyph glyph-name="endash" unicode="&#x2013;" horiz-adv-x="582" 
d="M32 204v77h518v-77h-518z" />
    <glyph glyph-name="emdash" unicode="&#x2014;" horiz-adv-x="1003" 
d="M99 204v77h805v-77h-805z" />
    <glyph glyph-name="quoteleft" unicode="&#x2018;" horiz-adv-x="222" 
d="M210 625q-18 -17 -29 -27.5t-17 -21.5t-8.5 -24.5t-2.5 -35.5v-93h-79v93q0 42 8.5 70t37.5 55l37 35l53 -51v0z" />
    <glyph glyph-name="quoteright" unicode="&#x2019;" horiz-adv-x="222" 
d="M148 574q0 -42 -8.5 -70t-37.5 -55l-37 -35l-53 51q18 16 29 27t17 22t8.5 24.5t2.5 35.5v93h79v-93v0z" />
    <glyph glyph-name="quotesinglbase" unicode="&#x201a;" horiz-adv-x="222" 
d="M148 9q0 -42 -8.5 -70t-37.5 -55l-37 -35l-53 51q18 16 29 27t17 22t8.5 24.5t2.5 35.5v93h79v-93v0z" />
    <glyph glyph-name="quotedblleft" unicode="&#x201c;" horiz-adv-x="394" 
d="M382 625q-18 -17 -29 -27.5t-17 -21.5t-8.5 -24.5t-2.5 -35.5v-93h-79v93q0 42 8.5 70t37.5 55l37 35zM208 626q-18 -17 -28.5 -27.5t-16.5 -21.5t-8 -24.5t-2 -35.5v-94h-79v94q0 42 7 70.5t36 54.5l37 34z" />
    <glyph glyph-name="quotedblright" unicode="&#x201d;" horiz-adv-x="393" 
d="M319 574q0 -42 -7.5 -70t-35.5 -55l-37 -35l-53 51q18 16 28.5 27t16 22t7.5 24.5t2 35.5v93h79v-93zM148 574q0 -42 -8.5 -70t-37.5 -55l-37 -35l-53 51q18 16 29 27t17 22t8.5 24.5t2.5 35.5v93h79v-93z" />
    <glyph glyph-name="quotedblbase" unicode="&#x201e;" horiz-adv-x="394" 
d="M320 9q0 -42 -7.5 -70t-35.5 -55l-37 -35l-54 51q18 16 28.5 27t16.5 22t8 24.5t2 35.5v93h79v-93zM148 9q0 -42 -8.5 -70t-37.5 -55l-37 -35l-53 51q18 16 29 27t17 22t8.5 24.5t2.5 35.5v93h79v-93z" />
    <glyph glyph-name="dagger" unicode="&#x2020;" horiz-adv-x="569" 
d="M326 411v-502h-83v502h-148v73h148v183h83v-183h148v-73h-148z" />
    <glyph glyph-name="daggerdbl" unicode="&#x2021;" horiz-adv-x="569" 
d="M326 196v-287h-83v287h-148v73h148v142h-148v73h148v183h83v-183h148v-73h-148v-142h148v-73h-148z" />
    <glyph glyph-name="bullet" unicode="&#x2022;" horiz-adv-x="497" 
d="M356 334q0 -57 -25 -82t-82 -25t-82.5 25t-25.5 82t25.5 82.5t82.5 25.5t82 -25.5t25 -82.5z" />
    <glyph glyph-name="ellipsis" unicode="&#x2026;" horiz-adv-x="990" 
d="M880 48q0 -26 -14 -41t-40 -15q-27 0 -41.5 15t-14.5 41q0 27 14.5 40.5t40.5 13.5q55 0 55 -54zM550 48q0 -26 -14 -41t-40 -15q-27 0 -41.5 15t-14.5 41q0 27 14.5 40.5t40.5 13.5q54 0 54 -54h1zM220 48q0 -26 -14 -41t-40 -15q-27 0 -41.5 15t-14.5 41
q0 27 14.5 40.5t40.5 13.5q54 0 54 -54h1z" />
    <glyph glyph-name="perthousand" unicode="&#x2030;" horiz-adv-x="1213" 
d="M66 500q0 34 3.5 65t17 55t41 38.5t76.5 14.5t77 -14.5t42 -39t17 -55.5t3 -64v-33q0 -39 -1 -76t-13.5 -66t-41 -46.5t-83.5 -17.5q-49 0 -77 14.5t-41.5 38.5t-16.5 55.5t-3 64.5v33v33zM279 467q0 56 -2 81.5t-6 36.5q-6 14 -20 22.5t-47 8.5q-34 0 -48 -9.5
t-19 -25.5q-4 -11 -5.5 -36t-1.5 -78q0 -57 2 -82.5t6 -35.5q6 -15 20 -23.5t46 -8.5q35 0 49 9.5t19 26.5q4 11 5.5 36t1.5 78zM534 233q0 34 3.5 65t17 55t41 38.5t76.5 14.5t77 -14.5t42 -39t17 -55.5t3 -64v-33q0 -39 -1 -76t-13.5 -66t-41 -46.5t-83.5 -17.5
q-49 0 -77 14.5t-41.5 38.5t-16.5 55.5t-3 64.5v33v33zM747 200q0 56 -2 81.5t-6 36.5q-6 14 -20 22.5t-47 8.5q-34 0 -48 -9.5t-19 -25.5q-4 -11 -5.5 -36t-1.5 -78q0 -57 2 -82.5t6 -35.5q6 -15 20 -23.5t46 -8.5q35 0 49 9.5t19 26.5q4 11 5.5 36t1.5 78zM869 233
q0 34 3.5 65t17 55t41 38.5t76.5 14.5t77 -14.5t42 -39t17 -55.5t3 -64v-33q0 -39 -1 -76t-13.5 -66t-41 -46.5t-83.5 -17.5q-49 0 -77 14.5t-41.5 38.5t-16.5 55.5t-3 64.5v33v33zM1082 200q0 56 -2 81.5t-6 36.5q-6 14 -20 22.5t-47 8.5q-34 0 -48 -9.5t-19 -25.5
q-4 -11 -5.5 -36t-1.5 -78q0 -57 2 -82.5t6 -35.5q6 -15 20 -23.5t46 -8.5q35 0 49 9.5t19 26.5q4 11 5.5 36t1.5 78zM304 0h-68l336 667h70z" />
    <glyph glyph-name="guilsinglleft" unicode="&#x2039;" horiz-adv-x="275" 
d="M195 355q-26 -26 -48.5 -54.5t-22.5 -60.5q0 -17 7 -33t18.5 -31t26 -29.5l28.5 -28.5l31 -31l-55 -52q-21 20 -45.5 43t-44.5 48.5t-33.5 53.5t-13.5 59q0 30 13.5 59.5t34.5 56.5t45 51t45 44l55 -53z" />
    <glyph glyph-name="guilsinglright" unicode="&#x203a;" horiz-adv-x="275" 
d="M232 239q0 -31 -13.5 -59t-33.5 -53.5t-44.5 -48.5t-45.5 -43l-55 52l31 31l28.5 28.5t26 29.5t18.5 31t7 33q0 32 -22.5 60.5t-48.5 54.5l-41 42l55 53q21 -20 45 -44t45 -51t34.5 -56.5t13.5 -59.5z" />
    <glyph glyph-name="fraction" unicode="&#x2044;" horiz-adv-x="58" 
d="M-106 0h-68l336 667h70z" />
    <glyph glyph-name="uni2070" unicode="&#x2070;" 
d="M66 500q0 34 3.5 65t17 55t41 38.5t76.5 14.5t77 -14.5t42 -39t17 -55.5t3 -64v-33q0 -39 -1 -76t-13.5 -66t-41 -46.5t-83.5 -17.5q-49 0 -77 14.5t-41.5 38.5t-16.5 55.5t-3 64.5v33v33zM279 467q0 56 -2 81.5t-6 36.5q-6 14 -20 22.5t-47 8.5q-34 0 -48 -9.5
t-19 -25.5q-4 -11 -5.5 -36t-1.5 -78q0 -57 2 -82.5t6 -35.5q6 -15 20 -23.5t46 -8.5q35 0 49 9.5t19 26.5q4 11 5.5 36t1.5 78z" />
    <glyph glyph-name="uni2074" unicode="&#x2074;" 
d="M291 365v-98h-61v98h-181v47l184 255h58v-249h58v-53h-58zM230 573l-110 -155h110v155z" />
    <glyph glyph-name="uni2075" unicode="&#x2075;" 
d="M135 362q0 -26 17.5 -35.5t55.5 -9.5q45 0 61.5 17.5t16.5 59.5t-14 61.5t-60 19.5q-31 0 -49.5 -9.5t-20.5 -32.5h-61v234h246v-55h-185v-104q10 9 26.5 16t49.5 7q75 0 102.5 -33.5t27.5 -100.5q0 -76 -35.5 -106t-104.5 -30q-29 0 -53.5 4.5t-42.5 16t-28.5 31
t-10.5 49.5h62z" />
    <glyph glyph-name="uni2076" unicode="&#x2076;" 
d="M272 572q-1 24 -15.5 34.5t-46.5 10.5q-30 0 -45.5 -9t-22 -24t-7.5 -36t-1 -45q14 12 34.5 19.5t46.5 7.5q67 0 97 -30.5t30 -104.5q0 -69 -32 -101.5t-101 -32.5q-38 0 -64 9.5t-42.5 31.5t-23.5 58t-7 90q0 45 1 80t6 55q9 47 42 67.5t89 20.5q26 0 48.5 -5
t39.5 -16.5t26.5 -31t9.5 -48.5h-62zM279 394q0 46 -15 63t-52 17q-40 0 -58 -19.5t-18 -57.5q0 -42 17.5 -61t55.5 -19q39 0 54.5 17t15.5 60z" />
    <glyph glyph-name="uni2077" unicode="&#x2077;" 
d="M175 267h-68l173 344h-200v56h267v-46z" />
    <glyph glyph-name="uni2078" unicode="&#x2078;" 
d="M205 500q45 0 58 13.5t13 45.5q0 31 -14 45t-57 14q-42 0 -56.5 -14t-14.5 -45q0 -32 13.5 -45.5t57.5 -13.5zM205 316q40 0 57.5 13.5t17.5 51.5q0 42 -17 54t-58 12q-40 0 -57 -13.5t-17 -52.5q0 -38 17 -51.5t57 -13.5zM342 380q0 -69 -35.5 -94t-101.5 -25
q-65 0 -101 25.5t-36 93.5q0 34 9 58.5t35 35.5q-25 11 -32.5 34t-7.5 55q0 62 32 86t101 24t101.5 -24t32.5 -86q0 -32 -7.5 -54.5t-32.5 -34.5q26 -11 34.5 -35.5t8.5 -58.5z" />
    <glyph glyph-name="uni2079" unicode="&#x2079;" 
d="M138 362q1 -24 15.5 -34.5t46.5 -10.5q30 0 45.5 8.5t22 24t7.5 36t1 44.5q-14 -12 -34.5 -19t-46.5 -7q-67 0 -97 30t-30 104q0 69 32 102t101 33q38 0 64 -9.5t42.5 -31.5t23.5 -58.5t7 -89.5q0 -45 -1 -80t-6 -55q-9 -47 -42 -67.5t-89 -20.5q-26 0 -48.5 5
t-39.5 16.5t-26.5 31t-9.5 48.5h62zM131 539q0 -45 15 -62t52 -17q40 0 58 19t18 57q0 43 -17.5 61.5t-55.5 18.5q-39 0 -54.5 -17t-15.5 -60z" />
    <glyph glyph-name="uni207D" unicode="&#x207d;" horiz-adv-x="226" 
d="M66 463q0 75 3 129.5t18.5 90.5t48 53.5t90.5 17.5v-60q-38 0 -57.5 -12t-28 -39t-9.5 -71.5t-1 -108.5q0 -63 1 -106.5t9.5 -71t28 -40t57.5 -12.5v-60q-58 0 -90.5 17.5t-48 53.5t-18.5 90.5t-3 128.5z" />
    <glyph glyph-name="uni207E" unicode="&#x207e;" horiz-adv-x="226" 
d="M160 463q0 -75 -3.5 -129.5t-19 -90t-47.5 -53t-90 -17.5v60q37 0 57 12.5t28 39.5t9 71t1 107q0 65 -1 109t-9.5 71t-28 39t-56.5 12v60q58 0 90 -17.5t47.5 -53.5t19 -90.5t3.5 -129.5z" />
    <glyph glyph-name="uni2080" unicode="&#x2080;" 
d="M66 233q0 34 3.5 65t17 55t41 38.5t76.5 14.5t77 -14.5t42 -39t17 -55.5t3 -64v-33q0 -39 -1 -76t-13.5 -66t-41 -46.5t-83.5 -17.5q-49 0 -77 14.5t-41.5 38.5t-16.5 55.5t-3 64.5v33v33zM279 200q0 56 -2 81.5t-6 36.5q-6 14 -20 22.5t-47 8.5q-34 0 -48 -9.5
t-19 -25.5q-4 -11 -5.5 -36t-1.5 -78q0 -57 2 -82.5t6 -35.5q6 -15 20 -23.5t46 -8.5q35 0 49 9.5t19 26.5q4 11 5.5 36t1.5 78z" />
    <glyph glyph-name="uni2081" unicode="&#x2081;" 
d="M89 0v55h89v258l-63 -55l-38 42l113 100h51v-345h91v-55h-243z" />
    <glyph glyph-name="uni2082" unicode="&#x2082;" 
d="M346 287q0 -31 -6.5 -49.5t-18.5 -30t-28.5 -18.5t-36.5 -14q-17 -6 -34.5 -12t-33 -12t-27.5 -13.5t-18 -17.5q-3 -5 -5 -12t-2 -21v-31h209v-56h-272v97q0 36 14 57t35.5 34t49 20t54.5 15q32 10 44.5 22t12.5 42q0 37 -15.5 50t-58.5 13q-38 0 -56.5 -8.5t-18.5 -39.5
h-62q0 31 10.5 51t28.5 32t43 16.5t54 4.5q65 0 101.5 -26t36.5 -93z" />
    <glyph glyph-name="uni2083" unicode="&#x2083;" 
d="M349 114q0 -35 -10 -58.5t-28.5 -37t-45 -19t-58.5 -5.5q-30 0 -55.5 5t-43.5 17t-28.5 32.5t-10.5 52.5h62q1 -29 17.5 -40t58.5 -11q23 0 38.5 2t24.5 8.5t13 19t4 33.5q0 23 -3.5 36.5t-12.5 21t-24 9.5t-38 2h-59v55h59q19 0 33 1.5t23 7t13.5 16.5t4.5 29
q0 15 -2.5 26.5t-10 18.5t-22.5 10.5t-39 3.5q-43 0 -59.5 -11t-16.5 -40h-61q0 31 10 52t28.5 33t43.5 17t55 5q69 0 102.5 -25.5t33.5 -87.5q0 -30 -6 -50t-27 -34q20 -12 28.5 -33.5t8.5 -61.5z" />
    <glyph glyph-name="uni2084" unicode="&#x2084;" 
d="M291 98v-98h-61v98h-181v47l184 255h58v-249h58v-53h-58zM230 306l-110 -155h110v155z" />
    <glyph glyph-name="uni2085" unicode="&#x2085;" 
d="M135 95q0 -26 17.5 -35.5t55.5 -9.5q45 0 61.5 17.5t16.5 59.5t-14 61.5t-60 19.5q-31 0 -49.5 -9.5t-20.5 -32.5h-61v234h246v-55h-185v-104q10 9 26.5 16t49.5 7q75 0 102.5 -33.5t27.5 -100.5q0 -76 -35.5 -106t-104.5 -30q-29 0 -53.5 4.5t-42.5 16t-28.5 31
t-10.5 49.5h62z" />
    <glyph glyph-name="uni2086" unicode="&#x2086;" 
d="M268 305q-1 24 -15.5 34.5t-46.5 10.5q-30 0 -45.5 -9t-22 -24t-7.5 -36t-1 -45q14 12 34.5 19.5t46.5 7.5q67 0 97 -30.5t30 -104.5q0 -69 -32 -101.5t-101 -32.5q-38 0 -64 9.5t-42.5 31.5t-23.5 58t-7 90q0 45 1 80t6 55q9 47 42 67.5t89 20.5q26 0 48.5 -5
t39.5 -16.5t26.5 -31t9.5 -48.5h-62zM275 127q0 46 -15 63t-52 17q-40 0 -58 -19.5t-18 -57.5q0 -42 17.5 -61t55.5 -19q39 0 54.5 17t15.5 60z" />
    <glyph glyph-name="uni2087" unicode="&#x2087;" 
d="M175 0h-68l173 344h-200v56h267v-46z" />
    <glyph glyph-name="uni2088" unicode="&#x2088;" 
d="M205 233q45 0 58 13.5t13 45.5q0 31 -14 45t-57 14q-42 0 -56.5 -14t-14.5 -45q0 -32 13.5 -45.5t57.5 -13.5zM205 49q40 0 57.5 13.5t17.5 51.5q0 42 -17 54t-58 12q-40 0 -57 -13.5t-17 -52.5q0 -38 17 -51.5t57 -13.5zM342 113q0 -69 -35.5 -94t-101.5 -25
q-65 0 -101 25.5t-36 93.5q0 34 9 58.5t35 35.5q-25 11 -32.5 34t-7.5 55q0 62 32 86t101 24t101.5 -24t32.5 -86q0 -32 -7.5 -54.5t-32.5 -34.5q26 -11 34.5 -35.5t8.5 -58.5z" />
    <glyph glyph-name="uni2089" unicode="&#x2089;" 
d="M138 95q1 -24 15.5 -34.5t46.5 -10.5q30 0 45.5 8.5t22 24t7.5 36t1 44.5q-14 -12 -34.5 -19t-46.5 -7q-67 0 -97 30t-30 104q0 69 32 102t101 33q38 0 64 -9.5t42.5 -31.5t23.5 -58.5t7 -89.5q0 -45 -1 -80t-6 -55q-9 -47 -42 -67.5t-89 -20.5q-26 0 -48.5 5t-39.5 16.5
t-26.5 31t-9.5 48.5h62zM131 272q0 -45 15 -62t52 -17q40 0 58 19t18 57q0 43 -17.5 61.5t-55.5 18.5q-39 0 -54.5 -17t-15.5 -60z" />
    <glyph glyph-name="uni208D" unicode="&#x208d;" horiz-adv-x="226" 
d="M66 196q0 75 3 129.5t18.5 90.5t48 53.5t90.5 17.5v-60q-38 0 -57.5 -12t-28 -39t-9.5 -71.5t-1 -108.5q0 -63 1 -106.5t9.5 -71t28 -40t57.5 -12.5v-60q-58 0 -90.5 17.5t-48 53.5t-18.5 90.5t-3 128.5z" />
    <glyph glyph-name="uni208E" unicode="&#x208e;" horiz-adv-x="226" 
d="M160 196q0 -75 -3.5 -129.5t-19 -90t-47.5 -53t-90 -17.5v60q37 0 57 12.5t28 39.5t9 71t1 107q0 65 -1 109t-9.5 71t-28 39t-56.5 12v60q58 0 90 -17.5t47.5 -53.5t19 -90.5t3.5 -129.5z" />
    <glyph glyph-name="franc" unicode="&#x20a3;" horiz-adv-x="956" 
d="M172 587v-205h331v-80h-331v-302h-88v667h428v-80h-340zM864 243q0 41 -19 55.5t-68 14.5q-47 0 -70.5 -20t-34 -50.5t-11 -66.5t-0.5 -68v-108h-85v382h80v-47q46 55 137 55q75 0 114 -35.5t39 -111.5h-82z" />
    <glyph glyph-name="lira" unicode="&#x20a4;" horiz-adv-x="578" 
d="M53 0v78h61v128h-61v72h61v57h-61v72h61v51v44t3.5 43.5t12 41.5t26.5 37q27 26 70 38t97 12q32 0 68 -3.5t67 -19t51 -47.5t20 -89h-82q0 27 -8 43t-23 24.5t-36 11t-47 2.5q-47 0 -73.5 -7.5t-39.5 -23.5t-16.5 -42t-3.5 -63v-53h285v-72h-285v-57h285v-72h-285v-128
h338v-78h-485z" />
    <glyph glyph-name="peseta" unicode="&#x20a7;" horiz-adv-x="1613" 
d="M573 477q0 -71 -19.5 -110t-54 -57.5t-83 -22.5t-105.5 -4h-138v-283h-89v667h227q57 0 105 -3.5t83 -21.5t54.5 -56.5t19.5 -108.5zM485 475q0 46 -13.5 68t-31.5 31q-24 12 -60 12.5t-71 0.5h-136v-224h136q35 0 71 0.5t60 12.5q18 9 31.5 31t13.5 68zM1056 141
q0 -42 -13 -70.5t-36 -46t-54 -25t-68 -7.5q-82 0 -124.5 36t-42.5 115v268h-80v73h80v183h85v-183h214v-73h-214v-268q0 -43 19.5 -60.5t66.5 -17.5t67.5 18t20.5 58h79zM1460 343q0 42 -24 58.5t-86 17.5q-39 1 -64 -3t-39.5 -12.5t-20.5 -21t-6 -28.5q0 -28 7.5 -42
t21 -20t32.5 -6.5t42 -1.5q41 -2 79.5 -3.5t68.5 -14t48 -41.5t18 -86q0 -43 -15 -71.5t-42.5 -45.5t-67.5 -23.5t-89 -6.5q-48 0 -84.5 7.5t-61.5 24.5t-38 45.5t-13 71.5h79q0 -20 5.5 -34.5t18.5 -23.5t35.5 -13.5t57.5 -4.5q34 0 58.5 2.5t40.5 11t23.5 24t7.5 42.5
q0 22 -6.5 34t-20.5 17.5t-35 7t-49 2.5q-40 1 -77 3.5t-66 15.5t-46 41t-17 82q0 43 15 71t43 44.5t67.5 22.5t88.5 6q44 0 79.5 -7.5t60 -24.5t37.5 -45.5t13 -71.5h-79z" />
    <glyph glyph-name="Euro" unicode="&#x20ac;" horiz-adv-x="582" 
d="M532 152q0 -49 -16.5 -80t-44.5 -48.5t-65 -24t-79 -6.5q-66 0 -108.5 16t-67 47t-34.5 76t-11 102h-59v72h59v57h-60v72h60q1 58 11.5 102.5t35 75t67 46t107.5 15.5q40 0 77.5 -6.5t65.5 -24t45 -48.5t17 -80h-86q0 26 -8.5 42t-24 24.5t-37.5 11.5t-49 3
q-45 0 -71.5 -11t-40.5 -31.5t-18 -50.5t-5 -68h179v-72h-180v-57h179v-72h-178q1 -39 5 -69t17.5 -51t40 -31.5t71.5 -10.5q27 0 49.5 2.5t38 11t24 24.5t8.5 42h86v0z" />
    <glyph glyph-name="uni2113" unicode="&#x2113;" horiz-adv-x="500" 
d="M249 269q-11 -56 -17.5 -90.5t-10 -56.5t-4.5 -35t-1 -26q0 -25 18 -25q25 0 51 54q5 11 9 14.5t10 3.5q13 0 13 -15q0 -11 -7 -27t-19 -33q-19 -24 -37 -35.5t-39 -11.5q-32 0 -49.5 23t-17.5 65q0 10 0.5 20t1.5 23.5t3 33t5 50.5q-23 -21 -33.5 -29.5t-15.5 -8.5
t-9.5 5t-4.5 11q0 5 4.5 11t15.5 16l9.5 9.5t14 14.5t15 15.5t11.5 12.5q41 215 89 317.5t108 102.5q29 0 46 -22t17 -59q0 -41 -17.5 -92.5t-46.5 -99.5q-18 -29 -44 -61t-68 -75zM260 333q61 69 93 134.5t32 125.5q0 20 -6 32t-17 12t-22.5 -12t-18.5 -32
q-14 -40 -30 -106.5t-31 -153.5z" />
    <glyph glyph-name="uni2116" unicode="&#x2116;" horiz-adv-x="1044" 
d="M990 318q0 -53 -7 -84t-29 -53q-22 -21 -53 -29.5t-73 -8.5q-43 0 -74.5 8.5t-53.5 29.5q-21 21 -28 52.5t-7 84.5q0 52 7 83.5t28 52.5q22 21 53.5 29.5t74.5 8.5q42 0 73 -8.5t53 -29.5q22 -22 29 -53t7 -83zM675 0v70h305v-70h-305zM917 318q0 41 -4.5 57.5
t-13.5 25.5q-8 8 -25 13.5t-46 5.5q-32 0 -50 -6t-27 -18t-11 -31.5t-2 -46.5t2 -46.5t11 -31.5t27 -18t50 -6q31 0 49 6t27 18t11 31.5t2 46.5zM477 0l-307 520v-520h-86v667h93l308 -517v517h86v-667h-94z" />
    <glyph glyph-name="trademark" unicode="&#x2122;" horiz-adv-x="846" 
d="M730 233v321l-118 -321h-64l-115 320v-320h-61v434h80l130 -350l131 350h78v-434h-61zM211 610v-377h-65v377h-128v57h320v-57h-127z" />
    <glyph glyph-name="Omega" unicode="&#x2126;" horiz-adv-x="674" 
d="M602 334q0 -44 -1 -83t-7 -71.5t-18.5 -58t-36.5 -42.5h63v-79h-231v75q52 4 76.5 18t37.5 33q7 10 12.5 22t9 33.5t5 57.5t1.5 95q0 48 -1.5 81.5t-5 57t-9 39.5t-13.5 29q-18 28 -51.5 40t-96.5 12t-97 -12.5t-51 -40.5q-8 -13 -13.5 -28.5t-8.5 -39t-4.5 -57
t-1.5 -81.5q0 -59 2 -94.5t5.5 -57.5t9 -33.5t12.5 -22.5q13 -20 37 -34t76 -17v-75h-230v79h63q-24 17 -37 42.5t-18.5 58t-6.5 71.5t-1 83q0 75 4 137.5t28.5 107.5t78.5 70t153 25q66 0 111.5 -11t75 -32.5t45.5 -51.5t23.5 -67.5t9 -82.5t1.5 -95z" />
    <glyph glyph-name="estimated" unicode="&#x212e;" horiz-adv-x="798" 
d="M170 311q-6 0 -6 -4v-181q0 -10 9 -21q43 -45 101 -71.5t126 -26.5q72 0 133 29.5t105 80.5h54q-51 -59 -127 -94.5t-166 -35.5q-77 0 -144 26t-117.5 71.5t-79.5 106t-29 129.5t29 129.5t79.5 105.5t117.5 71t144 26q76 0 143.5 -26t118 -71t79.5 -105.5t29 -129.5v-9
h-599zM634 516q0 12 -10 22q-43 44 -100.5 69t-123.5 25q-67 0 -125 -26t-101 -71q-10 -10 -10 -23v-177q0 -5 6 -5h459q5 0 5 5v181z" />
    <glyph glyph-name="onethird" unicode="&#x2153;" horiz-adv-x="878" 
d="M817 114q0 -35 -10 -58.5t-28.5 -37t-45 -19t-58.5 -5.5q-30 0 -55.5 5t-43.5 17t-28.5 32.5t-10.5 52.5h62q1 -29 17.5 -40t58.5 -11q23 0 38.5 2t24.5 8.5t13 19t4 33.5q0 23 -3.5 36.5t-12.5 21t-24 9.5t-38 2h-59v55h59q19 0 33 1.5t23 7t13.5 16.5t4.5 29
q0 15 -2.5 26.5t-10 18.5t-22.5 10.5t-39 3.5q-43 0 -59.5 -11t-16.5 -40h-61q0 31 10 52t28.5 33t43.5 17t55 5q69 0 102.5 -25.5t33.5 -87.5q0 -30 -6 -50t-27 -34q20 -12 28.5 -33.5t8.5 -61.5zM89 267v55h89v258l-63 -55l-38 42l113 100h51v-345h91v-55h-243zM304 0h-68
l336 667h70z" />
    <glyph glyph-name="twothirds" unicode="&#x2154;" horiz-adv-x="878" 
d="M346 554q0 -31 -6.5 -49.5t-18.5 -30t-28.5 -18.5t-36.5 -14q-17 -6 -34.5 -12t-33 -12t-27.5 -13.5t-18 -17.5q-3 -5 -5 -12t-2 -21v-31h209v-56h-272v97q0 36 14 57t35.5 34t49 20t54.5 15q32 10 44.5 22t12.5 42q0 37 -15.5 50t-58.5 13q-38 0 -56.5 -8.5t-18.5 -39.5
h-62q0 31 10.5 51t28.5 32t43 16.5t54 4.5q65 0 101.5 -26t36.5 -93zM817 114q0 -35 -10 -58.5t-28.5 -37t-45 -19t-58.5 -5.5q-30 0 -55.5 5t-43.5 17t-28.5 32.5t-10.5 52.5h62q1 -29 17.5 -40t58.5 -11q23 0 38.5 2t24.5 8.5t13 19t4 33.5q0 23 -3.5 36.5t-12.5 21
t-24 9.5t-38 2h-59v55h59q19 0 33 1.5t23 7t13.5 16.5t4.5 29q0 15 -2.5 26.5t-10 18.5t-22.5 10.5t-39 3.5q-43 0 -59.5 -11t-16.5 -40h-61q0 31 10 52t28.5 33t43.5 17t55 5q69 0 102.5 -25.5t33.5 -87.5q0 -30 -6 -50t-27 -34q20 -12 28.5 -33.5t8.5 -61.5zM304 0h-68
l336 667h70z" />
    <glyph glyph-name="oneeighth" unicode="&#x215b;" horiz-adv-x="878" 
d="M673 233q45 0 58 13.5t13 45.5q0 31 -14 45t-57 14q-42 0 -56.5 -14t-14.5 -45q0 -32 13.5 -45.5t57.5 -13.5zM673 49q40 0 57.5 13.5t17.5 51.5q0 42 -17 54t-58 12q-40 0 -57 -13.5t-17 -52.5q0 -38 17 -51.5t57 -13.5zM810 113q0 -69 -35.5 -94t-101.5 -25
q-65 0 -101 25.5t-36 93.5q0 34 9 58.5t35 35.5q-25 11 -32.5 34t-7.5 55q0 62 32 86t101 24t101.5 -24t32.5 -86q0 -32 -7.5 -54.5t-32.5 -34.5q26 -11 34.5 -35.5t8.5 -58.5zM89 267v55h89v258l-63 -55l-38 42l113 100h51v-345h91v-55h-243zM304 0h-68l336 667h70z" />
    <glyph glyph-name="threeeighths" unicode="&#x215c;" horiz-adv-x="878" 
d="M673 233q45 0 58 13.5t13 45.5q0 31 -14 45t-57 14q-42 0 -56.5 -14t-14.5 -45q0 -32 13.5 -45.5t57.5 -13.5zM673 49q40 0 57.5 13.5t17.5 51.5q0 42 -17 54t-58 12q-40 0 -57 -13.5t-17 -52.5q0 -38 17 -51.5t57 -13.5zM810 113q0 -69 -35.5 -94t-101.5 -25
q-65 0 -101 25.5t-36 93.5q0 34 9 58.5t35 35.5q-25 11 -32.5 34t-7.5 55q0 62 32 86t101 24t101.5 -24t32.5 -86q0 -32 -7.5 -54.5t-32.5 -34.5q26 -11 34.5 -35.5t8.5 -58.5zM349 381q0 -35 -10 -58.5t-28.5 -37t-45 -19t-58.5 -5.5q-30 0 -55.5 5t-43.5 17t-28.5 32.5
t-10.5 52.5h62q1 -29 17.5 -40t58.5 -11q23 0 38.5 2t24.5 8.5t13 19t4 33.5q0 23 -3.5 36.5t-12.5 21t-24 9.5t-38 2h-59v55h59q19 0 33 1.5t23 7t13.5 16.5t4.5 29q0 15 -2.5 26.5t-10 18.5t-22.5 10.5t-39 3.5q-43 0 -59.5 -11t-16.5 -40h-61q0 31 10 52t28.5 33t43.5 17
t55 5q69 0 102.5 -25.5t33.5 -87.5q0 -30 -6 -50t-27 -34q20 -12 28.5 -33.5t8.5 -61.5zM304 0h-68l336 667h70z" />
    <glyph glyph-name="fiveeighths" unicode="&#x215d;" horiz-adv-x="878" 
d="M673 233q45 0 58 13.5t13 45.5q0 31 -14 45t-57 14q-42 0 -56.5 -14t-14.5 -45q0 -32 13.5 -45.5t57.5 -13.5zM673 49q40 0 57.5 13.5t17.5 51.5q0 42 -17 54t-58 12q-40 0 -57 -13.5t-17 -52.5q0 -38 17 -51.5t57 -13.5zM810 113q0 -69 -35.5 -94t-101.5 -25
q-65 0 -101 25.5t-36 93.5q0 34 9 58.5t35 35.5q-25 11 -32.5 34t-7.5 55q0 62 32 86t101 24t101.5 -24t32.5 -86q0 -32 -7.5 -54.5t-32.5 -34.5q26 -11 34.5 -35.5t8.5 -58.5zM135 362q0 -26 17.5 -35.5t55.5 -9.5q45 0 61.5 17.5t16.5 59.5t-14 61.5t-60 19.5
q-31 0 -49.5 -9.5t-20.5 -32.5h-61v234h246v-55h-185v-104q10 9 26.5 16t49.5 7q75 0 102.5 -33.5t27.5 -100.5q0 -76 -35.5 -106t-104.5 -30q-29 0 -53.5 4.5t-42.5 16t-28.5 31t-10.5 49.5h62zM304 0h-68l336 667h70z" />
    <glyph glyph-name="seveneighths" unicode="&#x215e;" horiz-adv-x="878" 
d="M673 233q45 0 58 13.5t13 45.5q0 31 -14 45t-57 14q-42 0 -56.5 -14t-14.5 -45q0 -32 13.5 -45.5t57.5 -13.5zM673 49q40 0 57.5 13.5t17.5 51.5q0 42 -17 54t-58 12q-40 0 -57 -13.5t-17 -52.5q0 -38 17 -51.5t57 -13.5zM810 113q0 -69 -35.5 -94t-101.5 -25
q-65 0 -101 25.5t-36 93.5q0 34 9 58.5t35 35.5q-25 11 -32.5 34t-7.5 55q0 62 32 86t101 24t101.5 -24t32.5 -86q0 -32 -7.5 -54.5t-32.5 -34.5q26 -11 34.5 -35.5t8.5 -58.5zM175 267h-68l173 344h-200v56h267v-46zM304 0h-68l336 667h70z" />
    <glyph glyph-name="arrowleft" unicode="&#x2190;" horiz-adv-x="721" 
d="M184 289l240 -235l-58 -58l-335 333l334 334l58 -57l-239 -235h505v-82h-505z" />
    <glyph glyph-name="arrowup" unicode="&#x2191;" horiz-adv-x="726" 
d="M639 265l-235 240v-505h-82v505l-235 -240l-58 58l334 335l334 -335z" />
    <glyph glyph-name="arrowright" unicode="&#x2192;" horiz-adv-x="720" 
d="M355 -4l-58 58l240 235h-505v82h505l-240 235l58 57l334 -334z" />
    <glyph glyph-name="arrowdown" unicode="&#x2193;" horiz-adv-x="725" 
d="M363 0l-334 334l58 58l235 -239v505h82v-505l235 240l58 -58z" />
    <glyph glyph-name="uni2196" unicode="&#x2196;" horiz-adv-x="710" 
d="M544 174l-358 357l3 -336h-81v472h472v-81l-336 3l358 -357z" />
    <glyph glyph-name="uni2197" unicode="&#x2197;" horiz-adv-x="710" 
d="M521 195l3 336l-358 -357l-58 58l358 357l-336 -3v81h472v-472h-81z" />
    <glyph glyph-name="uni2198" unicode="&#x2198;" horiz-adv-x="710" 
d="M131 0v81l336 -3l-359 358l59 58l357 -358l-3 337h81v-473h-471z" />
    <glyph glyph-name="uni2199" unicode="&#x2199;" horiz-adv-x="710" 
d="M244 78l336 3v-81h-472v473h81l-3 -337l358 358l58 -58z" />
    <glyph glyph-name="partialdiff" unicode="&#x2202;" horiz-adv-x="560" 
d="M111 674l57 53q43 -44 77 -78t62 -62.5t51 -52t44 -45.5q26 -27 44 -52.5t29.5 -54t17 -62.5t5.5 -79q0 -75 -10 -120t-39 -74q-29 -30 -71 -42.5t-102 -12.5t-102 12.5t-71 42.5q-29 29 -38 75t-9 120q0 44 4 85t21 73.5t50.5 54t90.5 27.5q18 2 47 1t50 -12zM412 241
q0 51 -8 84t-26 52.5t-46 27t-68 7.5q-42 0 -67 -12t-38 -34t-16.5 -53.5t-3.5 -71.5q0 -44 3 -76.5t16 -53.5t40.5 -31t77.5 -10q49 0 76.5 10.5t41 31.5t16 53t2.5 76z" />
    <glyph glyph-name="Delta" unicode="&#x2206;" horiz-adv-x="633" 
d="M14 0l258 667h89l257 -667h-604zM315 560l-179 -480h359z" />
    <glyph glyph-name="product" unicode="&#x220f;" horiz-adv-x="668" 
d="M491 0v587h-312v-587h-89v587h-76v80h641v-80h-76v-587h-88z" />
    <glyph glyph-name="summation" unicode="&#x2211;" horiz-adv-x="576" 
d="M385 334l-230 -254h379v-80h-488v78l233 256l-233 255v78h488v-80h-379z" />
    <glyph glyph-name="minus" unicode="&#x2212;" horiz-adv-x="582" 
d="M38 204v77h506v-77h-506z" />
    <glyph glyph-name="radical" unicode="&#x221a;" horiz-adv-x="660" 
d="M302 0h-94l-93 303h-115v79h176l78 -278l205 723h298v-79h-235z" />
    <glyph glyph-name="infinity" unicode="&#x221e;" horiz-adv-x="567" 
d="M243 238q-25 32 -43 48t-48 16q-26 0 -39 -12t-13 -53q0 -21 4 -33.5t11.5 -19t16.5 -8.5t20 -2q24 0 44.5 17t46.5 47zM414 302q-30 0 -49 -15.5t-43 -47.5q26 -30 47 -47.5t45 -17.5q10 0 19.5 2t17 8.5t11.5 19t4 33.5q0 41 -13 53t-39 12zM414 113q-38 0 -70.5 22.5
t-61.5 58.5q-29 -36 -60.5 -58.5t-69.5 -22.5q-26 0 -48 4.5t-38.5 18t-25.5 38t-9 63.5q0 38 9 62.5t24.5 38.5t37.5 19.5t49 5.5q22 0 39.5 -4t33 -13.5t30 -24.5t29.5 -37q32 42 60.5 60.5t71.5 18.5q25 0 46.5 -5.5t38 -19.5t26 -38.5t9.5 -62.5q0 -39 -10 -63.5
t-26.5 -38t-38.5 -18t-46 -4.5z" />
    <glyph glyph-name="integral" unicode="&#x222b;" horiz-adv-x="426" 
d="M155 -40q0 -83 -48.5 -118.5t-129.5 -35.5q-35 0 -64.5 6t-52 19.5t-35 35t-12.5 53.5h83q0 -12 7 -20.5t18.5 -13.5t25.5 -7.5t29 -2.5q29 0 47.5 5.5t29 17.5t14 29.5t3.5 41.5v580q0 83 48.5 118.5t129.5 35.5q34 0 64 -6t52.5 -19.5t35 -35.5t12.5 -53h-83
q0 12 -7 20.5t-18.5 13.5t-25.5 7.5t-29 2.5q-29 0 -47.5 -5.5t-29 -17.5t-14 -29.5t-3.5 -41.5v-580v0z" />
    <glyph glyph-name="approxequal" unicode="&#x2248;" horiz-adv-x="582" 
d="M549 353q-5 -5 -17 -13.5t-24.5 -18.5t-24.5 -18.5t-17 -11.5q-37 -24 -79.5 -27.5t-84.5 22.5q-22 14 -40.5 25t-36 16.5t-34.5 4t-36 -13.5q-3 -2 -13 -9t-21.5 -15.5t-22.5 -16.5t-17 -12l-48 58q5 5 16.5 14t24.5 18.5t24.5 18t17.5 11.5q37 23 79.5 27t84.5 -22
q22 -14 40.5 -25t35.5 -16.5t34 -4t36 13.5q3 2 13 9t21.5 15t22.5 16t17 13zM549 164q-5 -5 -17 -13.5t-24.5 -18.5t-24.5 -18.5t-17 -11.5q-37 -24 -79.5 -27.5t-84.5 22.5q-22 14 -40.5 25t-36 16.5t-34.5 4t-36 -13.5q-3 -2 -13 -9t-21.5 -15.5t-22.5 -16.5t-17 -12
l-48 58q5 5 16.5 14t24.5 18.5t24.5 18t17.5 11.5q37 23 79.5 27t84.5 -22q22 -14 40.5 -25t35.5 -16.5t34 -4t36 13.5q3 2 13 9t21.5 15t22.5 16t17 13z" />
    <glyph glyph-name="notequal" unicode="&#x2260;" horiz-adv-x="582" 
d="M211 115l-119 -115l-51 51l68 64h-71v75h145l112 108h-257v75h334l116 114l51 -51l-65 -63h70v-75h-145l-111 -108h256v-75h-333z" />
    <glyph glyph-name="lessequal" unicode="&#x2264;" horiz-adv-x="582" 
d="M520 130l-483 181v69l482 181l30 -75l-393 -140l393 -141zM32 0v77h518v-77h-518z" />
    <glyph glyph-name="greaterequal" unicode="&#x2265;" horiz-adv-x="582" 
d="M62 130l-29 75l393 141l-393 140l30 75l482 -181v-69zM32 0v77h518v-77h-518z" />
    <glyph glyph-name="lozenge" unicode="&#x25ca;" horiz-adv-x="636" 
d="M355 667l251 -333l-251 -334h-78l-246 334l246 333h78zM137 334l179 -243l184 243l-184 242z" />
    <glyph glyph-name="uniE002" unicode="&#xe002;" horiz-adv-x="563" 
d="M523 152q0 -49 -16.5 -80t-44.5 -48.5t-65 -24t-79 -6.5q-66 0 -108.5 16t-67 47t-34.5 76t-11 102h-59v72h59v57h-60v72h60q1 58 11.5 102.5t35 75t67 46t107.5 15.5q40 0 77.5 -6.5t65.5 -24t45 -48.5t17 -80h-86q0 26 -8.5 42t-24 24.5t-37.5 11.5t-49 3
q-45 0 -71.5 -11t-40.5 -31.5t-18 -50.5t-5 -68h179v-72h-180v-57h179v-72h-178q1 -39 5 -69t17.5 -51t40 -31.5t71.5 -10.5q27 0 49.5 2.5t38 11t24 24.5t8.5 42h86v0z" />
    <glyph glyph-name="uniEFED" unicode="&#xefed;" horiz-adv-x="428" 
d="M263 814q0 -49 -50 -49q-48 0 -48 49q0 26 11.5 37t36.5 11t37.5 -11t12.5 -37z" />
    <glyph glyph-name="uniEFEE" unicode="&#xefee;" horiz-adv-x="428" 
d="M357 867q0 -36 -7 -60.5t-24 -39.5t-44.5 -21.5t-67.5 -6.5q-41 0 -68 6.5t-44 21.5t-24 39.5t-7 60.5h63q0 -23 4.5 -36.5t14 -21t25 -9.5t36.5 -2t36.5 2t25 9.5t14 21t4.5 36.5h63v0z" />
    <glyph glyph-name="uniEFF1" unicode="&#xeff1;" horiz-adv-x="437" 
d="M286 0q-30 -15 -48.5 -28.5t-28 -26.5t-13 -25t-3.5 -23q0 -35 22.5 -50t60.5 -15h9.5t16.5 2v-58q-17 -2 -30 -2.5t-18 -0.5q-27 0 -51.5 7t-42.5 21.5t-28.5 36.5t-10.5 53t18.5 65.5t68.5 60.5z" />
    <glyph glyph-name="uniEFF2" unicode="&#xeff2;" horiz-adv-x="428" 
d="M292 -110q0 -38 -19 -58.5t-65 -20.5q-43 0 -63.5 16t-20.5 54h47q0 -17 8.5 -22.5t28.5 -5.5q23 0 28.5 9t5.5 26q0 18 -10 25t-25 8q-6 1 -13.5 1h-16.5v78h50v-41q33 -1 49 -19.5t16 -49.5z" />
    <glyph glyph-name="uniEFF5" unicode="&#xeff5;" horiz-adv-x="428" 
d="M409 802q-23 -12 -46 -25t-47 -20.5t-49 -6.5t-52 17q-13 8 -23.5 15t-22.5 10t-26 1.5t-33 -11.5l-59 -30l-31 58q22 12 45.5 24.5t48 20t49.5 6.5t52 -17q13 -8 23.5 -15t22.5 -10t25.5 -1.5t32.5 11.5l59 31l31 -58v0z" />
    <glyph glyph-name="uniEFF7" unicode="&#xeff7;" horiz-adv-x="428" 
d="M293 735l-79 76l-78 -76h-91l131 127h76l131 -127h-90z" />
    <glyph glyph-name="uniF62C" unicode="&#xf62c;" horiz-adv-x="226" 
d="M66 196q0 75 3 129.5t18.5 90.5t48 53.5t90.5 17.5v-60q-38 0 -57.5 -12t-28 -39t-9.5 -71.5t-1 -108.5q0 -63 1 -106.5t9.5 -71t28 -40t57.5 -12.5v-60q-58 0 -90.5 17.5t-48 53.5t-18.5 90.5t-3 128.5z" />
    <glyph glyph-name="uniF62D" unicode="&#xf62d;" horiz-adv-x="226" 
d="M160 196q0 -75 -3.5 -129.5t-19 -90t-47.5 -53t-90 -17.5v60q37 0 57 12.5t28 39.5t9 71t1 107q0 65 -1 109t-9.5 71t-28 39t-56.5 12v60q58 0 90 -17.5t47.5 -53.5t19 -90.5t3.5 -129.5z" />
    <glyph glyph-name="uniF631" unicode="&#xf631;" horiz-adv-x="226" 
d="M66 463q0 75 3 129.5t18.5 90.5t48 53.5t90.5 17.5v-60q-38 0 -57.5 -12t-28 -39t-9.5 -71.5t-1 -108.5q0 -63 1 -106.5t9.5 -71t28 -40t57.5 -12.5v-60q-58 0 -90.5 17.5t-48 53.5t-18.5 90.5t-3 128.5z" />
    <glyph glyph-name="uniF632" unicode="&#xf632;" horiz-adv-x="226" 
d="M160 463q0 -75 -3.5 -129.5t-19 -90t-47.5 -53t-90 -17.5v60q37 0 57 12.5t28 39.5t9 71t1 107q0 65 -1 109t-9.5 71t-28 39t-56.5 12v60q58 0 90 -17.5t47.5 -53.5t19 -90.5t3.5 -129.5z" />
    <glyph glyph-name="uniF639" unicode="&#xf639;" horiz-adv-x="563" 
d="M504 333v-86.5t-5 -80.5t-18 -69.5t-37.5 -55t-64 -36.5t-98.5 -13t-98.5 13t-64 36.5t-37.5 55t-18 69.5t-5 80.5v86.5v86.5t5 80.5t18 69.5t37.5 55t64 36.5t98.5 13t98.5 -13t64 -36.5t37.5 -55t18 -69.5t5 -80.5v-86.5zM418 333q0 73 -2 123.5t-15 81.5t-41 44.5
t-79 13.5t-79 -13.5t-41 -44.5t-15 -81.5t-2 -123.5t2 -123.5t15 -81.5t41 -44.5t79 -13.5t79 13.5t41 44.5t15 81.5t2 123.5z" />
    <glyph glyph-name="uniF63A" unicode="&#xf63a;" horiz-adv-x="563" 
d="M499 479q0 -53 -15 -87t-41.5 -55.5t-62.5 -35.5t-77 -28t-69.5 -23t-45.5 -21t-24.5 -32.5t-7.5 -57.5v-62h342v-77h-428v158q0 56 18.5 88.5t49.5 51.5t70.5 30t81.5 25q28 9 51 17.5t39 21.5t24.5 33.5t8.5 53.5t-5.5 55t-20 36t-39.5 20t-64 6q-69 0 -98 -17t-29 -64
h-85q0 47 15.5 78t43 49t66 25t85.5 7q52 0 93 -10t68 -31q29 -23 42.5 -60t13.5 -94z" />
    <glyph glyph-name="uniF63B" unicode="&#xf63b;" horiz-adv-x="563" 
d="M499 196q0 -59 -14.5 -98t-42.5 -62.5t-69.5 -33.5t-94.5 -10q-44 0 -83 6.5t-68.5 24t-46.5 48.5t-17 81h86q0 -45 29.5 -63.5t100.5 -18.5q34 0 59.5 5t42.5 18.5t25 36.5t8 59q0 39 -5 62t-20 35.5t-41.5 16.5t-69.5 4h-97v78h97q34 0 58.5 3.5t40.5 14.5t23.5 32
t7.5 56q0 31 -5.5 51t-20 32t-39.5 17t-65 5q-71 0 -101.5 -18t-30.5 -63h-86q0 47 16 78t45 49t69 25t88 7q55 0 96 -9t67 -30t39 -55.5t13 -86.5q0 -23 -2 -44.5t-9 -40t-20.5 -34t-35.5 -25.5q25 -10 39.5 -25.5t22 -35t9.5 -43t2 -49.5z" />
    <glyph glyph-name="uniF63C" unicode="&#xf63c;" horiz-adv-x="563" 
d="M419 180v-180h-84v180h-290v73l293 414h81v-410h97v-77h-97zM335 538l-194 -281h194v281z" />
    <glyph glyph-name="uniF63D" unicode="&#xf63d;" horiz-adv-x="563" 
d="M499 210q0 -60 -13 -101.5t-40 -67.5t-69 -37.5t-101 -11.5q-45 0 -83 7.5t-65 25.5t-42.5 49t-15.5 78h83q0 -47 27.5 -64.5t95.5 -17.5q40 0 66.5 6t42.5 21.5t22.5 42t6.5 66.5q0 38 -3.5 66.5t-16.5 47t-38 27.5t-67 9q-70 0 -99 -20.5t-29 -57.5h-82v389h399v-78
h-317v-195q17 19 52.5 29.5t77.5 10.5q61 0 101 -13t64 -40.5t33.5 -70t9.5 -100.5z" />
    <glyph glyph-name="uniF63E" unicode="&#xf63e;" horiz-adv-x="563" 
d="M498 211q0 -112 -51.5 -165.5t-163.5 -53.5q-73 0 -126.5 28.5t-75.5 87.5q-11 30 -16.5 80t-5.5 117q0 76 3 134t10 93q14 76 68.5 109t145.5 33q42 0 78.5 -8t63.5 -26.5t42.5 -49t15.5 -75.5h-84q0 44 -27.5 62.5t-87.5 18.5q-37 0 -63.5 -6.5t-43 -29t-25 -65.5
t-9.5 -115q23 23 57.5 38.5t83.5 15.5q56 0 96 -12t65.5 -38.5t37.5 -69t12 -103.5zM413 210q0 43 -6 71.5t-20.5 45t-37.5 23t-57 6.5q-74 0 -108.5 -34.5t-34.5 -106.5q0 -80 31.5 -112.5t101.5 -32.5q36 0 61 7t40.5 23.5t22.5 43t7 66.5z" />
    <glyph glyph-name="uniF63F" unicode="&#xf63f;" horiz-adv-x="563" 
d="M205 0h-94l293 589h-339v78h432v-74z" />
    <glyph glyph-name="uniF640" unicode="&#xf640;" horiz-adv-x="563" 
d="M503 185q0 -57 -14.5 -94.5t-43 -59t-69.5 -30.5t-94 -9t-94 9t-69.5 30.5t-43.5 59t-15 94.5q0 60 15.5 101.5t61.5 59.5q-45 19 -58 58.5t-13 93.5q0 50 13 83.5t39.5 54t67 29.5t96.5 9t96.5 -9t67 -29.5t39 -54t12.5 -83.5q0 -54 -13 -93t-58 -59q46 -18 61.5 -59.5
t15.5 -101.5zM411 489q0 34 -7.5 55.5t-23.5 32.5t-40.5 15t-58.5 4t-58.5 -4t-40.5 -15t-23.5 -32.5t-7.5 -55.5t7.5 -54.5t23 -32t40 -15t59.5 -3.5q34 0 59 3.5t40.5 15t23 32t7.5 54.5zM417 188q0 38 -8 61.5t-24.5 36t-42 16.5t-60.5 4q-37 0 -63 -4t-42 -17t-23.5 -36
t-7.5 -61q0 -37 7.5 -60t24 -36t42.5 -17.5t62 -4.5t61.5 4.5t42 17.5t24 36t7.5 60z" />
    <glyph glyph-name="uniF641" unicode="&#xf641;" horiz-adv-x="563" 
d="M504 361q0 -76 -3 -134t-10 -93q-14 -76 -68.5 -109t-145.5 -33q-42 0 -78.5 8t-63.5 26.5t-42.5 49t-15.5 75.5h84q0 -44 27.5 -62.5t87.5 -18.5q37 0 63.5 6.5t43 29t25 65.5t9.5 115q-23 -23 -57.5 -38.5t-83.5 -15.5q-56 0 -96 12t-65.5 38.5t-37.5 69t-12 103.5
q0 112 51.5 165.5t163.5 53.5q73 0 126.5 -28.5t75.5 -87.5q11 -30 16.5 -80t5.5 -117zM414 451q0 80 -31.5 112.5t-101.5 32.5q-36 0 -61 -7t-40.5 -23.5t-22.5 -43t-7 -66.5q0 -44 6 -72t20.5 -44.5t37.5 -23t57 -6.5q74 0 108.5 34.5t34.5 106.5z" />
    <glyph glyph-name="uniF643" unicode="&#xf643;" horiz-adv-x="563" 
d="M504 333v-86.5t-5 -80.5t-18 -69.5t-37.5 -55t-64 -36.5t-98.5 -13t-98.5 13t-64 36.5t-37.5 55t-18 69.5t-5 80.5v86.5v86.5t5 80.5t18 69.5t37.5 55t64 36.5t98.5 13t98.5 -13t64 -36.5t37.5 -55t18 -69.5t5 -80.5v-86.5zM418 333q0 73 -2 123.5t-15 81.5t-41 44.5
t-79 13.5t-79 -13.5t-41 -44.5t-15 -81.5t-2 -123.5t2 -123.5t15 -81.5t41 -44.5t79 -13.5t79 13.5t41 44.5t15 81.5t2 123.5z" />
    <glyph glyph-name="uniF644" unicode="&#xf644;" horiz-adv-x="563" 
d="M100 0v77h158v482l-117 -109l-55 58l179 159h78v-590h159v-77h-402z" />
    <glyph glyph-name="uniF645" unicode="&#xf645;" horiz-adv-x="563" 
d="M499 479q0 -53 -15 -87t-41.5 -55.5t-62.5 -35.5t-77 -28t-69.5 -23t-45.5 -21t-24.5 -32.5t-7.5 -57.5v-62h342v-77h-428v158q0 56 18.5 88.5t49.5 51.5t70.5 30t81.5 25q28 9 51 17.5t39 21.5t24.5 33.5t8.5 53.5t-5.5 55t-20 36t-39.5 20t-64 6q-69 0 -98 -17t-29 -64
h-85q0 47 15.5 78t43 49t66 25t85.5 7q52 0 93 -10t68 -31q29 -23 42.5 -60t13.5 -94z" />
    <glyph glyph-name="uniF646" unicode="&#xf646;" horiz-adv-x="563" 
d="M499 196q0 -59 -14.5 -98t-42.5 -62.5t-69.5 -33.5t-94.5 -10q-44 0 -83 6.5t-68.5 24t-46.5 48.5t-17 81h86q0 -45 29.5 -63.5t100.5 -18.5q34 0 59.5 5t42.5 18.5t25 36.5t8 59q0 39 -5 62t-20 35.5t-41.5 16.5t-69.5 4h-97v78h97q34 0 58.5 3.5t40.5 14.5t23.5 32
t7.5 56q0 31 -5.5 51t-20 32t-39.5 17t-65 5q-71 0 -101.5 -18t-30.5 -63h-86q0 47 16 78t45 49t69 25t88 7q55 0 96 -9t67 -30t39 -55.5t13 -86.5q0 -23 -2 -44.5t-9 -40t-20.5 -34t-35.5 -25.5q25 -10 39.5 -25.5t22 -35t9.5 -43t2 -49.5z" />
    <glyph glyph-name="uniF647" unicode="&#xf647;" horiz-adv-x="563" 
d="M419 180v-180h-84v180h-290v73l293 414h81v-410h97v-77h-97zM335 538l-194 -281h194v281z" />
    <glyph glyph-name="uniF648" unicode="&#xf648;" horiz-adv-x="563" 
d="M499 210q0 -60 -13 -101.5t-40 -67.5t-69 -37.5t-101 -11.5q-45 0 -83 7.5t-65 25.5t-42.5 49t-15.5 78h83q0 -47 27.5 -64.5t95.5 -17.5q40 0 66.5 6t42.5 21.5t22.5 42t6.5 66.5q0 38 -3.5 66.5t-16.5 47t-38 27.5t-67 9q-70 0 -99 -20.5t-29 -57.5h-82v389h399v-78
h-317v-195q17 19 52.5 29.5t77.5 10.5q61 0 101 -13t64 -40.5t33.5 -70t9.5 -100.5z" />
    <glyph glyph-name="uniF649" unicode="&#xf649;" horiz-adv-x="563" 
d="M498 211q0 -112 -51.5 -165.5t-163.5 -53.5q-73 0 -126.5 28.5t-75.5 87.5q-11 30 -16.5 80t-5.5 117q0 76 3 134t10 93q14 76 68.5 109t145.5 33q42 0 78.5 -8t63.5 -26.5t42.5 -49t15.5 -75.5h-84q0 44 -27.5 62.5t-87.5 18.5q-37 0 -63.5 -6.5t-43 -29t-25 -65.5
t-9.5 -115q23 23 57.5 38.5t83.5 15.5q56 0 96 -12t65.5 -38.5t37.5 -69t12 -103.5zM413 210q0 43 -6 71.5t-20.5 45t-37.5 23t-57 6.5q-74 0 -108.5 -34.5t-34.5 -106.5q0 -80 31.5 -112.5t101.5 -32.5q36 0 61 7t40.5 23.5t22.5 43t7 66.5z" />
    <glyph glyph-name="uniF64A" unicode="&#xf64a;" horiz-adv-x="563" 
d="M205 0h-94l293 589h-339v78h432v-74z" />
    <glyph glyph-name="uniF64B" unicode="&#xf64b;" horiz-adv-x="563" 
d="M503 185q0 -57 -14.5 -94.5t-43 -59t-69.5 -30.5t-94 -9t-94 9t-69.5 30.5t-43.5 59t-15 94.5q0 60 15.5 101.5t61.5 59.5q-45 19 -58 58.5t-13 93.5q0 50 13 83.5t39.5 54t67 29.5t96.5 9t96.5 -9t67 -29.5t39 -54t12.5 -83.5q0 -54 -13 -93t-58 -59q46 -18 61.5 -59.5
t15.5 -101.5zM411 489q0 34 -7.5 55.5t-23.5 32.5t-40.5 15t-58.5 4t-58.5 -4t-40.5 -15t-23.5 -32.5t-7.5 -55.5t7.5 -54.5t23 -32t40 -15t59.5 -3.5q34 0 59 3.5t40.5 15t23 32t7.5 54.5zM417 188q0 38 -8 61.5t-24.5 36t-42 16.5t-60.5 4q-37 0 -63 -4t-42 -17t-23.5 -36
t-7.5 -61q0 -37 7.5 -60t24 -36t42.5 -17.5t62 -4.5t61.5 4.5t42 17.5t24 36t7.5 60z" />
    <glyph glyph-name="uniF64C" unicode="&#xf64c;" horiz-adv-x="563" 
d="M504 361q0 -76 -3 -134t-10 -93q-14 -76 -68.5 -109t-145.5 -33q-42 0 -78.5 8t-63.5 26.5t-42.5 49t-15.5 75.5h84q0 -44 27.5 -62.5t87.5 -18.5q37 0 63.5 6.5t43 29t25 65.5t9.5 115q-23 -23 -57.5 -38.5t-83.5 -15.5q-56 0 -96 12t-65.5 38.5t-37.5 69t-12 103.5
q0 112 51.5 165.5t163.5 53.5q73 0 126.5 -28.5t75.5 -87.5q11 -30 16.5 -80t5.5 -117zM414 451q0 80 -31.5 112.5t-101.5 32.5q-36 0 -61 -7t-40.5 -23.5t-22.5 -43t-7 -66.5q0 -44 6 -72t20.5 -44.5t37.5 -23t57 -6.5q74 0 108.5 34.5t34.5 106.5z" />
    <glyph glyph-name="uniF64E" unicode="&#xf64e;" horiz-adv-x="563" 
d="M523 152q0 -49 -16.5 -80t-44.5 -48.5t-65 -24t-79 -6.5q-66 0 -108.5 16t-67 47t-34.5 76t-11 102h-59v72h59v57h-60v72h60q1 58 11.5 102.5t35 75t67 46t107.5 15.5q40 0 77.5 -6.5t65.5 -24t45 -48.5t17 -80h-86q0 26 -8.5 42t-24 24.5t-37.5 11.5t-49 3
q-45 0 -71.5 -11t-40.5 -31.5t-18 -50.5t-5 -68h179v-72h-180v-57h179v-72h-178q1 -39 5 -69t17.5 -51t40 -31.5t71.5 -10.5q27 0 49.5 2.5t38 11t24 24.5t8.5 42h86v0z" />
    <glyph glyph-name="uniF64F" unicode="&#xf64f;" horiz-adv-x="563" 
d="M448 515q0 27 -8 43t-23 24.5t-36 11t-47 2.5q-47 0 -73.5 -7.5t-39.5 -23.5t-16.5 -42t-3.5 -63v-84h285v-77h-285v-490h-86v490h-61v77h61v82v44t3.5 43.5t12 41.5t26.5 37q27 26 70 38t97 12q32 0 68 -3.5t67 -19t51 -47.5t20 -89h-82z" />
    <glyph glyph-name="uniF651" unicode="&#xf651;" horiz-adv-x="563" 
d="M46 0v78h61v221h-61v77h61v82v44t3.5 43.5t12 41.5t26.5 37q27 26 70 38t97 12q32 0 68 -3.5t67 -19t51 -47.5t20 -89h-82q0 27 -8 43t-23 24.5t-36 11t-47 2.5q-47 0 -73.5 -7.5t-39.5 -23.5t-16.5 -42t-3.5 -63v-84h285v-77h-285v-221h338v-78h-485z" />
    <glyph glyph-name="uniF652" unicode="&#xf652;" horiz-adv-x="563" 
d="M408 425h76v-72h-120l-35 -56h155v-72h-159v-225h-87v225h-159v72h155l-35 56h-121v72h77l-148 242h99l176 -294l175 294h99z" />
    <glyph glyph-name="uniF653" unicode="&#xf653;" horiz-adv-x="563" 
d="M500 195q0 -99 -44.5 -144t-137.5 -51v-99h-77v99q-41 2 -74 10.5t-56 26t-35.5 45.5t-12.5 70h85q0 -38 20 -55.5t73 -18.5v231q-41 4 -73.5 14t-54.5 30t-33.5 52t-11.5 82q0 94 45.5 134.5t127.5 45.5v95h77v-95q41 -2 73.5 -10t55 -25.5t34.5 -46t12 -70.5h-85
q0 40 -18.5 57.5t-71.5 18.5v-207q49 -5 84 -14.5t56.5 -30t31.5 -55t10 -89.5zM241 591q-50 -1 -70 -25t-20 -84q0 -28 5 -45t15.5 -27t28 -14.5t41.5 -6.5v202zM417 199q0 33 -4.5 52.5t-15.5 30t-30 15t-49 7.5v-226q54 2 76.5 29t22.5 92z" />
    <glyph glyph-name="uniF654" unicode="&#xf654;" horiz-adv-x="563" 
d="M500 141q0 -41 -14.5 -68.5t-38.5 -44t-54.5 -24.5t-63.5 -10v-89h-76v89q-60 4 -96.5 23.5t-56 51.5t-26 76.5t-6.5 98.5t6.5 97.5t26.5 75.5t56 50.5t96 23.5v84h76v-84q33 -2 63.5 -10t54.5 -25t38.5 -44.5t14.5 -68.5h-81q0 20 -7.5 33.5t-20 21.5t-29 11.5
t-33.5 4.5v-344q17 1 33.5 4.5t29 11.5t20 21.5t7.5 33.5h81zM253 414q-34 -3 -53.5 -15.5t-30 -34t-13.5 -52t-3 -69.5t3 -69.5t13 -52.5t30 -34.5t54 -16.5v344z" />
    <glyph glyph-name="uniF655" unicode="&#xf655;" 
d="M66 233q0 34 3.5 65t17 55t41 38.5t76.5 14.5t77 -14.5t42 -39t17 -55.5t3 -64v-33q0 -39 -1 -76t-13.5 -66t-41 -46.5t-83.5 -17.5q-49 0 -77 14.5t-41.5 38.5t-16.5 55.5t-3 64.5v33v33zM279 200q0 56 -2 81.5t-6 36.5q-6 14 -20 22.5t-47 8.5q-34 0 -48 -9.5
t-19 -25.5q-4 -11 -5.5 -36t-1.5 -78q0 -57 2 -82.5t6 -35.5q6 -15 20 -23.5t46 -8.5q35 0 49 9.5t19 26.5q4 11 5.5 36t1.5 78z" />
    <glyph glyph-name="uniF656" unicode="&#xf656;" 
d="M89 0v55h89v258l-63 -55l-38 42l113 100h51v-345h91v-55h-243z" />
    <glyph glyph-name="uniF657" unicode="&#xf657;" 
d="M346 287q0 -31 -6.5 -49.5t-18.5 -30t-28.5 -18.5t-36.5 -14q-17 -6 -34.5 -12t-33 -12t-27.5 -13.5t-18 -17.5q-3 -5 -5 -12t-2 -21v-31h209v-56h-272v97q0 36 14 57t35.5 34t49 20t54.5 15q32 10 44.5 22t12.5 42q0 37 -15.5 50t-58.5 13q-38 0 -56.5 -8.5t-18.5 -39.5
h-62q0 31 10.5 51t28.5 32t43 16.5t54 4.5q65 0 101.5 -26t36.5 -93z" />
    <glyph glyph-name="uniF658" unicode="&#xf658;" 
d="M349 114q0 -35 -10 -58.5t-28.5 -37t-45 -19t-58.5 -5.5q-30 0 -55.5 5t-43.5 17t-28.5 32.5t-10.5 52.5h62q1 -29 17.5 -40t58.5 -11q23 0 38.5 2t24.5 8.5t13 19t4 33.5q0 23 -3.5 36.5t-12.5 21t-24 9.5t-38 2h-59v55h59q19 0 33 1.5t23 7t13.5 16.5t4.5 29
q0 15 -2.5 26.5t-10 18.5t-22.5 10.5t-39 3.5q-43 0 -59.5 -11t-16.5 -40h-61q0 31 10 52t28.5 33t43.5 17t55 5q69 0 102.5 -25.5t33.5 -87.5q0 -30 -6 -50t-27 -34q20 -12 28.5 -33.5t8.5 -61.5z" />
    <glyph glyph-name="uniF659" unicode="&#xf659;" 
d="M291 98v-98h-61v98h-181v47l184 255h58v-249h58v-53h-58zM230 306l-110 -155h110v155z" />
    <glyph glyph-name="uniF65A" unicode="&#xf65a;" 
d="M135 95q0 -26 17.5 -35.5t55.5 -9.5q45 0 61.5 17.5t16.5 59.5t-14 61.5t-60 19.5q-31 0 -49.5 -9.5t-20.5 -32.5h-61v234h246v-55h-185v-104q10 9 26.5 16t49.5 7q75 0 102.5 -33.5t27.5 -100.5q0 -76 -35.5 -106t-104.5 -30q-29 0 -53.5 4.5t-42.5 16t-28.5 31
t-10.5 49.5h62z" />
    <glyph glyph-name="uniF65B" unicode="&#xf65b;" 
d="M272 305q-1 24 -15.5 34.5t-46.5 10.5q-30 0 -45.5 -9t-22 -24t-7.5 -36t-1 -45q14 12 34.5 19.5t46.5 7.5q67 0 97 -30.5t30 -104.5q0 -69 -32 -101.5t-101 -32.5q-38 0 -64 9.5t-42.5 31.5t-23.5 58t-7 90q0 45 1 80t6 55q9 47 42 67.5t89 20.5q26 0 48.5 -5
t39.5 -16.5t26.5 -31t9.5 -48.5h-62zM279 127q0 46 -15 63t-52 17q-40 0 -58 -19.5t-18 -57.5q0 -42 17.5 -61t55.5 -19q39 0 54.5 17t15.5 60z" />
    <glyph glyph-name="uniF65C" unicode="&#xf65c;" 
d="M175 0h-68l173 344h-200v56h267v-46z" />
    <glyph glyph-name="uniF65D" unicode="&#xf65d;" 
d="M205 233q45 0 58 13.5t13 45.5q0 31 -14 45t-57 14q-42 0 -56.5 -14t-14.5 -45q0 -32 13.5 -45.5t57.5 -13.5zM205 49q40 0 57.5 13.5t17.5 51.5q0 42 -17 54t-58 12q-40 0 -57 -13.5t-17 -52.5q0 -38 17 -51.5t57 -13.5zM342 113q0 -69 -35.5 -94t-101.5 -25
q-65 0 -101 25.5t-36 93.5q0 34 9 58.5t35 35.5q-25 11 -32.5 34t-7.5 55q0 62 32 86t101 24t101.5 -24t32.5 -86q0 -32 -7.5 -54.5t-32.5 -34.5q26 -11 34.5 -35.5t8.5 -58.5z" />
    <glyph glyph-name="uniF65E" unicode="&#xf65e;" 
d="M138 95q1 -24 15.5 -34.5t46.5 -10.5q30 0 45.5 8.5t22 24t7.5 36t1 44.5q-14 -12 -34.5 -19t-46.5 -7q-67 0 -97 30t-30 104q0 69 32 102t101 33q38 0 64 -9.5t42.5 -31.5t23.5 -58.5t7 -89.5q0 -45 -1 -80t-6 -55q-9 -47 -42 -67.5t-89 -20.5q-26 0 -48.5 5t-39.5 16.5
t-26.5 31t-9.5 48.5h62zM131 272q0 -45 15 -62t52 -17q40 0 58 19t18 57q0 43 -17.5 61.5t-55.5 18.5q-39 0 -54.5 -17t-15.5 -60z" />
    <glyph glyph-name="uniF661" unicode="&#xf661;" 
d="M66 500q0 34 3.5 65t17 55t41 38.5t76.5 14.5t77 -14.5t42 -39t17 -55.5t3 -64v-33q0 -39 -1 -76t-13.5 -66t-41 -46.5t-83.5 -17.5q-49 0 -77 14.5t-41.5 38.5t-16.5 55.5t-3 64.5v33v33zM279 467q0 56 -2 81.5t-6 36.5q-6 14 -20 22.5t-47 8.5q-34 0 -48 -9.5
t-19 -25.5q-4 -11 -5.5 -36t-1.5 -78q0 -57 2 -82.5t6 -35.5q6 -15 20 -23.5t46 -8.5q35 0 49 9.5t19 26.5q4 11 5.5 36t1.5 78z" />
    <glyph glyph-name="uniF662" unicode="&#xf662;" 
d="M89 267v55h89v258l-63 -55l-38 42l113 100h51v-345h91v-55h-243z" />
    <glyph glyph-name="uniF663" unicode="&#xf663;" 
d="M346 554q0 -31 -6.5 -49.5t-18.5 -30t-28.5 -18.5t-36.5 -14q-17 -6 -34.5 -12t-33 -12t-27.5 -13.5t-18 -17.5q-3 -5 -5 -12t-2 -21v-31h209v-56h-272v97q0 36 14 57t35.5 34t49 20t54.5 15q32 10 44.5 22t12.5 42q0 37 -15.5 50t-58.5 13q-38 0 -56.5 -8.5t-18.5 -39.5
h-62q0 31 10.5 51t28.5 32t43 16.5t54 4.5q65 0 101.5 -26t36.5 -93z" />
    <glyph glyph-name="uniF664" unicode="&#xf664;" 
d="M349 381q0 -35 -10 -58.5t-28.5 -37t-45 -19t-58.5 -5.5q-30 0 -55.5 5t-43.5 17t-28.5 32.5t-10.5 52.5h62q1 -29 17.5 -40t58.5 -11q23 0 38.5 2t24.5 8.5t13 19t4 33.5q0 23 -3.5 36.5t-12.5 21t-24 9.5t-38 2h-59v55h59q19 0 33 1.5t23 7t13.5 16.5t4.5 29
q0 15 -2.5 26.5t-10 18.5t-22.5 10.5t-39 3.5q-43 0 -59.5 -11t-16.5 -40h-61q0 31 10 52t28.5 33t43.5 17t55 5q69 0 102.5 -25.5t33.5 -87.5q0 -30 -6 -50t-27 -34q20 -12 28.5 -33.5t8.5 -61.5z" />
    <glyph glyph-name="uniF665" unicode="&#xf665;" 
d="M291 365v-98h-61v98h-181v47l184 255h58v-249h58v-53h-58zM230 573l-110 -155h110v155z" />
    <glyph glyph-name="uniF666" unicode="&#xf666;" 
d="M135 362q0 -26 17.5 -35.5t55.5 -9.5q45 0 61.5 17.5t16.5 59.5t-14 61.5t-60 19.5q-31 0 -49.5 -9.5t-20.5 -32.5h-61v234h246v-55h-185v-104q10 9 26.5 16t49.5 7q75 0 102.5 -33.5t27.5 -100.5q0 -76 -35.5 -106t-104.5 -30q-29 0 -53.5 4.5t-42.5 16t-28.5 31
t-10.5 49.5h62z" />
    <glyph glyph-name="uniF667" unicode="&#xf667;" 
d="M272 572q-1 24 -15.5 34.5t-46.5 10.5q-30 0 -45.5 -9t-22 -24t-7.5 -36t-1 -45q14 12 34.5 19.5t46.5 7.5q67 0 97 -30.5t30 -104.5q0 -69 -32 -101.5t-101 -32.5q-38 0 -64 9.5t-42.5 31.5t-23.5 58t-7 90q0 45 1 80t6 55q9 47 42 67.5t89 20.5q26 0 48.5 -5
t39.5 -16.5t26.5 -31t9.5 -48.5h-62zM279 394q0 46 -15 63t-52 17q-40 0 -58 -19.5t-18 -57.5q0 -42 17.5 -61t55.5 -19q39 0 54.5 17t15.5 60z" />
    <glyph glyph-name="uniF668" unicode="&#xf668;" 
d="M175 267h-68l173 344h-200v56h267v-46z" />
    <glyph glyph-name="uniF669" unicode="&#xf669;" 
d="M205 500q45 0 58 13.5t13 45.5q0 31 -14 45t-57 14q-42 0 -56.5 -14t-14.5 -45q0 -32 13.5 -45.5t57.5 -13.5zM205 316q40 0 57.5 13.5t17.5 51.5q0 42 -17 54t-58 12q-40 0 -57 -13.5t-17 -52.5q0 -38 17 -51.5t57 -13.5zM342 380q0 -69 -35.5 -94t-101.5 -25
q-65 0 -101 25.5t-36 93.5q0 34 9 58.5t35 35.5q-25 11 -32.5 34t-7.5 55q0 62 32 86t101 24t101.5 -24t32.5 -86q0 -32 -7.5 -54.5t-32.5 -34.5q26 -11 34.5 -35.5t8.5 -58.5z" />
    <glyph glyph-name="uniF66A" unicode="&#xf66a;" 
d="M138 362q1 -24 15.5 -34.5t46.5 -10.5q30 0 45.5 8.5t22 24t7.5 36t1 44.5q-14 -12 -34.5 -19t-46.5 -7q-67 0 -97 30t-30 104q0 69 32 102t101 33q38 0 64 -9.5t42.5 -31.5t23.5 -58.5t7 -89.5q0 -45 -1 -80t-6 -55q-9 -47 -42 -67.5t-89 -20.5q-26 0 -48.5 5
t-39.5 16.5t-26.5 31t-9.5 48.5h62zM131 539q0 -45 15 -62t52 -17q40 0 58 19t18 57q0 43 -17.5 61.5t-55.5 18.5q-39 0 -54.5 -17t-15.5 -60z" />
    <glyph glyph-name="uniF6C9" unicode="&#xf6c9;" horiz-adv-x="427" 
d="M195 736h-96l133 126h96z" />
    <glyph glyph-name="uniF6CA" unicode="&#xf6ca;" horiz-adv-x="428" 
d="M252 736h-76l-131 127h90l79 -76l78 76h91z" />
    <glyph glyph-name="uniF6CB" unicode="&#xf6cb;" horiz-adv-x="427" 
d="M370 815q0 -49 -50 -49q-48 0 -48 49q0 26 11.5 37t36.5 11t37.5 -11t12.5 -37zM155 815q0 -49 -50 -49q-48 0 -48 49q0 26 11.5 37t36.5 11t37.5 -11t12.5 -37z" />
    <glyph glyph-name="uniF6CE" unicode="&#xf6ce;" horiz-adv-x="427" 
d="M232 736l-133 126h96l133 -126h-96z" />
    <glyph glyph-name="uniF6CF" unicode="&#xf6cf;" horiz-adv-x="428" 
d="M371 736h-90l127 126h90zM192 736h-90l127 126h90z" />
    <glyph glyph-name="uniF6D0" unicode="&#xf6d0;" horiz-adv-x="428" 
d="M42 788v65h344v-65h-344z" />
    <glyph glyph-name="uniF6DC" unicode="&#xf6dc;" horiz-adv-x="563" 
d="M100 0v77h158v482l-117 -109l-55 58l179 159h78v-590h159v-77h-402z" />
    <glyph glyph-name="uniF730" unicode="&#xf730;" horiz-adv-x="566" 
d="M506 333v-86.5t-5 -80.5t-18 -69.5t-37.5 -55t-64 -36.5t-98.5 -13t-98.5 13t-64 36.5t-37.5 55t-18 69.5t-5 80.5v86.5v86.5t5 80.5t18 69.5t37.5 55t64 36.5t98.5 13t98.5 -13t64 -36.5t37.5 -55t18 -69.5t5 -80.5v-86.5zM420 333q0 73 -2 123.5t-15 81.5t-41 44.5
t-79 13.5t-79 -13.5t-41 -44.5t-15 -81.5t-2 -123.5t2 -123.5t15 -81.5t41 -44.5t79 -13.5t79 13.5t41 44.5t15 81.5t2 123.5z" />
    <glyph glyph-name="uniF731" unicode="&#xf731;" horiz-adv-x="471" 
d="M54 0v77h158v482l-117 -109l-55 58l179 159h78v-590h159v-77h-402z" />
    <glyph glyph-name="uniF732" unicode="&#xf732;" horiz-adv-x="553" 
d="M494 479q0 -53 -15 -87t-41.5 -55.5t-62.5 -35.5t-77 -28t-69.5 -23t-45.5 -21t-24.5 -32.5t-7.5 -57.5v-62h342v-77h-428v158q0 56 18.5 88.5t49.5 51.5t70.5 30t81.5 25q28 9 51 17.5t39 21.5t24.5 33.5t8.5 53.5t-5.5 55t-20 36t-39.5 20t-64 6q-69 0 -98 -17t-29 -64
h-85q0 47 15.5 78t43 49t66 25t85.5 7q52 0 93 -10t68 -31q29 -23 42.5 -60t13.5 -94z" />
    <glyph glyph-name="uniF733" unicode="&#xf733;" horiz-adv-x="554" 
d="M494 196q0 -59 -14.5 -98t-42.5 -62.5t-69.5 -33.5t-94.5 -10q-44 0 -83 6.5t-68.5 24t-46.5 48.5t-17 81h86q0 -45 29.5 -63.5t100.5 -18.5q34 0 59.5 5t42.5 18.5t25 36.5t8 59q0 39 -5 62t-20 35.5t-41.5 16.5t-69.5 4h-97v78h97q34 0 58.5 3.5t40.5 14.5t23.5 32
t7.5 56q0 31 -5.5 51t-20 32t-39.5 17t-65 5q-71 0 -101.5 -18t-30.5 -63h-86q0 47 16 78t45 49t69 25t88 7q55 0 96 -9t67 -30t39 -55.5t13 -86.5q0 -23 -2 -44.5t-9 -40t-20.5 -34t-35.5 -25.5q25 -10 39.5 -25.5t22 -35t9.5 -43t2 -49.5z" />
    </font>
</defs>
</svg>
